<svg width="29" height="28" viewBox="0 0 29 28" fill="none" xmlns="http://www.w3.org/2000/svg">
<rect x="0.84375" width="28" height="28" rx="14" fill="#3FA2DB"/>
<g clip-path="url(#clip0_261_1328)">
<path d="M18.5117 14.0007C20.5368 14.0007 22.1784 15.6423 22.1784 17.6673C22.1784 19.6924 20.5368 21.334 18.5117 21.334C16.4867 21.334 14.8451 19.6924 14.8451 17.6673C14.8451 15.6423 16.4867 14.0007 18.5117 14.0007ZM18.5117 15.3335L18.4518 15.3388C18.3157 15.3635 18.2085 15.4708 18.1838 15.6069L18.1784 15.6668L18.1782 17.3335L16.5102 17.334L16.4502 17.3394C16.3142 17.3641 16.2069 17.4713 16.1822 17.6074L16.1768 17.6673L16.1822 17.7272C16.2069 17.8633 16.3142 17.9706 16.4502 17.9953L16.5102 18.0007L18.1788 18.0001L18.1791 19.6696L18.1845 19.7296C18.2092 19.8656 18.3165 19.9729 18.4525 19.9976L18.5125 20.003L18.5724 19.9976C18.7084 19.9729 18.8157 19.8656 18.8404 19.7296L18.8458 19.6696L18.8455 18.0001L20.5148 18.0007L20.5747 17.9953C20.7107 17.9706 20.818 17.8633 20.8427 17.7272L20.8481 17.6673L20.8427 17.6074C20.818 17.4713 20.7107 17.3641 20.5747 17.3394L20.5148 17.334L18.8448 17.3335L18.8451 15.6668L18.8397 15.6069C18.815 15.4708 18.7077 15.3635 18.5716 15.3388L18.5117 15.3335ZM18.6784 7.33398C19.8337 7.33398 20.7779 8.23829 20.8416 9.3777L20.8451 9.50065L20.8459 14.0157C20.5369 13.8178 20.2012 13.6581 19.8453 13.5431L19.8451 10.916L14.4113 13.7764C14.2863 13.8422 14.1405 13.8516 14.0096 13.8046L13.9455 13.7764L8.51172 10.9167V15.834C8.51172 16.4461 8.98313 16.9481 9.5827 16.9968L9.67839 17.0007L14.2293 17.0007C14.1958 17.218 14.1784 17.4406 14.1784 17.6673C14.1784 17.7796 14.1827 17.8908 14.191 18.0009L9.67839 18.0007C8.52303 18.0007 7.57889 17.0963 7.51515 15.9569L7.51172 15.834V9.50065C7.51172 8.3453 8.41602 7.40115 9.55544 7.33741L9.67839 7.33398H18.6784ZM18.6784 8.33398H9.67839C9.06627 8.33398 8.56426 8.80539 8.51559 9.40497L8.51172 9.50065V9.78665L14.1784 12.769L19.8451 9.78598V9.50065C19.8451 8.88854 19.3736 8.38652 18.7741 8.33785L18.6784 8.33398Z" fill="white"/>
</g>
<defs>
<clipPath id="clip0_261_1328">
<rect width="16" height="16" fill="white" transform="translate(6.84375 6)"/>
</clipPath>
</defs>
</svg>
