<svg width="20" height="20" viewBox="0 0 20 20" fill="none" xmlns="http://www.w3.org/2000/svg">
<g clip-path="url(#clip0_32_2092)">
<path d="M17.6004 17.5H2.40039C2.06887 17.5 1.75093 17.3683 1.51651 17.1339C1.28209 16.8995 1.15039 16.5815 1.15039 16.25V6.375C1.15039 6.04348 1.28209 5.72554 1.51651 5.49112C1.75093 5.2567 2.06887 5.125 2.40039 5.125H17.6004C17.9319 5.125 18.2499 5.2567 18.4843 5.49112C18.7187 5.72554 18.8504 6.04348 18.8504 6.375V16.25C18.8504 16.5815 18.7187 16.8995 18.4843 17.1339C18.2499 17.3683 17.9319 17.5 17.6004 17.5ZM2.40039 16.25H17.6004V6.375H2.40039V16.25Z" fill="white"/>
<path d="M17.6004 10.625H2.40039C2.06887 10.625 1.75093 10.4933 1.51651 10.2589C1.28209 10.0245 1.15039 9.70652 1.15039 9.375V6.375C1.15039 6.04348 1.28209 5.72554 1.51651 5.49112C1.75093 5.2567 2.06887 5.125 2.40039 5.125H17.6004C17.9319 5.125 18.2499 5.2567 18.4843 5.49112C18.7187 5.72554 18.8504 6.04348 18.8504 6.375V9.375C18.8504 9.70652 18.7187 10.0245 18.4843 10.2589C18.2499 10.4933 17.9319 10.625 17.6004 10.625ZM2.40039 9.375H17.6004V6.375H2.40039V9.375Z" fill="white"/>
<path d="M11.4883 10.6871V9.31836C11.4883 8.97318 11.2085 8.69336 10.8633 8.69336H9.13203C8.78685 8.69336 8.50703 8.97318 8.50703 9.31836V10.6871C8.50703 11.0323 8.78685 11.3121 9.13203 11.3121H10.8633C11.2085 11.3121 11.4883 11.0323 11.4883 10.6871Z" fill="#9A3412"/>
<path d="M10.8617 11.9309H9.13672C8.8052 11.9309 8.48726 11.7992 8.25284 11.5647C8.01842 11.3303 7.88672 11.0124 7.88672 10.6809V9.31836C7.88672 8.98684 8.01842 8.6689 8.25284 8.43448C8.48726 8.20006 8.8052 8.06836 9.13672 8.06836H10.8617C11.1932 8.06836 11.5112 8.20006 11.7456 8.43448C11.98 8.6689 12.1117 8.98684 12.1117 9.31836V10.6809C12.1117 11.0124 11.98 11.3303 11.7456 11.5647C11.5112 11.7992 11.1932 11.9309 10.8617 11.9309ZM9.13672 10.6809H10.8617V9.31836H9.13672V10.6809Z" fill="white"/>
<path d="M14.7633 6.3752H5.23828V3.9502C5.23828 3.45291 5.43583 2.976 5.78746 2.62437C6.13909 2.27274 6.616 2.0752 7.11328 2.0752H12.8883C13.3856 2.0752 13.8625 2.27274 14.2141 2.62437C14.5657 2.976 14.7633 3.45291 14.7633 3.9502V6.3752ZM6.48828 5.1252H13.5133V3.9502C13.5133 3.78444 13.4474 3.62546 13.3302 3.50825C13.213 3.39104 13.054 3.3252 12.8883 3.3252H7.11328C6.94752 3.3252 6.78855 3.39104 6.67134 3.50825C6.55413 3.62546 6.48828 3.78444 6.48828 3.9502V5.1252Z" fill="white"/>
</g>
<defs>
<clipPath id="clip0_32_2092">
<rect width="20" height="20" fill="white"/>
</clipPath>
</defs>
</svg>
