<svg width="36" height="36" viewBox="0 0 36 36" fill="none" xmlns="http://www.w3.org/2000/svg">
<path d="M27.6383 29.4387C27.7689 29.3335 27.8526 29.1723 27.8526 28.9915C27.8526 28.9864 27.8526 2.87234 27.8526 2.87234C27.8526 2.555 27.5954 2.29787 27.2781 2.29787H10.658C10.2481 0.968706 9.00841 0 7.54658 0C6.10827 0 4.84972 0.958519 4.43572 2.29787H2.59498C2.27764 2.29787 2.02051 2.555 2.02051 2.87234V35.4255C2.02051 35.7429 2.27764 36 2.59498 36H20.8391C21.0248 36 21.1858 35.9164 21.2912 35.786L27.6383 29.4387ZM21.4185 34.0336V29.566H25.8861L21.4185 34.0336ZM7.54658 1.14894C8.36332 1.14894 9.07253 1.61655 9.4218 2.29787H5.67121C6.02386 1.61249 6.74164 1.14894 7.54658 1.14894ZM3.16944 3.44681H9.65297V7.46809C9.65297 7.99606 9.2235 8.42553 8.69552 8.42553C8.16755 8.42553 7.73807 7.99606 7.73807 7.46809V5.17021C7.73807 4.85288 7.48094 4.59574 7.16361 4.59574C6.84627 4.59574 6.58914 4.85288 6.58914 5.17021V7.46809C6.58914 8.62951 7.5341 9.57447 8.69552 9.57447C9.85694 9.57447 10.8019 8.62951 10.8019 7.46809V3.44681H26.7036V28.417H20.8441C20.5267 28.417 20.2696 28.6742 20.2696 28.9915V34.8511H3.16944V3.44681Z" fill="white"/>
<path d="M22.6823 26.4639C22.9997 26.4639 23.2568 26.2067 23.2568 25.8894C23.2568 25.5721 22.9997 25.3149 22.6823 25.3149H7.19068C6.87334 25.3149 6.61621 25.5721 6.61621 25.8894C6.61621 26.2067 6.87334 26.4639 7.19068 26.4639H22.6823Z" fill="white"/>
<path d="M7.19068 23.0171H22.6823C22.9997 23.0171 23.2568 22.76 23.2568 22.4426C23.2568 22.1253 22.9997 21.8682 22.6823 21.8682H7.19068C6.87334 21.8682 6.61621 22.1253 6.61621 22.4426C6.61621 22.76 6.87334 23.0171 7.19068 23.0171Z" fill="white"/>
<path d="M7.19068 19.5703H22.6823C22.9997 19.5703 23.2568 19.3132 23.2568 18.9959C23.2568 18.6785 22.9997 18.4214 22.6823 18.4214C16.6325 18.4214 13.2405 18.4214 7.19068 18.4214C6.87334 18.4214 6.61621 18.6785 6.61621 18.9959C6.61621 19.3132 6.87334 19.5703 7.19068 19.5703Z" fill="white"/>
<path d="M7.19068 16.1233H22.6823C22.9997 16.1233 23.2568 15.8662 23.2568 15.5488C23.2568 15.2315 22.9997 14.9744 22.6823 14.9744H7.19068C6.87334 14.9744 6.61621 15.2315 6.61621 15.5488C6.61621 15.8662 6.87334 16.1233 7.19068 16.1233Z" fill="white"/>
<path d="M7.19068 12.6765H22.6823C22.9997 12.6765 23.2568 12.4194 23.2568 12.1021C23.2568 11.7847 22.9997 11.5276 22.6823 11.5276H7.19068C6.87334 11.5276 6.61621 11.7847 6.61621 12.1021C6.61621 12.4194 6.87334 12.6765 7.19068 12.6765Z" fill="white"/>
<path d="M30.3417 2.29785H29.5757C29.2584 2.29785 29.0013 2.55498 29.0013 2.87232C29.0013 3.18966 29.2584 3.44679 29.5757 3.44679H29.7672V34.851H23.634C23.3167 34.851 23.0596 35.1082 23.0596 35.4255C23.0596 35.7428 23.3167 36 23.634 36H30.3417C30.659 36 30.9162 35.7428 30.9162 35.4255V2.87232C30.9162 2.55498 30.659 2.29785 30.3417 2.29785Z" fill="white"/>
<path d="M33.4059 2.29785H32.6399C32.3226 2.29785 32.0654 2.55498 32.0654 2.87232C32.0654 3.18966 32.3226 3.44679 32.6399 3.44679H32.8314V34.851H32.6399C32.3226 34.851 32.0654 35.1082 32.0654 35.4255C32.0654 35.7428 32.3226 36 32.6399 36H33.4059C33.7232 36 33.9803 35.7428 33.9803 35.4255V2.87232C33.9803 2.55498 33.7232 2.29785 33.4059 2.29785Z" fill="white"/>
</svg>
