<svg width="48" height="48" viewBox="0 0 48 48" fill="none" xmlns="http://www.w3.org/2000/svg">
<g filter="url(#filter0_d_32_172)">
<path d="M38 0H10C6.68629 0 4 2.68629 4 6V34C4 37.3137 6.68629 40 10 40H38C41.3137 40 44 37.3137 44 34V6C44 2.68629 41.3137 0 38 0Z" fill="#024DBD"/>
</g>
<path d="M34.7063 10H13.2937C11.5264 10 10.0938 11.4327 10.0938 13.2V26.8C10.0938 28.5673 11.5264 30 13.2937 30H34.7063C36.4736 30 37.9062 28.5673 37.9062 26.8V13.2C37.9062 11.4327 36.4736 10 34.7063 10Z" fill="white"/>
<path d="M37.9062 10L25.0156 22.8125C24.4688 23.4375 23.5312 23.4375 22.9844 22.8125L10.0938 10M10.0938 30L20.1719 20M37.9062 30L27.8281 20" stroke="#024DBD" stroke-width="2.5"/>
<defs>
<filter id="filter0_d_32_172" x="0" y="0" width="48" height="48" filterUnits="userSpaceOnUse" color-interpolation-filters="sRGB">
<feFlood flood-opacity="0" result="BackgroundImageFix"/>
<feColorMatrix in="SourceAlpha" type="matrix" values="0 0 0 0 0 0 0 0 0 0 0 0 0 0 0 0 0 0 127 0" result="hardAlpha"/>
<feOffset dy="4"/>
<feGaussianBlur stdDeviation="2"/>
<feComposite in2="hardAlpha" operator="out"/>
<feColorMatrix type="matrix" values="0 0 0 0 0 0 0 0 0 0 0 0 0 0 0 0 0 0 0.25 0"/>
<feBlend mode="normal" in2="BackgroundImageFix" result="effect1_dropShadow_32_172"/>
<feBlend mode="normal" in="SourceGraphic" in2="effect1_dropShadow_32_172" result="shape"/>
</filter>
</defs>
</svg>
