<svg width="21" height="20" viewBox="0 0 21 20" fill="none" xmlns="http://www.w3.org/2000/svg">
<g clip-path="url(#clip0_261_1357)">
<path d="M10.8438 0C5.32031 0 0.84375 4.47656 0.84375 10C0.84375 15.5234 5.32031 20 10.8438 20C16.3672 20 20.8438 15.5234 20.8438 10C20.8438 4.47656 16.3672 0 10.8438 0ZM13.0508 8.30469L12.9375 9.80078H11.4023V14.9961H9.46484V9.80078H8.42969V8.30469H9.46484V7.30078C9.46484 6.85937 9.47656 6.17578 9.79688 5.75C10.1367 5.30078 10.6016 4.99609 11.4023 4.99609C12.707 4.99609 13.2539 5.18359 13.2539 5.18359L12.9961 6.71484C12.9961 6.71484 12.5664 6.58984 12.1641 6.58984C11.7617 6.58984 11.4023 6.73438 11.4023 7.13672V8.30469H13.0508Z" fill="#94A3B8" fill-opacity="0.8"/>
</g>
<defs>
<clipPath id="clip0_261_1357">
<rect width="20" height="20" fill="white" transform="translate(0.84375)"/>
</clipPath>
</defs>
</svg>
