<svg width="20" height="20" viewBox="0 0 20 20" fill="none" xmlns="http://www.w3.org/2000/svg">
<g clip-path="url(#clip0_32_2106)">
<path d="M18.4329 7.07882C17.3071 2.89412 13.8882 0 10 0C6.12353 0 2.69176 2.89882 1.56706 7.07882C0.688235 7.17529 0 7.91647 0 8.82353V13.5294C0 14.2647 0.449412 14.8941 1.08706 15.1588C1.31529 17.2141 3.04353 18.8235 5.15882 18.8235H8.34353C8.58706 19.5071 9.23412 20 10 20H13.5294C14.5024 20 15.2941 19.2082 15.2941 18.2353C15.2941 17.2624 14.5024 16.4706 13.5294 16.4706H10C9.23412 16.4706 8.58706 16.9635 8.34353 17.6471H5.15882C3.73765 17.6471 2.55059 16.6353 2.27765 15.2941H3.52941V14.1176H4.70588V8.23529H3.52941V7.05882H2.81647C3.89059 3.57529 6.76 1.17647 10 1.17647C13.2494 1.17647 16.1094 3.57294 17.1835 7.05882H16.4706V8.23529H15.2941V14.1176H16.4706V15.2941H18.2424C19.2118 15.2941 20 14.5024 20 13.5294V8.82353C20 7.91647 19.3118 7.17529 18.4329 7.07882ZM10 17.6471H13.5294C13.8529 17.6471 14.1176 17.9106 14.1176 18.2353C14.1176 18.56 13.8529 18.8235 13.5294 18.8235H10C9.67647 18.8235 9.41177 18.56 9.41177 18.2353C9.41177 17.9106 9.67647 17.6471 10 17.6471ZM2.35294 14.1176H1.75765C1.43765 14.1176 1.17647 13.8541 1.17647 13.5294V8.82353C1.17647 8.49882 1.43765 8.23529 1.75765 8.23529H2.35294V14.1176ZM18.8235 13.5294C18.8235 13.8541 18.5624 14.1176 18.2424 14.1176H17.6471V8.23529H18.2424C18.5624 8.23529 18.8235 8.49882 18.8235 8.82353V13.5294Z" fill="white"/>
</g>
<defs>
<clipPath id="clip0_32_2106">
<rect width="20" height="20" fill="white"/>
</clipPath>
</defs>
</svg>
