<svg width="32" height="32" viewBox="0 0 32 32" fill="none" xmlns="http://www.w3.org/2000/svg">
<g clip-path="url(#clip0_32_2328)">
<path d="M21.3281 5.33398H10.6615C7.71594 5.33398 5.32812 7.7218 5.32812 10.6673V21.334C5.32812 24.2795 7.71594 26.6673 10.6615 26.6673H21.3281C24.2736 26.6673 26.6615 24.2795 26.6615 21.334V10.6673C26.6615 7.7218 24.2736 5.33398 21.3281 5.33398Z" stroke="white" stroke-width="2" stroke-linecap="round" stroke-linejoin="round"/>
<path d="M16 20C18.2091 20 20 18.2091 20 16C20 13.7909 18.2091 12 16 12C13.7909 12 12 13.7909 12 16C12 18.2091 13.7909 20 16 20Z" stroke="white" stroke-width="2" stroke-linecap="round" stroke-linejoin="round"/>
<path d="M22 10V10.032" stroke="white" stroke-width="2" stroke-linecap="round" stroke-linejoin="round"/>
</g>
<defs>
<clipPath id="clip0_32_2328">
<rect width="32" height="32" fill="white"/>
</clipPath>
</defs>
</svg>
