<svg width="21" height="20" viewBox="0 0 21 20" fill="none" xmlns="http://www.w3.org/2000/svg">
<path d="M17.0212 8.16894C17.9245 6.77999 17.5308 4.92174 16.1419 4.01842C14.7529 3.1151 12.8947 3.50878 11.9913 4.89773L9.81054 8.25094C8.90722 9.63989 9.30089 11.4981 10.6898 12.4015C12.0788 13.3048 13.937 12.9111 14.8404 11.5222L17.0212 8.16894Z" stroke="#94A3B8" stroke-opacity="0.8" stroke-width="2" stroke-linecap="round"/>
<path d="M12.072 12.1081C12.9753 10.7192 12.5816 8.86095 11.1926 7.95763C9.8037 7.05431 7.94545 7.44799 7.04213 8.83693L4.86132 12.1902C3.958 13.5791 4.35168 15.4374 5.74062 16.3407C7.12957 17.244 8.98782 16.8503 9.89114 15.4614L12.072 12.1081Z" stroke="#94A3B8" stroke-opacity="0.8" stroke-width="2" stroke-linecap="round"/>
</svg>
