<svg width="21" height="20" viewBox="0 0 21 20" fill="none" xmlns="http://www.w3.org/2000/svg">
<g clip-path="url(#clip0_261_1360)">
<path d="M18.8308 0.626953H2.85578C2.85078 0.626953 2.84516 0.626953 2.83891 0.626953C2.08953 0.626953 1.48141 1.22945 1.47266 1.97633V18.0213C1.48141 18.7688 2.08953 19.372 2.83891 19.372C2.84516 19.372 2.85078 19.372 2.85703 19.372H18.8289C18.8339 19.372 18.8402 19.372 18.8464 19.372C19.5964 19.372 20.2058 18.7701 20.2177 18.0226V18.0213V1.97758C20.2058 1.22945 19.5964 0.626953 18.8458 0.626953C18.8395 0.626953 18.8339 0.626953 18.8277 0.626953H18.8308ZM7.03203 16.6007H4.24828V7.65633H7.03203V16.6007ZM5.64078 6.43258C4.75016 6.43258 4.02891 5.7107 4.02891 4.8207C4.02891 3.9307 4.75078 3.20883 5.64078 3.20883C6.53078 3.20883 7.25266 3.93008 7.25266 4.82008C7.25266 4.8207 7.25266 4.82133 7.25266 4.82258C7.25266 5.71195 6.53141 6.4332 5.64203 6.4332C5.64141 6.4332 5.64078 6.4332 5.64016 6.4332L5.64078 6.43258ZM17.442 16.6007H14.6664V12.2513C14.6664 11.2138 14.6452 9.87945 13.2202 9.87945C11.7727 9.87945 11.552 11.0082 11.552 12.1751V16.6013H8.77641V7.65695H11.4427V8.87633H11.4789C11.9964 8.00445 12.9327 7.42945 14.0033 7.42945C14.0414 7.42945 14.0789 7.43008 14.1164 7.43133H14.1108C16.9233 7.43133 17.4433 9.28258 17.4433 11.692V16.6013L17.442 16.6007Z" fill="#94A3B8" fill-opacity="0.8"/>
</g>
<defs>
<clipPath id="clip0_261_1360">
<rect width="20" height="20" fill="white" transform="translate(0.84375)"/>
</clipPath>
</defs>
</svg>
