<svg xmlns="http://www.w3.org/2000/svg" viewBox="0 0 57.65 59.77"><defs><style>.cls-1{fill:none;}.cls-2,.cls-3,.cls-4{fill:#fff;}.cls-3{font-size:5.14px;}.cls-3,.cls-4{font-family:Montserrat-Bold, Montserrat;font-weight:700;}.cls-4{font-size:3.06px;}</style></defs><g id="Layer_2" data-name="Layer 2"><g id="Layer_1-2" data-name="Layer 1"><rect class="cls-1" width="57.65" height="59.77"/><path class="cls-2" d="M42,26.89l1.86-1.28-1.06-.41Z"/><path class="cls-2" d="M9.41,31H22a19,19,0,0,1-3.83-3.49,1.16,1.16,0,0,1-.05-1.44l-.86-.62-.41-.3-1.05-.76-2.1-1.52-.28.4L7,18.39,2.87,24.11l5.85,4a5.09,5.09,0,0,0-.3.5,4.6,4.6,0,0,0-.54,2.18V31H9v-.25a3.32,3.32,0,0,1,.18-1.09l.37.26a2.91,2.91,0,0,0-.11.83Zm4-2.22a.42.42,0,0,1-.59.09.41.41,0,0,1-.09-.58.42.42,0,1,1,.68.49ZM14.56,31h-.28c.35-.48.71-1,1.07-1.43s.83-1.06,1.26-1.58c-.36.57-.73,1.13-1.11,1.69L14.56,31Zm.18-4.08a.42.42,0,0,1-.74-.14.4.4,0,0,1,.07-.35.42.42,0,0,1,.58-.1.49.49,0,0,1,.12.13A.41.41,0,0,1,14.74,26.93Zm-1.06-3.45.06-.08.08.06,1.11.84.37.29.17.14c.19.15.37.29.54.44l-.58-.37-.24-.16-.34-.23-1.06-.73c-.25.37-.51.72-.77,1.08s-.54.75-.82,1.12l-.36.15.17-.25c.27-.39.55-.77.83-1.15S13.39,23.86,13.68,23.48ZM6,21.19a9,9,0,0,1-.62,1,9,9,0,0,1-.74.89,5.59,5.59,0,0,1-.89.78L6.5,20.09A5.66,5.66,0,0,1,6,21.19Z"/><path class="cls-2" d="M24.36,22.48l-1,.43,1.33,1.65C24.57,23.87,24.47,23.18,24.36,22.48Z"/><path class="cls-2" d="M29.69,20.59l.06-.34-.45.19,1.14,5.83a18.14,18.14,0,0,0,.28-4.88.59.59,0,0,0-.32-.49l.06-.19Z"/><path class="cls-2" d="M23.11,31l-4.84-6-.44.19,1,.75-.34.46a.6.6,0,0,0,0,.74A18.66,18.66,0,0,0,23,31h.11Z"/><path class="cls-2" d="M35.48,28.26l0,.18,2.43-5.14-1-.4A18.49,18.49,0,0,0,35.48,28.26Z"/><path class="cls-2" d="M49.46,28l-.19.13L45.4,31h5.07v-.73A3.13,3.13,0,0,0,49.46,28Z"/><path class="cls-2" d="M18,24.66l-.72-.89-.89.37,1,.76Z"/><path class="cls-2" d="M24,21l-1.63.68.72.89L24.3,22c0-.11,0-.23-.05-.34A2.63,2.63,0,0,0,24,21Z"/><path class="cls-2" d="M29.21,20l.63-.26h0l.2-1.1-.22-.08L29,18.9Z"/><path class="cls-2" d="M38.55,21.92l-.22-.09-.08.43-.57-.1h-.1a.6.6,0,0,0-.55.36h0l1,.4Z"/><path class="cls-2" d="M44.42,25.25a2.3,2.3,0,0,0,.66-.82l-1.6-.62-.47,1,1.31.51Z"/><path class="cls-2" d="M52,31v-.74a4.66,4.66,0,0,0-.87-2.71c-.15,0-.3,0-.45,0a2.73,2.73,0,0,0-.81.18,3.57,3.57,0,0,1,1,2.5V31Z"/><path class="cls-2" d="M50.9,48.06a3.57,3.57,0,0,1-2.54,3.41l0,0h0L29.94,58.6,11.6,51.5h0l0,0A3.57,3.57,0,0,1,9,48.06v-.74H7.88v.74a4.67,4.67,0,0,0,3.32,4.47l18.74,7.24,18.74-7.24A4.67,4.67,0,0,0,52,48.06v-.74H50.9v.74Z"/><path class="cls-2" d="M54.35,31.75H5.53a3.28,3.28,0,0,1-1,2.33,3.31,3.31,0,0,1-2.33,1v8.25a3.29,3.29,0,0,1,3.3,3.29H54.35a3.29,3.29,0,0,1,3.3-3.29V35A3.29,3.29,0,0,1,54.35,31.75Zm2.2,10.58a4.4,4.4,0,0,0-3.16,3.15H6.49a4.4,4.4,0,0,0-3.16-3.15V36a4.4,4.4,0,0,0,3.16-3.15h46.9A4.4,4.4,0,0,0,56.55,36Z"/><path class="cls-2" d="M7.08,38.55a.68.68,0,0,0-.48-.11.53.53,0,0,0-.37.29.57.57,0,0,0,0,.22.64.64,0,0,0,0,.23.55.55,0,0,0,.15.19.43.43,0,0,0,.19.13,1.07,1.07,0,0,0,.25,0,.75.75,0,0,0,.24-.08.55.55,0,0,0,.18-.19A.65.65,0,0,0,7.32,39a.61.61,0,0,0-.07-.24A.58.58,0,0,0,7.08,38.55Z"/><path class="cls-2" d="M53.09,38.55a.44.44,0,0,0-.22-.1.53.53,0,0,0-.25,0,.53.53,0,0,0-.24.11.46.46,0,0,0-.13.18.57.57,0,0,0,0,.22.48.48,0,0,0,0,.23.52.52,0,0,0,.14.19.46.46,0,0,0,.2.13,1,1,0,0,0,.25,0,.63.63,0,0,0,.23-.08.47.47,0,0,0,.18-.19.54.54,0,0,0,.07-.29.4.4,0,0,0-.07-.24A.48.48,0,0,0,53.09,38.55Z"/><path class="cls-2" d="M34.62,31h4.49c.16-.12.33-.23.5-.34l4.84-3.29A1.09,1.09,0,0,1,46,27.28a1,1,0,0,1-.37,1.24L42.38,31Zm7.75,0h2.08l4.48-3.36,0,0a2.75,2.75,0,0,1,.41-.24A3.07,3.07,0,0,1,50.65,27h0a7.87,7.87,0,0,0,2-.4,6.07,6.07,0,0,0,3.92-3.14,5.71,5.71,0,0,0,.07-3.59A6.59,6.59,0,0,0,55.87,18l-2.7,3.36-1.49.24-.83-.54-.26-1.24,2.1-3.25a3.88,3.88,0,0,0-1.33.1,4.59,4.59,0,0,0-1.91,1.16,7.08,7.08,0,0,0-1.19,1.35l-1.12-.77a6.11,6.11,0,0,0-.62,1.14,11.44,11.44,0,0,0-.68,3.78,3.25,3.25,0,0,1-.22,1.29h0a2.83,2.83,0,0,1-.66.92l-.19.15-.22.15L41.47,28l-.86.59L42.29,25l.19-.39.47-1,4-8.39a1.15,1.15,0,0,0,.88-.65l.21-.44a1.16,1.16,0,0,0,0-1,.64.64,0,0,0-.15-.13,1.1,1.1,0,0,0-.25-.17l-.31-.14c-.41-.19-.81-.39-1.21-.61s-.8-.43-1.18-.68c.44.14.86.31,1.27.48s.84.36,1.24.55l.31.15a1.65,1.65,0,0,1,.31.2l0,.05c.37-.8.72-1.61,1.16-2.36a3.17,3.17,0,0,1,.53-.73,1.35,1.35,0,0,1,1-.42,3.43,3.43,0,0,1,1.39.69,9.67,9.67,0,0,1,3.12,3.87,11.26,11.26,0,0,1,.8,2.14,12.76,12.76,0,0,0-1.3-7,10.23,10.23,0,0,0-2.2-3.19,6.6,6.6,0,0,0-1.63-1l-.59-.26L47.92,3.32a2.23,2.23,0,0,1-2.47.13,3.44,3.44,0,0,1-.76-.5,2.77,2.77,0,0,1-.51-.63A1.47,1.47,0,0,1,44,1.65a1.48,1.48,0,0,1,0-.21L40.94,0l-2.5,5.29,3,1.43c.39-.7,1.54-.86,2.62-.35s1.73,1.57,1.37,2.32c0,0,0,0,0,0l-1.21,2.55a1.15,1.15,0,0,0-.88.65l-.2.44a1.14,1.14,0,0,0,0,1.09l-4.1,8.66-.47,1-.18.39L34.88,31h-.26l.29-2.81a19,19,0,0,1,1.41-5.5c.06-.14.11-.27.17-.4l0,0a1.17,1.17,0,0,1,1.17-.69h0l.1,0,.95-5.37-.47-.08,1.62-7.86-7-1.23L31.76,15l-.48-.09-.7,3.94L30.39,20l0,.17.8.13h0l.3.05c.67.12,1.33.24,2,.38s1.32.28,2,.44c-.67-.07-1.34-.16-2-.26l-1.18-.19h0l-.82-.14-.76-.14a1.06,1.06,0,0,1,.34.26h0a1.17,1.17,0,0,1,.3.7,19.13,19.13,0,0,1-.54,6.12L30.38,29q-.81-4.16-1.63-8.31l-.08-.43c-.07-.37-.14-.73-.22-1.1,0-.15-.05-.3-.08-.44a3.18,3.18,0,0,1,.19-1.83,7.55,7.55,0,0,0,.54-2c.11-.89.4-3.21-1.12-4.9a5.74,5.74,0,0,0-3.21-1.63,6.6,6.6,0,0,0-2-.07c.61,1.3,1.23,2.6,1.84,3.89l-.43,1.45-.85.51-1.23-.31-2-3.3a3.53,3.53,0,0,0-.49,1.24,4.56,4.56,0,0,0,.2,2.23,8,8,0,0,0,.7,1.66l-1.18.66A6.33,6.33,0,0,0,20,17.33a11.39,11.39,0,0,0,3.11,2.26,3.15,3.15,0,0,1,1.07.77,2.13,2.13,0,0,1,.28.41,3,3,0,0,1,.31.82l0,.23c0,.14.05.29.07.44.17,1.08.33,2.18.49,3.27l.15,1-2.76-3.42-.28-.35-.72-.9-5.49-6.8A1.18,1.18,0,0,0,16.1,14l-.31-.38a1.14,1.14,0,0,0-.93-.43l-.19.07a1.32,1.32,0,0,0-.25.16l-.26.22c-.36.28-.71.56-1.08.82s-.74.53-1.13.77c.32-.33.65-.64,1-.94l1-.88.27-.21a2.07,2.07,0,0,1,.32-.19l.06,0A24.43,24.43,0,0,1,13,10.94a3.06,3.06,0,0,1-.42-.8A1.36,1.36,0,0,1,12.65,9a3.4,3.4,0,0,1,1.23-.95,9.78,9.78,0,0,1,4.84-1.13A11.46,11.46,0,0,1,21,7.16,12.76,12.76,0,0,0,14.1,5.27a9.9,9.9,0,0,0-3.82.59,6.18,6.18,0,0,0-1.64,1l-.5.41L6,9a2.21,2.21,0,0,1-1,2.27,3.44,3.44,0,0,1-.78.47,2.39,2.39,0,0,1-.79.18,1.64,1.64,0,0,1-.69-.11l-.18-.11L0,13.83l3.67,4.56,2.6-2.09c-.46-.66-.1-1.77.83-2.51s2.16-.88,2.68-.23l0,0,1.77,2.19a1.18,1.18,0,0,0,.2,1.08l.31.38a1.13,1.13,0,0,0,1,.42l4.73,5.87.72.89.28.35h0l5,6.23H42.37ZM39.83,5.44,39,5.05l.2-.43L40,5Zm10.85,3.5a1.6,1.6,0,0,0-1.13.54,5.54,5.54,0,0,0-.8,1.1c-.23.39-.44.81-.7,1.21a12.34,12.34,0,0,1,.5-1.32,4.29,4.29,0,0,1,.8-1.19,2.22,2.22,0,0,1,.6-.44,1.35,1.35,0,0,1,.74-.12,1.62,1.62,0,0,1,.69.24c.21.12.39.26.59.39A4.39,4.39,0,0,0,50.68,8.94Zm-6.5-6a3.51,3.51,0,0,0,1.12.79A3.41,3.41,0,0,0,46.63,4a2.16,2.16,0,0,0,1.27-.32L48,3.67l.07,0c.71.34,1.44.65,2.15,1,.35.18.7.37,1,.58a8.48,8.48,0,0,1,1,.69c-.34-.2-.68-.4-1-.58s-.71-.34-1.08-.5c-.69-.3-1.4-.59-2.1-.91a2.48,2.48,0,0,1-1.37.32A3.64,3.64,0,0,1,45.2,4,3.34,3.34,0,0,1,44.07,3a2.22,2.22,0,0,1-.37-.63,1.69,1.69,0,0,1-.15-.7A2.24,2.24,0,0,0,44.18,2.94Zm1.27,4.13a3.45,3.45,0,0,0-.55-.53,3.91,3.91,0,0,0-.65-.4,3.61,3.61,0,0,0-1.47-.39,2.15,2.15,0,0,0-1.46.43A1.65,1.65,0,0,1,42,5.7a2.22,2.22,0,0,1,.8-.18,3.38,3.38,0,0,1,1.6.36,3.23,3.23,0,0,1,1.26,1.06,2.55,2.55,0,0,1,.34.75,1.58,1.58,0,0,1,0,.81A2.15,2.15,0,0,0,45.45,7.07Zm6.77,16.72c-.19.27-.38.54-.58.8s-.4.52-.62.78c.16-.3.32-.58.49-.87l.45-.73-.8-.53c-.29-.2-.59-.39-.88-.6L49.41,22l-.84-.66c.32.16.63.34.93.52l.91.57.9.58.88.61.1.07Zm-2-6.1a3.42,3.42,0,0,1,.52-.4,3.11,3.11,0,0,1,1.25-.43l.27,0-.14.23q-.23.36-.45.69c-.15.24-.31.46-.47.69q-.46.68-1,1.32c.25-.5.53-1,.81-1.44.14-.24.28-.48.43-.71l.29-.45-.33.07a4.66,4.66,0,0,0-.58.23,5.09,5.09,0,0,0-.54.32l-.53.37A5,5,0,0,1,50.17,17.69Zm-.4,3,.94.62.91.6,1.7-.29,1.18-1.48,1.21-1.52.13-.16.09.18a6.18,6.18,0,0,1,.46,1.14,8,8,0,0,1,.25,1.2,4.61,4.61,0,0,1-.31,2.41,4.39,4.39,0,0,1-1.56,1.85,7.46,7.46,0,0,1-2.19,1,8,8,0,0,0,2.12-1.09,4.3,4.3,0,0,0,1.44-1.83,4.5,4.5,0,0,0,.25-2.3,7.35,7.35,0,0,0-.25-1.15,5.53,5.53,0,0,0-.35-.91L54.7,20.32l-1.22,1.5,0,0h0l-1.8.26h0l0,0-.92-.66-.92-.65-1.82-1.34Zm-8.71,7.86,1.27-.88c.85-.57,1.69-1.14,2.55-1.7l0,0,.35-.29h0a3.08,3.08,0,0,0,.63-.84.59.59,0,0,0,0-.08,2.77,2.77,0,0,0,.22-.63,6.48,6.48,0,0,0,.09-.77,6.77,6.77,0,0,1,0,.78,2.91,2.91,0,0,1-.17.66.42.42,0,0,0,0,.1,3.21,3.21,0,0,1-.56.85,2.73,2.73,0,0,1-.35.33l-.07.06c-.84.6-1.69,1.19-2.54,1.78s-1.53,1-2.31,1.52l-.28.19-.19.12-.45.29-1.57,1h-.08c.59-.45,1.19-.88,1.8-1.3l.37-.27.1-.07.49-.34ZM45,18.27c-.4.92-.82,1.83-1.22,2.75l-1.13,2.47-.13.27-.33.73-.18.39c-.62,1.33-1.25,2.66-1.87,4l-.46.31a.36.36,0,0,1,0-.09l2.06-4.31L42,24.4c.12-.24.24-.49.35-.73l.13-.26L43.63,21C44.08,20.06,44.52,19.16,45,18.27Zm-5.87,5.5.18-.39.47-1,4.08-8.62.31.14-4.07,8.61-.47,1-.19.39L36.05,31h-.37ZM33,18.09a.42.42,0,1,1,.82.15.41.41,0,0,1-.48.34A.42.42,0,0,1,33,18.09Zm2.26.4a.42.42,0,0,1,.49-.34.43.43,0,0,1,.34.49.42.42,0,0,1-.83-.15Zm3.08-1.95,0,.1c-.09.45-.18.9-.28,1.36,0,.23-.1.45-.15.68s-.1.45-.16.68l.09-.69q0-.36.09-.69c.06-.43.12-.85.19-1.28l-1.3-.22c-.46-.08-.93-.16-1.39-.26L34,15.94l-.69-.15-.69-.16.7.08.71.1c.47.06.94.13,1.4.21s.94.16,1.4.24.93.16,1.4.26Zm-1.63-.67-.48-.09,1.26-4.35Zm-.48-.09-.48-.08,1.16-4.3Zm-.49-.09-.48-.08,1.08-4.24Zm-.49-.08-.25,0-.23,0,1-4.18Zm-.48-.09-.48-.08.9-4.14Zm-.49-.08-.08,0-.4-.07.81-4.08Zm-.49-.09-.48-.09.73-4Zm3.9.69L37.17,16l-.48-.08L38,11.46,37.17,16l1.44-4.45Zm.47-7.46A5.25,5.25,0,0,1,37,8.64a9,9,0,0,1-1.16-.13,11.57,11.57,0,0,1-1.13-.27,5.7,5.7,0,0,1-1.09-.47Zm-4.7,2.63-.16,4-.47-.08Zm-.58,0-.07,4-.47-.09Zm-.76,10.91a9.63,9.63,0,0,1,.11,1.08,8.08,8.08,0,0,1,0,1.1,9.65,9.65,0,0,1-.13,1.08l-.12.54a5.26,5.26,0,0,1-.15.53c0-.18.07-.36.1-.54s.06-.36.08-.54c0-.36.09-.72.11-1.08s0-.72,0-1.08S32.1,22.44,32.09,22.08Zm.21,3c.05-.36.09-.72.11-1.08s0-.73.05-1.09a8,8,0,0,1,0,1.09,10,10,0,0,1-.3,2.17c0,.17-.09.35-.14.52s-.12.35-.19.52c0-.18.09-.35.13-.53l.12-.53C32.19,25.81,32.25,25.46,32.3,25.1Zm2,2.71c0-.2.07-.41.11-.61s.11-.4.17-.6c0,.21-.05.41-.08.62l-.09.61-.15,1.23A5.83,5.83,0,0,1,34.31,27.81ZM27.41,31c-.08-.5-.15-1-.23-1.5,0-.18-.05-.35-.07-.53l-.09-.6c-.28-1.93-.57-3.86-.85-5.79a1.39,1.39,0,0,1,0-.86h0a.84.84,0,0,1,.57-.58.64.64,0,0,1,.47.15,1.29,1.29,0,0,1,.49.73c.61,3,1.23,6,1.85,9H27.41Zm-7-18.93c-.09-.15-.18-.3-.28-.45a3,3,0,0,0-.07.32,2.6,2.6,0,0,0,0,.62,4.46,4.46,0,0,0,0,.63c0,.21.07.42.1.64a6.32,6.32,0,0,1-.22-.61,3.56,3.56,0,0,1-.13-.65A3.08,3.08,0,0,1,20,11.27l.09-.26.15.23.43.71.41.71c.26.48.53,1,.76,1.47-.34-.43-.65-.89-.95-1.35Zm2.08,2.82,1-.58.93-.54.49-1.67-.83-1.71-.83-1.75-.09-.18h.21a6.32,6.32,0,0,1,1.22.09,7.82,7.82,0,0,1,1.18.29,4.65,4.65,0,0,1,2,1.33,4.3,4.3,0,0,1,1,2.21,7.49,7.49,0,0,1-.06,2.41,8,8,0,0,0-.06-2.39,4.4,4.4,0,0,0-1-2.09,4.52,4.52,0,0,0-2-1.23,7.42,7.42,0,0,0-1.15-.28,6.12,6.12,0,0,0-1-.08l.74,1.57.82,1.76,0,0v0l-.55,1.74v0h0l-1,.54-1,.54-2,1.06Zm.05,1.36c.29-.21.58-.42.88-.61l.91-.58.91-.55.93-.52.11-.06,0,.1c.16.29.32.58.47.87s.29.59.43.89c-.2-.27-.38-.54-.57-.81s-.31-.49-.46-.73l-.82.49-.93.53c-.31.18-.63.34-.94.51Zm3.23,9.91c-.08-.51-.15-1-.23-1.53-.12-.83-.25-1.66-.36-2.5,0-.14,0-.29-.05-.44a.59.59,0,0,1,0-.13,3.33,3.33,0,0,0-.31-.92,2.6,2.6,0,0,0-.28-.45,2.76,2.76,0,0,0-.53-.55,7.14,7.14,0,0,0-.65-.41,4.13,4.13,0,0,1,.69.36,2.61,2.61,0,0,1,.59.51,2.86,2.86,0,0,1,.33.47,3.32,3.32,0,0,1,.36,1s0,.06,0,.09.05.29.07.43c.14.85.28,1.7.4,2.55s.26,1.82.38,2.73c0,.12,0,.23,0,.34l0,.23.06.53c.09.77.17,1.55.24,2.33-.17-.87-.33-1.74-.47-2.61,0-.15,0-.3-.07-.45l0-.12h0L25.9,27h0C25.85,26.71,25.81,26.44,25.77,26.17Zm-5.62-5.72L21.46,22h0l.61.74.12.15c.1.11.19.23.29.35,1.06,1.28,2.1,2.58,3.16,3.87,0,.19.05.38.07.56l-.06-.08c-1.13-1.42-2.27-2.83-3.4-4.26L22,23l-.08-.1-.63-.8L20,20.54,18.2,18.15C18.86,18.91,19.5,19.68,20.15,20.45ZM13.91,17l4.94,6.12.72.89.28.35L25.21,31h-.43L19.52,24.5l-.28-.35-.72-.9-4.87-6ZM12.09,8.85a1.87,1.87,0,0,1,.53-.52l.6-.36a4.53,4.53,0,0,0-.93,1,1.6,1.6,0,0,0,0,1.25,5.28,5.28,0,0,0,.64,1.19c.25.39.53.76.78,1.16a11.69,11.69,0,0,1-1-1A4.15,4.15,0,0,1,12,10.3a2,2,0,0,1-.13-.73A1.39,1.39,0,0,1,12.09,8.85Zm-3.76,4a3.64,3.64,0,0,0-.72.26,4.34,4.34,0,0,0-.64.41,4,4,0,0,0-1,1.16,2.21,2.21,0,0,0-.24,1.5,1.66,1.66,0,0,1-.15-.8,2.28,2.28,0,0,1,.19-.8,3.36,3.36,0,0,1,1-1.28,3.24,3.24,0,0,1,1.5-.67,2.31,2.31,0,0,1,.83,0,1.71,1.71,0,0,1,.72.37A2.09,2.09,0,0,0,8.33,12.85Zm-5.65-.63a2.24,2.24,0,0,0,1.38,0,3.61,3.61,0,0,0,1.2-.66,3.65,3.65,0,0,0,.86-1.06,2.31,2.31,0,0,0,.26-1.28V9.1l.06,0C7,8.56,7.64,8,8.28,7.56c.31-.24.64-.47,1-.69a8.06,8.06,0,0,1,1-.57c-.33.22-.66.44-1,.68s-.62.49-.92.75c-.58.49-1.15,1-1.74,1.49a2.43,2.43,0,0,1-.31,1.38,3.51,3.51,0,0,1-1,1.11,3.46,3.46,0,0,1-1.31.63,2.92,2.92,0,0,1-.72.06A1.91,1.91,0,0,1,2.68,12.22Zm1.44,4.6.29.37-.7.57-.3-.37Z"/><path class="cls-2" d="M24.43,13.75l0,0v0Z"/><path class="cls-2" d="M24.89,12.07v0l0,0Z"/><path class="cls-2" d="M47.92,4,48,4l.07,0Z"/><path class="cls-2" d="M51.65,22l0,0h0Z"/><path class="cls-2" d="M53.37,21.63h0l0,0Z"/><path class="cls-2" d="M30,55.33h-.44v.16H30Z"/><path class="cls-2" d="M31.37,54.86H28.16V55h3.21Z"/><path class="cls-2" d="M33.11,54.39H26.42v.16h6.69Z"/><path class="cls-2" d="M34.49,53.92H25v.16h9.45Z"/><path class="cls-2" d="M35.88,53.45H23.65v.16H35.88Z"/><path class="cls-2" d="M37.27,53H22.61v.15H37.27Z"/><path class="cls-2" d="M38.3,52.52H21.57v.15H38.3Z"/><text class="cls-3" transform="translate(8.52 40.67)">Home Fix Repair</text><text class="cls-4" transform="translate(12.2 50.41)">HOME MAINTENANCE </text></g></g></svg>