<svg width="68" height="70" viewBox="0 0 68 70" fill="none" xmlns="http://www.w3.org/2000/svg">
<g clip-path="url(#clip0_214_408)">
<path d="M49.2153 31.4891C49.9486 30.9914 50.6778 30.492 51.402 29.9943L50.151 29.5132L49.2153 31.4891Z" fill="white"/>
<path d="M11.0143 36.3203H12.8766H14.0239L14.0255 36.3219H16.7273H17.0517H17.0533H25.707H25.7103C25.7103 36.3219 25.7103 36.3219 25.7103 36.3203H25.7045C24.0264 35.1656 22.5191 33.7902 21.2159 32.2265C20.8119 31.7413 20.787 31.0461 21.1562 30.536L20.1516 29.8101L19.6722 29.4642L18.4469 28.5774L15.9841 26.7964L15.6514 27.2577L8.1931 21.5405L3.35693 28.2315L10.2147 32.901C10.0844 33.0835 9.96664 33.2759 9.86212 33.475C9.4515 34.2456 9.22338 35.1216 9.22338 36.0374V36.3219H10.51V36.0374C10.51 35.592 10.5788 35.1614 10.7107 34.7541L11.1429 35.0669C11.06 35.3763 11.0143 35.7023 11.0143 36.0366V36.3203ZM15.6912 33.7156C15.532 33.9346 15.2259 33.9835 15.0052 33.8259C14.7862 33.6666 14.7373 33.3589 14.8965 33.1399C15.0542 32.9209 15.3619 32.8703 15.5809 33.0295C15.8016 33.1888 15.8505 33.4949 15.6912 33.7156ZM17.0525 36.3203H16.7282C17.1371 35.7554 17.5519 35.1946 17.9766 34.6405C18.4527 34.0125 18.943 33.3937 19.4482 32.7857C19.0284 33.4551 18.5938 34.1137 18.1466 34.7641C17.7883 35.2892 17.4225 35.8043 17.055 36.3203H17.0525ZM17.2673 31.5347C17.1081 31.7537 16.802 31.8043 16.5813 31.645C16.4851 31.5762 16.4221 31.4783 16.3947 31.3721C16.3582 31.2344 16.3822 31.0826 16.4727 30.9599C16.6303 30.7409 16.938 30.6903 17.157 30.8495C17.2151 30.891 17.2599 30.9416 17.2931 30.9997C17.3885 31.1623 17.3851 31.3721 17.2673 31.5347ZM16.0172 27.5007L16.0894 27.4028L16.1856 27.4733C16.6203 27.7977 17.0525 28.127 17.4814 28.4596C17.6265 28.5716 17.7709 28.6836 17.9136 28.7998C17.9824 28.8537 18.0513 28.9101 18.1201 28.9648C18.3333 29.1349 18.5457 29.3033 18.7539 29.4791C18.5241 29.3365 18.296 29.1855 18.0678 29.0378C17.9741 28.9781 17.8795 28.9167 17.7858 28.8537C17.6522 28.7666 17.5195 28.6778 17.3876 28.5891C16.9712 28.3087 16.5548 28.0258 16.1442 27.7363C15.8513 28.1602 15.5486 28.5783 15.2499 28.9964C14.9297 29.4343 14.6112 29.874 14.2852 30.3087L13.8704 30.4787C13.9359 30.3825 14.0023 30.2888 14.0695 30.1942C14.3847 29.738 14.7099 29.2908 15.0326 28.8387C15.3603 28.3908 15.6838 27.942 16.0172 27.5007ZM7.0724 24.8114C6.85507 25.2129 6.61119 25.5953 6.34656 25.9603C6.08194 26.3261 5.79493 26.677 5.48136 27.008C5.16863 27.3373 4.8335 27.6525 4.43367 27.9221L7.60994 23.5281C7.4797 23.9935 7.28642 24.409 7.0724 24.8114Z" fill="white"/>
<path d="M28.5317 26.3293L27.3389 26.8254L28.8992 28.7615C28.7781 27.9527 28.657 27.1406 28.5317 26.3293Z" fill="white"/>
<path d="M34.7708 24.1102L34.8413 23.7087L34.3096 23.9311L35.6468 30.7631C36.0109 28.8825 36.1246 26.968 35.9794 25.0509C35.9628 24.8046 35.8143 24.5839 35.5962 24.4736L35.67 24.2579C35.5945 24.2463 34.7708 24.1102 34.7708 24.1102Z" fill="white"/>
<path d="M27.061 36.3203L21.3978 29.2925L20.8818 29.5082L22.0946 30.3841L21.7022 30.9291C21.5139 31.1896 21.5264 31.5463 21.7346 31.796C23.2186 33.577 24.9673 35.1009 26.9324 36.3211H27.061V36.3203Z" fill="white"/>
<path d="M41.5487 33.0984L41.5288 33.3008L44.3724 27.2884L43.1638 26.823C42.3102 28.8255 41.7694 30.9342 41.5487 33.0984Z" fill="white"/>
<path d="M57.9219 32.7673C57.8439 32.813 57.7701 32.8636 57.6971 32.9175L53.167 36.3202H59.1048V35.4608C59.1056 34.4198 58.6568 33.4475 57.9219 32.7673Z" fill="white"/>
<path d="M21.0686 28.8835L20.2266 27.8391L19.1772 28.2754L20.4025 29.1606L21.0686 28.8835Z" fill="white"/>
<path d="M28.067 24.5833L26.1665 25.3721L27.0085 26.4165L28.4544 25.8159C28.4344 25.6824 28.4129 25.5463 28.393 25.412C28.3241 25.1042 28.2154 24.8271 28.067 24.5833Z" fill="white"/>
<path d="M34.2097 23.4269L34.9438 23.1208H34.9463L35.1744 21.83L34.9239 21.7346L33.9575 22.1361L34.2097 23.4269Z" fill="white"/>
<path d="M45.1405 25.6657L44.8817 25.5662L44.7929 26.0713L44.1301 25.9536C44.0903 25.9461 44.0505 25.9411 44.0073 25.9411C43.7319 25.9411 43.4806 26.1062 43.3645 26.3592L43.3628 26.3609L44.588 26.8329L45.1405 25.6657Z" fill="white"/>
<path d="M52.0133 29.5727C52.3659 29.2907 52.6272 28.9663 52.7898 28.608L50.9183 27.8879L50.3667 29.0551L51.9047 29.6465C51.9403 29.6233 51.9768 29.5976 52.0133 29.5727Z" fill="white"/>
<path d="M60.8975 36.3218V35.4599C60.8975 34.2911 60.525 33.187 59.8763 32.282C59.7029 32.3019 59.5287 32.3168 59.3529 32.3251C59.0202 32.3434 58.6992 32.4122 58.3989 32.5275C59.1538 33.2932 59.61 34.3409 59.61 35.4591V36.321H60.8975V36.3218Z" fill="white"/>
<path d="M59.611 56.2795C59.611 58.1094 58.3858 59.7544 56.6338 60.2778L56.5849 60.2927L56.5376 60.3101L35.0594 68.6204L13.5845 60.3101L13.5372 60.2927L13.4883 60.2778C11.7355 59.7544 10.5111 58.1094 10.5111 56.2795V55.4126H9.22363V56.2795C9.22363 58.6926 10.8064 60.8211 13.1191 61.5113L35.0594 69.9999L57.0021 61.5113C59.3149 60.8203 60.8976 58.6926 60.8976 56.2795V55.4126H59.6102V56.2795H59.611Z" fill="white"/>
<path d="M63.6501 37.1797H6.47216C6.47216 38.2456 6.03998 39.2104 5.34068 39.9105C4.64056 40.6073 3.67581 41.0395 2.60986 41.0395V50.6936C4.74176 50.6936 6.47216 52.4223 6.47216 54.5559H63.6501C63.6501 53.4899 64.0823 52.5235 64.7816 51.8251C65.48 51.1283 66.4448 50.6936 67.5124 50.6936V41.0403C65.3788 41.0403 63.6501 39.3116 63.6501 37.1797ZM66.2241 49.5696C64.4182 50.0349 62.9939 51.4609 62.5269 53.2668H7.59618C7.12749 51.4609 5.70319 50.0341 3.89647 49.5696V42.1635C5.70236 41.6981 7.12666 40.2722 7.59618 38.4663H62.5269C62.9939 40.2722 64.4182 41.699 66.2241 42.1635V49.5696Z" fill="white"/>
<path d="M8.29034 45.1423C8.20905 45.0843 8.11863 45.0436 8.0224 45.022C7.92618 45.0005 7.82912 44.998 7.72875 45.0154C7.62754 45.0345 7.53796 45.0776 7.45666 45.1481C7.38781 45.2037 7.33638 45.2751 7.29988 45.3563C7.26587 45.4401 7.24845 45.5256 7.25011 45.6135C7.2526 45.7039 7.27168 45.7919 7.30983 45.8773C7.34882 45.9636 7.4044 46.0407 7.4774 46.1071C7.53713 46.1734 7.6151 46.2232 7.70884 46.2531C7.80506 46.2854 7.89963 46.2962 7.99835 46.2871C8.09457 46.2788 8.18914 46.2481 8.27707 46.195C8.36749 46.1436 8.43551 46.0706 8.48528 45.9743C8.54501 45.8566 8.57321 45.7429 8.56906 45.6376C8.56492 45.5347 8.5392 45.4376 8.48943 45.3547C8.43966 45.2717 8.37412 45.2004 8.29034 45.1423Z" fill="white"/>
<path d="M62.1775 45.1423C62.0963 45.0843 62.0058 45.0436 61.9096 45.022C61.8134 45.0005 61.7163 44.998 61.616 45.0154C61.5148 45.0345 61.4252 45.0776 61.3439 45.1481C61.275 45.2037 61.2236 45.2751 61.1871 45.3563C61.1531 45.4401 61.1357 45.5256 61.1373 45.6135C61.1398 45.7039 61.1589 45.7919 61.197 45.8773C61.236 45.9636 61.2916 46.0407 61.3646 46.1071C61.4243 46.1734 61.5015 46.2232 61.596 46.2531C61.6923 46.2854 61.7868 46.2962 61.8856 46.2871C61.9818 46.2788 62.0763 46.2481 62.1643 46.195C62.2547 46.1436 62.3227 46.0706 62.3725 45.9743C62.4322 45.8566 62.4604 45.7429 62.4563 45.6376C62.4521 45.5347 62.4264 45.4376 62.3766 45.3547C62.3277 45.2709 62.2613 45.2004 62.1775 45.1423Z" fill="white"/>
<path d="M20.813 58.8993V59.183H21.6259V58.8993H21.3762V58.0216H21.6981C21.8192 58.0216 21.9154 58.054 21.9843 58.1195C22.0548 58.185 22.1071 58.2846 22.1419 58.4215L22.3285 59.183H22.8171L22.8138 58.8677H22.5965L22.4571 58.3227C22.4447 58.2755 22.4297 58.2307 22.4082 58.1892C22.3883 58.1477 22.365 58.1112 22.341 58.0789C22.3153 58.0465 22.2887 58.0191 22.2613 57.9959C22.2323 57.9743 22.2049 57.9561 22.1784 57.9436C22.2439 57.9221 22.3037 57.8914 22.3576 57.8499C22.414 57.8101 22.4604 57.7628 22.5003 57.7106C22.5417 57.6583 22.5724 57.6019 22.5965 57.5405C22.618 57.4791 22.6288 57.4177 22.6288 57.3539C22.6288 57.2435 22.6106 57.1456 22.5708 57.061C22.5326 56.9756 22.4787 56.9051 22.4098 56.8495C22.341 56.7931 22.2597 56.75 22.1651 56.7209C22.0714 56.6919 21.9677 56.6753 21.8557 56.6753H20.813V56.9631H21.0502V58.8993H20.813ZM21.3762 56.9631H21.8176C21.9801 56.9631 22.0996 56.9972 22.1742 57.066C22.2481 57.1365 22.2862 57.2327 22.2862 57.3572C22.2862 57.4227 22.2755 57.4783 22.2539 57.5289C22.2323 57.5778 22.2033 57.6176 22.1651 57.6517C22.127 57.684 22.0822 57.7097 22.0291 57.7255C21.9768 57.7421 21.9188 57.7504 21.8557 57.7504H21.3762V56.9631Z" fill="white"/>
<path d="M23.2344 58.8993V59.1838H25.0303V58.4762H24.6919V58.8993H23.7976V58.049H24.5484V57.7645H23.7976V56.9631H24.6919V57.3862H25.0303V56.6753H23.2344V56.9631H23.4716V58.8993H23.2344Z" fill="white"/>
<path d="M25.3613 58.8993V59.183H26.1759V58.8993H25.9246V58.0216H26.37C26.4862 58.0216 26.5924 58.005 26.6886 57.9694C26.7823 57.9354 26.8661 57.8864 26.9333 57.8267C27.0021 57.7653 27.0544 57.6948 27.0926 57.6127C27.1307 57.5314 27.149 57.4459 27.149 57.3539C27.149 57.2435 27.1307 57.1456 27.0926 57.061C27.0544 56.9756 27.0005 56.9051 26.9316 56.8495C26.8628 56.7931 26.7815 56.75 26.6869 56.7209C26.5932 56.6919 26.4878 56.6753 26.3758 56.6753H25.3622V56.9631H25.6011V58.8993H25.3613ZM25.9246 56.9631H26.3335C26.4986 56.9631 26.6181 56.9972 26.6936 57.066C26.7674 57.1349 26.8055 57.2311 26.8055 57.3539C26.8055 57.4194 26.7948 57.4766 26.7732 57.5256C26.7516 57.5762 26.7226 57.616 26.6844 57.65C26.6463 57.6823 26.6015 57.7081 26.5484 57.7238C26.4961 57.7421 26.4381 57.7512 26.375 57.7512H25.9246V56.9631Z" fill="white"/>
<path d="M28.6355 59.1837H29.4484V58.9H29.1987L28.419 56.676H27.9304L27.1506 58.9H26.9316V59.1837H27.7462V58.9H27.4874L27.6807 58.3301H28.6455L28.8445 58.9H28.6363V59.1837H28.6355ZM27.7753 58.0564L28.1593 56.934L28.5484 58.0564H27.7753Z" fill="white"/>
<path d="M29.7012 58.8993V59.1838H30.5025V58.8993H30.2636V56.9631H30.5025V56.6753H29.7012V56.9631H29.9401V58.8993H29.7012Z" fill="white"/>
<path d="M30.9754 58.8993V59.183H31.79V58.8993H31.5387V58.0216H31.8605C31.9817 58.0216 32.0779 58.054 32.1484 58.1195C32.2172 58.185 32.2695 58.2846 32.3043 58.4215L32.491 59.183H32.9796L32.9763 58.8677H32.7589L32.6196 58.3227C32.6088 58.2755 32.5922 58.2307 32.5706 58.1892C32.5507 58.1477 32.5292 58.1112 32.5034 58.0789C32.4777 58.0465 32.4528 58.0191 32.4238 57.9959C32.3964 57.9743 32.3674 57.9561 32.3408 57.9436C32.4064 57.9221 32.4661 57.8914 32.5217 57.8499C32.5756 57.8101 32.6229 57.7628 32.6644 57.7106C32.7042 57.6583 32.7349 57.6019 32.7581 57.5405C32.7797 57.4791 32.7921 57.4177 32.7921 57.3539C32.7921 57.2435 32.7722 57.1456 32.734 57.061C32.6942 56.9756 32.6403 56.9051 32.5715 56.8495C32.5026 56.7931 32.4213 56.75 32.3267 56.7209C32.233 56.6919 32.1293 56.6753 32.019 56.6753H30.9746V56.9631H31.2135V58.8993H30.9754ZM31.5379 56.9631H31.9792C32.1418 56.9631 32.2612 56.9972 32.3359 57.066C32.4122 57.1365 32.4479 57.2327 32.4479 57.3572C32.4479 57.4227 32.4371 57.4783 32.4172 57.5289C32.3956 57.5778 32.3649 57.6176 32.3267 57.6517C32.2886 57.684 32.2438 57.7097 32.1907 57.7255C32.1384 57.7421 32.0804 57.7504 32.019 57.7504H31.5379V56.9631Z" fill="white"/>
<path d="M35.334 58.8163C35.2909 58.8486 35.2403 58.8744 35.1805 58.8926C35.1208 58.9109 35.052 58.92 34.9781 58.92C34.9002 58.92 34.8297 58.9109 34.7666 58.8943C34.7011 58.876 34.6472 58.8511 34.5999 58.8179C34.5542 58.7839 34.5186 58.7416 34.4929 58.691C34.4655 58.6404 34.453 58.5533 34.453 58.4306H34.0366V58.7151H34.1619C34.1834 58.7823 34.2125 58.847 34.2506 58.9084C34.2871 58.9714 34.3377 59.0278 34.3991 59.0768C34.4622 59.1257 34.5385 59.1655 34.6306 59.1946C34.721 59.2236 34.8313 59.2377 34.9615 59.2377C35.0868 59.2377 35.2021 59.2194 35.3075 59.1829C35.4128 59.1448 35.5032 59.0942 35.5804 59.0295C35.6567 58.9639 35.7139 58.8885 35.7579 58.7997C35.7994 58.7109 35.8209 58.6147 35.8209 58.5118C35.8209 58.4156 35.8068 58.331 35.7811 58.2588C35.7538 58.1867 35.7139 58.1211 35.6617 58.0672C35.6111 58.0108 35.5455 57.9619 35.4701 57.9221C35.3921 57.8806 35.3033 57.8441 35.2038 57.8117L34.8686 57.7031C34.8255 57.6865 34.7799 57.6724 34.7309 57.6558C34.6837 57.6417 34.6389 57.6193 34.599 57.5927C34.5609 57.5654 34.5269 57.5297 34.5012 57.4857C34.4754 57.4409 34.463 57.3829 34.463 57.3082C34.463 57.2609 34.4721 57.2145 34.4937 57.1705C34.5153 57.1249 34.546 57.0875 34.5874 57.0544C34.6272 57.0203 34.6795 56.9946 34.7434 56.9747C34.8064 56.9565 34.8794 56.9457 34.9624 56.9457C35.0146 56.9457 35.0652 56.9532 35.1158 56.9673C35.1664 56.9797 35.2121 56.9996 35.2552 57.027C35.2967 57.0527 35.3365 57.09 35.3713 57.1373C35.4078 57.1863 35.4236 57.2584 35.4236 57.3563H35.8292V57.0726H35.7065C35.6741 57.0071 35.6343 56.9498 35.5887 56.8951C35.5414 56.8428 35.4875 56.7972 35.4261 56.759C35.3647 56.7209 35.2958 56.6902 35.2212 56.6703C35.1449 56.6487 35.0619 56.6379 34.9732 56.6379C34.8371 56.6379 34.716 56.6562 34.6115 56.6919C34.5061 56.7284 34.4182 56.7773 34.3452 56.8403C34.2714 56.9034 34.2166 56.9764 34.1785 57.0593C34.142 57.1448 34.1221 57.2327 34.1221 57.3289C34.1221 57.4252 34.1345 57.5081 34.1602 57.5803C34.1859 57.6525 34.2216 57.7163 34.2689 57.7686C34.3162 57.8225 34.3718 57.8698 34.4373 57.9063C34.5045 57.9444 34.5766 57.9751 34.6563 58L35.018 58.1012C35.0652 58.1178 35.1158 58.1352 35.1681 58.1552C35.2204 58.1767 35.2693 58.2041 35.3133 58.2364C35.3589 58.2688 35.3946 58.3086 35.4219 58.3559C35.451 58.4032 35.4634 58.4612 35.4634 58.5276C35.4634 58.5873 35.4526 58.6437 35.4311 58.6902C35.4078 58.7416 35.3755 58.7814 35.334 58.8163Z" fill="white"/>
<path d="M36.1411 58.8993V59.1838H37.9379V58.4762H37.5978V58.8993H36.7035V58.049H37.4568V57.7645H36.7035V56.9631H37.5978V57.3862H37.9379V56.6753H36.1411V56.9631H36.38V58.8993H36.1411Z" fill="white"/>
<path d="M38.2689 58.8993V59.183H39.0818V58.8993H38.8305V58.0216H39.154C39.2751 58.0216 39.3697 58.054 39.4402 58.1195C39.5107 58.185 39.563 58.2846 39.5961 58.4215L39.7844 59.183H40.2714L40.2697 58.8677H40.0524L39.913 58.3227C39.9006 58.2755 39.884 58.2307 39.8641 58.1892C39.8442 58.1477 39.8209 58.1112 39.7969 58.0789C39.7712 58.0465 39.7446 58.0191 39.7173 57.9959C39.6882 57.9743 39.6608 57.9561 39.6343 57.9436C39.6973 57.9221 39.7596 57.8914 39.8135 57.8499C39.8699 57.8101 39.9163 57.7628 39.9562 57.7106C39.996 57.6583 40.0283 57.6019 40.0499 57.5405C40.0731 57.4791 40.0839 57.4177 40.0839 57.3539C40.0839 57.2435 40.064 57.1456 40.0258 57.061C39.9877 56.9756 39.9338 56.9051 39.8649 56.8495C39.7961 56.7931 39.7148 56.75 39.6202 56.7209C39.5265 56.6919 39.4228 56.6753 39.3108 56.6753H38.2681V56.9631H38.5053V58.8993H38.2689ZM38.8305 56.9631H39.2718C39.4344 56.9631 39.5538 56.9972 39.6302 57.066C39.704 57.1365 39.7421 57.2327 39.7421 57.3572C39.7421 57.4227 39.7314 57.4783 39.7098 57.5289C39.6882 57.5778 39.6592 57.6176 39.621 57.6517C39.5829 57.684 39.5381 57.7097 39.485 57.7255C39.4327 57.7421 39.3747 57.7504 39.3116 57.7504H38.8305V56.9631Z" fill="white"/>
<path d="M41.0744 56.6753H40.2598V56.9631H40.4804L41.2826 59.1838H41.7372L42.5493 56.9631H42.7666V56.6753H41.952V56.9631H42.1893L41.4983 58.8959L40.8554 56.9631H41.0744V56.6753Z" fill="white"/>
<path d="M42.9688 58.8993V59.1838H43.7692V58.8993H43.532V56.9631H43.7692V56.6753H42.9688V56.9631H43.2077V58.8993H42.9688Z" fill="white"/>
<path d="M44.652 57.2327C44.7283 57.1423 44.8188 57.0701 44.9233 57.0154C45.0303 56.9606 45.1456 56.9341 45.2742 56.9341C45.4243 56.9341 45.5604 56.9706 45.6815 57.0411C45.8042 57.1133 45.9021 57.2128 45.9743 57.3381H46.331V57.0427H46.1551C46.0987 56.9722 46.0324 56.9067 45.9544 56.847C45.8764 56.7872 45.7827 56.735 45.6698 56.691C45.5595 56.6479 45.4276 56.6255 45.2733 56.6255C45.1016 56.6255 44.9424 56.6603 44.7939 56.7267C44.647 56.7955 44.5209 56.8876 44.4139 57.0054C44.3069 57.1232 44.2256 57.2609 44.1659 57.4202C44.1062 57.5778 44.0771 57.7478 44.0771 57.9254C44.0771 58.1045 44.1062 58.2746 44.1659 58.4372C44.2256 58.5998 44.3111 58.7408 44.4231 58.8611C44.5351 58.9805 44.662 59.0709 44.8046 59.1365C44.9498 59.202 45.1049 59.2327 45.2767 59.2327C45.4542 59.2327 45.6184 59.2004 45.7652 59.1315C45.9121 59.0643 46.0365 58.9739 46.136 58.8636C46.2356 58.7532 46.3078 58.6371 46.3492 58.5193L46.0581 58.3816C45.966 58.5732 45.8573 58.7126 45.7271 58.798C45.5985 58.881 45.4467 58.925 45.2725 58.925C45.1439 58.925 45.0303 58.8976 44.9266 58.8437C44.8237 58.7914 44.735 58.7242 44.6603 58.6446C44.5865 58.5633 44.5268 58.4637 44.4795 58.3426C44.4338 58.2232 44.4106 58.0838 44.4106 57.9262C44.4106 57.7943 44.4305 57.669 44.4737 57.5496C44.5185 57.4276 44.5765 57.3231 44.652 57.2327Z" fill="white"/>
<path d="M46.6826 58.8993V59.1838H48.4785V58.4762H48.1401V58.8993H47.2442V58.049H47.9966V57.7645H47.2442V56.9631H48.1401V57.3862H48.4785V56.6753H46.6826V56.9631H46.9199V58.8993H46.6826Z" fill="white"/>
<path d="M40.5442 36.3219H40.5458H40.8445H44.0406H44.1294H45.7694H45.791V36.3202C45.7943 36.3127 45.7984 36.3078 45.8001 36.3003C45.9934 36.1684 46.1891 36.0357 46.3849 35.9038C48.2746 34.6205 50.1642 33.3372 52.0531 32.0539C52.7333 31.4351 53.6118 31.5545 53.8739 31.9436C54.0962 32.2762 53.9643 32.9357 53.4376 33.4019C52.1651 34.3758 50.8967 35.3455 49.6242 36.3194L40.5442 36.3219ZM49.6226 36.3219H52.0481L52.0498 36.3202C53.7984 35.0062 55.5462 33.6939 57.2949 32.3799C57.3148 32.3658 57.3364 32.3492 57.3563 32.3343C57.5081 32.2256 57.6674 32.1302 57.8341 32.0465C58.292 31.8134 58.7988 31.6823 59.3165 31.6541C59.3273 31.6541 59.338 31.6524 59.3505 31.6524C60.0257 31.6126 60.842 31.4874 61.7229 31.1887C62.7151 30.8536 65.3115 29.9726 66.3127 27.5056C67.0369 25.7213 66.5732 23.9693 66.3957 23.2999C66.1402 22.3335 65.7387 21.5935 65.426 21.1024C64.3725 22.4148 63.319 23.7271 62.2663 25.0369C61.6201 25.1398 61.1696 25.2128 60.5234 25.3156C60.1991 25.1058 59.8756 24.8942 59.5537 24.6844C59.4343 24.1195 59.3654 23.7959 59.246 23.2327C60.068 21.966 60.8876 20.6993 61.7088 19.4318C61.3488 19.3953 60.7897 19.3812 60.1468 19.5496C59.1373 19.8158 58.4911 20.3874 57.9063 20.9034C57.5263 21.2402 57.012 21.7536 56.5127 22.4853C56.0763 22.1833 55.6425 21.8822 55.2061 21.5803C54.8387 22.112 54.6147 22.5815 54.4753 22.9158C53.786 24.5716 53.7113 26.5467 53.6823 27.343C53.6624 27.8349 53.6657 28.2928 53.4202 28.8503C53.4202 28.8536 53.4185 28.8561 53.4168 28.8594C53.207 29.3314 52.905 29.679 52.6354 29.927C52.5574 29.9975 52.4836 30.0589 52.4148 30.1136C52.3318 30.1717 52.2464 30.2298 52.1634 30.2854C50.9722 31.1074 49.7727 31.927 48.5641 32.7466C48.2273 32.9747 47.8905 33.2028 47.5562 33.4293L49.5238 29.27L49.7412 28.8121L50.2928 27.6466L54.9365 17.8266C55.3687 17.7611 55.7636 17.4898 55.966 17.0643L56.2082 16.5467C56.3965 16.1501 56.3749 15.7088 56.1883 15.3463C56.1377 15.2866 56.078 15.2327 56.0166 15.1837C55.9262 15.1074 55.8208 15.0477 55.7163 14.9954L55.3546 14.8304C54.8785 14.6006 54.4023 14.3675 53.9361 14.117C53.4691 13.8673 53.0079 13.6085 52.5574 13.319C53.0676 13.4815 53.562 13.674 54.0506 13.8781C54.5392 14.0788 55.0228 14.2978 55.5006 14.5226L55.859 14.696C55.9876 14.7648 56.1161 14.8387 56.2231 14.9365C56.2397 14.9531 56.2596 14.9689 56.2754 14.9855C56.701 14.0531 57.1149 13.1033 57.6234 12.229C57.8026 11.9229 57.9942 11.6226 58.2497 11.3729C58.574 11.0601 59.0187 10.837 59.4674 10.8826C60.0448 10.9407 60.6271 11.3745 61.0908 11.6931C62.7433 12.8246 63.8781 14.4405 64.7507 16.2173C65.0261 16.7764 65.3936 17.6251 65.6881 18.72C65.7984 17.5944 65.8134 16.1352 65.5089 14.4828C65.2518 13.0966 64.7997 11.752 64.1609 10.4936C63.4766 9.14724 62.7491 7.76607 61.591 6.75985C61.017 6.26213 60.3708 5.85815 59.6748 5.5562C59.445 5.45666 59.2153 5.35545 58.9888 5.24845L56.1128 3.88718C55.5371 4.48279 54.3517 4.56989 53.2294 4.03899C52.905 3.88552 52.6014 3.6881 52.3368 3.44919C52.1012 3.23517 51.893 2.98963 51.7412 2.71257C51.6126 2.47366 51.5189 2.20572 51.5098 1.93281C51.5064 1.85151 51.5222 1.77022 51.5297 1.69058L47.9428 0L45.0104 6.19826L48.5359 7.86728C48.9954 7.04936 50.3443 6.86271 51.6093 7.46163C52.9125 8.07715 53.6309 9.29324 53.2144 10.1725C53.207 10.1891 53.1962 10.2049 53.1871 10.2215L51.7769 13.2045C51.3447 13.2675 50.9498 13.5413 50.7474 13.9668L50.5052 14.4828C50.3028 14.9083 50.3426 15.3861 50.5682 15.7619L45.7702 25.9079L45.2186 27.0734L45.0012 27.5313L40.8436 36.3202H40.545H40.5433L40.8785 33.0295C41.1049 30.8055 41.664 28.6313 42.5342 26.5807C42.5998 26.4247 42.6661 26.2713 42.735 26.1195C42.7408 26.107 42.7474 26.0921 42.7532 26.0796C42.9954 25.5438 43.5462 25.2252 44.1236 25.2742C44.1253 25.2742 44.1253 25.2742 44.1269 25.2742C44.1667 25.2775 44.2066 25.2833 44.248 25.2908L45.3613 19.0071L44.8005 18.9075L46.6968 9.70303L38.5691 8.26462L37.192 17.562L36.6313 17.4625L35.8134 22.0772L35.5852 23.3679L35.5512 23.5579C35.8623 23.6085 36.1734 23.6607 36.4853 23.7138C36.4869 23.7138 36.4869 23.7155 36.4886 23.7155C36.608 23.7354 36.7258 23.7553 36.8453 23.7769C37.6217 23.9162 38.3965 24.0589 39.1688 24.2165C39.9419 24.3725 40.7126 24.5442 41.4799 24.7325C40.6943 24.6454 39.9129 24.5442 39.1323 24.4231C38.6727 24.3542 38.2132 24.2804 37.7553 24.2041L37.7536 24.2024C37.4351 24.1501 37.1166 24.0954 36.798 24.0398C36.4994 23.9859 36.2007 23.9312 35.9021 23.8747C36.0556 23.9527 36.1916 24.0572 36.3019 24.1842H36.3036C36.501 24.4048 36.628 24.6893 36.6512 25.0021C36.832 27.4077 36.6221 29.8291 36.0265 32.1725L35.5811 33.9212C34.9457 30.6794 34.3086 27.4368 33.6732 24.1949L33.5753 23.6898C33.4898 23.2609 33.4052 22.8304 33.3223 22.4015C33.2883 22.2298 33.2551 22.0556 33.2211 21.8839C33.0801 21.1655 33.1671 20.4231 33.4475 19.7462C33.7122 19.1166 33.9635 18.3161 34.0788 17.3787C34.209 16.3401 34.5475 13.6176 32.7632 11.6416C31.4708 10.2115 29.6922 9.86645 29.0129 9.73372C28.0315 9.54376 27.1904 9.58192 26.613 9.65077C27.3355 11.1713 28.0556 12.6893 28.7773 14.2099C28.589 14.8362 28.4571 15.2725 28.2688 15.9005C27.9378 16.0995 27.6085 16.2986 27.2766 16.4977C26.7175 16.36 26.3949 16.2804 25.8358 16.1427C25.0535 14.8503 24.2721 13.5604 23.4898 12.2696C23.2982 12.5774 23.0427 13.0734 22.9141 13.7263C22.7134 14.7507 22.9465 15.5811 23.1564 16.3343C23.2924 16.8212 23.533 17.5089 23.9726 18.2762C23.5114 18.5367 23.0494 18.7972 22.5898 19.0585C22.9067 19.6192 23.2327 20.0282 23.4716 20.2986C24.6645 21.64 26.409 22.5682 27.1116 22.9407C27.5496 23.1738 27.966 23.3712 28.36 23.8399C28.4936 23.9975 28.6047 24.1601 28.6951 24.321C28.8926 24.6777 28.9954 25.0236 29.0535 25.2891C29.0659 25.3762 29.0809 25.4625 29.0933 25.5496C29.1207 25.7196 29.1456 25.8913 29.1713 26.0639C29.3671 27.338 29.5587 28.6172 29.747 29.9021C29.8067 30.3036 29.8648 30.7059 29.9229 31.1074L26.6902 27.095L26.3592 26.686L25.5172 25.64L19.0925 17.6657C19.2227 17.2476 19.1506 16.7731 18.8536 16.4081L18.4969 15.9627C18.2198 15.6209 17.8125 15.4484 17.4052 15.4575C17.3289 15.4791 17.2551 15.5081 17.1846 15.5429C17.0759 15.5919 16.978 15.6607 16.8843 15.7312L16.5782 15.9842C16.1634 16.3136 15.7478 16.6412 15.319 16.9506C14.8901 17.2634 14.4554 17.5662 13.9992 17.8449C14.3667 17.4575 14.7557 17.0958 15.1539 16.7449C15.5462 16.394 15.956 16.0539 16.365 15.7204L16.6777 15.4741C16.7955 15.387 16.9166 15.304 17.0527 15.2518C17.0742 15.2426 17.0983 15.2335 17.1199 15.226C16.4662 14.4372 15.7918 13.6499 15.2252 12.8096C15.0278 12.5168 14.842 12.2124 14.7292 11.8756C14.5865 11.445 14.5807 10.949 14.8179 10.5633C15.1224 10.0689 15.7661 9.73455 16.2547 9.45583C17.9917 8.46205 19.9411 8.14351 21.9212 8.13273C22.5442 8.12941 23.4683 8.16757 24.5832 8.3791C23.6168 7.79096 22.3102 7.14144 20.6902 6.69598C19.3314 6.32352 17.9229 6.14434 16.511 6.17088C15.0012 6.19992 13.4417 6.25218 12.0332 6.85691C11.3347 7.1572 10.6902 7.56284 10.1128 8.0589C9.92285 8.22149 9.73123 8.3849 9.53712 8.54251L7.05931 10.5392C7.3455 11.3156 6.90751 12.4214 5.9411 13.1995C5.66072 13.426 5.35131 13.6118 5.01949 13.7462C4.72667 13.8656 4.41311 13.9453 4.09788 13.9602C3.82663 13.9726 3.54376 13.9403 3.29407 13.8299C3.22024 13.7976 3.15139 13.7487 3.0842 13.7072L0 16.1925L4.30361 21.533L7.34052 19.0842C6.8063 18.3152 7.22688 17.0212 8.31605 16.1435C9.43841 15.2385 10.8445 15.1207 11.4558 15.8797C11.4666 15.8938 11.4757 15.9104 11.4882 15.9245L13.557 18.4927C13.4268 18.9108 13.499 19.3853 13.7959 19.7528L14.1526 20.1958C14.4496 20.5633 14.8967 20.735 15.3322 20.6968L20.8702 27.5703L21.7122 28.6147L22.0415 29.0236H22.0431L27.9195 36.3194H27.9212V36.321H29.0145H29.5214H30.6545H32.0937H49.6226V36.3219ZM46.6487 6.36499L45.6931 5.91207L45.9287 5.41435L46.8843 5.86645L46.6487 6.36499ZM59.3447 10.4695C58.8436 10.4587 58.3841 10.7333 58.0274 11.1066C57.6582 11.4757 57.3646 11.9229 57.0917 12.3857C56.8204 12.8511 56.5707 13.3397 56.2737 13.8042C56.4438 13.2816 56.623 12.764 56.8586 12.2621C57.09 11.7611 57.3886 11.2758 57.7885 10.8669C57.9876 10.6678 58.2231 10.4795 58.4927 10.3567C58.7607 10.2339 59.0684 10.1701 59.3629 10.2066C59.6599 10.2372 59.9295 10.3567 60.1701 10.4944C60.4106 10.6371 60.6296 10.7964 60.8594 10.949C60.3401 10.7723 59.8515 10.4737 59.3447 10.4695ZM51.7379 3.44421C52.107 3.83907 52.5633 4.15015 53.0535 4.36914C53.5438 4.5898 54.0722 4.72003 54.6031 4.73497C55.1298 4.74907 55.664 4.63376 56.0904 4.35338L56.1717 4.30112L56.2547 4.34094C57.0875 4.73745 57.9394 5.10494 58.7706 5.528C59.1887 5.73621 59.5977 5.96267 59.9942 6.20655C60.389 6.45624 60.7764 6.71838 61.1306 7.0195C60.7341 6.77478 60.3343 6.54334 59.9195 6.34094C59.5073 6.13107 59.0867 5.9411 58.6636 5.75446C57.8474 5.3961 57.0145 5.06097 56.1966 4.68105C55.7113 4.98134 55.1356 5.08088 54.5915 5.06097C54.0108 5.0394 53.4459 4.87433 52.9316 4.62132C52.4214 4.36251 51.9594 4.00581 51.6035 3.55869C51.426 3.33638 51.2791 3.08835 51.173 2.82787C51.0626 2.5674 50.9996 2.28702 51.0012 2.0083C51.0792 2.56076 51.3671 3.05102 51.7379 3.44421ZM53.2219 8.2837C53.0319 8.05226 52.8179 7.8399 52.579 7.66072C52.3434 7.47823 52.0888 7.31481 51.8167 7.18872C51.2808 6.92244 50.6927 6.75404 50.0937 6.73082C49.4981 6.71091 48.881 6.84446 48.3849 7.23185C48.5807 6.98548 48.8519 6.79967 49.1464 6.67109C49.445 6.54666 49.7669 6.47947 50.0912 6.46703C50.7408 6.43633 51.387 6.60473 51.966 6.88511C52.5433 7.1713 53.0668 7.58938 53.4318 8.12858C53.6143 8.39486 53.7536 8.69515 53.8283 9.00954C53.8988 9.32476 53.9046 9.65575 53.8117 9.95604C53.8515 9.32642 53.5927 8.74658 53.2219 8.2837ZM61.1547 27.864C60.9324 28.1792 60.7059 28.4903 60.472 28.798C60.2406 29.1058 60.0033 29.4102 59.7536 29.7063C59.9345 29.3621 60.1261 29.0278 60.3219 28.6968C60.4936 28.4056 60.6711 28.1178 60.8519 27.8316C60.5367 27.6309 60.224 27.426 59.9129 27.2202C59.567 26.9871 59.2194 26.7549 58.881 26.5127C58.5392 26.2737 58.2007 26.0274 57.8656 25.776C57.5305 25.5263 57.2012 25.2692 56.8793 24.9996C57.2501 25.1954 57.6143 25.4036 57.9726 25.6168C58.3326 25.8324 58.6877 26.0514 59.0386 26.2754C59.3936 26.4977 59.7387 26.7316 60.0863 26.9614C60.4322 27.197 60.7756 27.4318 61.1157 27.6748L61.2294 27.7561L61.1547 27.864ZM58.7491 20.7151C58.9374 20.5433 59.1398 20.3841 59.3629 20.248C59.8026 19.9768 60.3111 19.8009 60.8304 19.747L61.1431 19.7146L60.9747 19.9826C60.803 20.2555 60.6271 20.5234 60.4479 20.7914C60.2721 21.0626 60.0863 21.3256 59.9054 21.591C59.5346 22.1178 59.1564 22.6387 58.7449 23.1406C59.0328 22.5599 59.3563 22.0025 59.6864 21.4484C59.8548 21.1754 60.0191 20.8967 60.1933 20.6263C60.3053 20.4488 60.4181 20.2713 60.5334 20.0962C60.4048 20.1178 60.2762 20.1468 60.1501 20.1833C59.9187 20.2505 59.6906 20.3368 59.4716 20.4455C59.2526 20.5541 59.0411 20.6827 58.8345 20.8221C58.6263 20.9614 58.4239 21.1116 58.2157 21.2567C58.3857 21.0684 58.5591 20.8859 58.7491 20.7151ZM58.2862 24.248L59.387 24.9772L60.4455 25.6864L62.4438 25.3447L63.8225 23.6051L65.2418 21.8316L65.392 21.645L65.5023 21.8565C65.7213 22.2837 65.9038 22.7292 66.034 23.1904C66.1659 23.6466 66.2746 24.1136 66.3293 24.5898C66.4397 25.538 66.36 26.5334 65.9693 27.4185C65.5836 28.3036 64.9216 29.0477 64.1394 29.5794C63.3538 30.1153 62.4745 30.4844 61.5728 30.7449C62.4521 30.4189 63.3123 30.0249 64.0523 29.46C64.798 28.9083 65.4003 28.1734 65.7478 27.3264C66.0937 26.4778 66.1584 25.5346 66.039 24.6263C65.9793 24.1717 65.8723 23.7196 65.742 23.2758C65.6367 22.91 65.4973 22.5574 65.3314 22.2148L64.0589 23.7951L62.6255 25.5579L62.5915 25.601L62.5409 25.6085L60.4363 25.9212L60.389 25.9287L60.3526 25.9013L59.2775 25.1348L58.2057 24.3642C57.4948 23.8432 56.7798 23.3306 56.0738 22.8022C56.8163 23.2783 57.5496 23.7652 58.2862 24.248ZM48.0805 33.4583C48.5815 33.1182 49.0817 32.7756 49.5769 32.4322C50.5649 31.7611 51.5554 31.0908 52.5558 30.438C52.5682 30.4289 52.5815 30.4214 52.5939 30.4123C52.735 30.3094 52.8727 30.1933 53.0012 30.068C53.0029 30.0697 53.0029 30.068 53.0029 30.068C53.2982 29.7876 53.5529 29.4583 53.7395 29.0942C53.7578 29.0618 53.7735 29.027 53.7901 28.993C53.9038 28.7599 53.9876 28.5118 54.0398 28.2563C54.1012 27.9635 54.1228 27.6607 54.1501 27.3588C54.156 27.6607 54.1626 27.9668 54.1211 28.2713C54.0888 28.5334 54.0216 28.7947 53.9237 29.0444C53.9096 29.0825 53.893 29.1224 53.8764 29.1605C53.7155 29.5263 53.4948 29.8606 53.2252 30.156C53.1 30.2937 52.9647 30.4222 52.8196 30.54C52.7905 30.5649 52.7615 30.589 52.7308 30.6122C51.7462 31.3165 50.7507 32.0058 49.7536 32.6918C48.8635 33.3015 47.9618 33.8938 47.0568 34.4778C46.9465 34.5516 46.8345 34.623 46.7242 34.6952C46.6479 34.7441 46.574 34.793 46.4977 34.8403C46.3243 34.9523 46.1485 35.0651 45.9726 35.1771C45.3646 35.5645 44.7491 35.9444 44.1319 36.321H44.0415C44.7383 35.8051 45.4384 35.2982 46.1485 34.8005C46.2937 34.6976 46.4397 34.5939 46.5865 34.4927C46.6246 34.4654 46.6645 34.4388 46.7026 34.4114C46.8942 34.2771 47.0883 34.1435 47.28 34.01C47.5462 33.8258 47.8142 33.6433 48.0805 33.4583ZM52.6752 21.3903C52.2066 22.4703 51.718 23.5404 51.2402 24.6172L49.9229 27.5039L49.7744 27.8283C49.6441 28.1103 49.5139 28.3949 49.382 28.6769C49.3131 28.8287 49.2426 28.983 49.1705 29.1348C48.4463 30.6968 47.7122 32.253 46.9838 33.815C46.803 33.9378 46.6197 34.0597 46.4388 34.1808C46.4554 34.1485 46.4695 34.1137 46.4861 34.0813C47.2932 32.3998 48.0929 30.7134 48.9042 29.0319C48.9764 28.8801 49.051 28.7283 49.1248 28.5774C49.2625 28.2895 49.4019 28.0017 49.5413 27.7155L49.6881 27.4152L51.0925 24.5467C51.6201 23.4956 52.1377 22.438 52.6752 21.3903ZM45.7959 27.8374L46.0133 27.3795L46.5649 26.214L51.3414 16.1136L51.6997 16.282L46.9349 26.3567L46.3832 27.5222L46.1676 27.9801L42.2223 36.3202H41.7843L45.7959 27.8374ZM38.6097 21.1879C38.657 20.92 38.91 20.7424 39.1779 20.7897C39.4442 20.837 39.6234 21.0917 39.5761 21.3579C39.5288 21.6259 39.2742 21.8034 39.0062 21.7561C38.7399 21.7088 38.5608 21.4542 38.6097 21.1879ZM41.2592 21.6566C41.3065 21.3886 41.5595 21.2111 41.8275 21.2584C42.0937 21.3057 42.2729 21.5604 42.2256 21.8266C42.1783 22.0946 41.9237 22.2721 41.6557 22.2248C41.3895 22.1775 41.2103 21.9229 41.2592 21.6566ZM44.8627 19.3654L44.8411 19.4815C44.7383 20.0133 44.6296 20.5458 44.5168 21.0776C44.4604 21.3438 44.4007 21.6076 44.3409 21.8739C44.2796 22.1385 44.2198 22.404 44.1543 22.6669C44.1817 22.3973 44.2173 22.1278 44.2522 21.8582C44.2845 21.5886 44.3194 21.319 44.3592 21.051C44.4297 20.5516 44.5044 20.0572 44.584 19.5595C44.0755 19.4782 43.5686 19.3878 43.0618 19.3024C42.5168 19.2012 41.9701 19.1066 41.4276 18.9979C40.8826 18.8951 40.3401 18.7839 39.7968 18.6703C39.5255 18.6122 39.2559 18.5525 38.9863 18.4894C38.7151 18.4297 38.4455 18.3683 38.1759 18.3011C38.4513 18.3302 38.7258 18.3642 39.0012 18.4007C39.2766 18.4347 39.5512 18.4712 39.8266 18.511C40.3749 18.589 40.9233 18.6719 41.4699 18.7607C42.0183 18.8478 42.5633 18.9457 43.1099 19.0377C43.6549 19.1373 44.1991 19.2335 44.7441 19.3422L44.8627 19.3654ZM42.9598 18.5815L42.3932 18.4803L43.8681 13.3878L42.9598 18.5815ZM42.3899 18.4803L41.8266 18.3808L43.1929 13.3496L42.3899 18.4803ZM41.8183 18.3791L41.2592 18.2796L42.521 13.3131L41.8183 18.3791ZM41.2484 18.2779L40.9531 18.2273L40.6885 18.18L41.8449 13.2758L41.2484 18.2779ZM40.6777 18.1759L40.1186 18.078L41.1705 13.2368L40.6777 18.1759ZM40.1062 18.0763L40.0207 18.0622L39.5504 17.9768L40.4969 13.1987L40.1062 18.0763ZM39.5363 17.9751L38.9788 17.8756L39.8241 13.1613L39.5363 17.9751ZM44.0987 18.7822L43.5288 18.681L42.9623 18.5815L44.5425 13.4251L43.5288 18.681L45.2178 13.4633L44.0987 18.7822ZM44.6545 10.0448C44.18 10.1302 43.7205 10.1369 43.2667 10.1186C42.8105 10.0987 42.36 10.0465 41.9162 9.96682C41.4708 9.88884 41.0311 9.78183 40.5948 9.64496C40.1626 9.5056 39.7329 9.34052 39.3148 9.09996L44.6545 10.0448ZM39.1489 13.1232L38.9639 17.8739L38.4065 17.7744L39.1489 13.1232ZM38.4737 13.085L38.3924 17.7727L37.8333 17.6732L38.4737 13.085ZM37.5745 25.8532C37.6466 26.2729 37.6864 26.6985 37.7063 27.1257C37.7263 27.5529 37.7171 27.9818 37.6881 28.409C37.6574 28.8345 37.6068 29.2592 37.5272 29.6798C37.4874 29.8897 37.4442 30.0995 37.3953 30.3078C37.3414 30.5143 37.2866 30.72 37.2219 30.9233C37.2584 30.7134 37.2999 30.5052 37.3306 30.2937C37.3671 30.0854 37.3994 29.8756 37.4268 29.664C37.4807 29.2443 37.528 28.8221 37.5554 28.399C37.5877 27.9776 37.601 27.5537 37.6043 27.1282C37.6068 26.7043 37.5919 26.2787 37.5745 25.8532ZM37.8241 29.392C37.8839 28.9722 37.9253 28.5508 37.9577 28.1269C37.9884 27.703 38.0033 27.28 38.0141 26.8528C38.0597 27.2783 38.0705 27.7055 38.0614 28.1319C38.0523 28.5591 38.0141 28.9863 37.9585 29.4094C37.8971 29.8324 37.8192 30.2547 37.7122 30.6669C37.6582 30.8752 37.6002 31.0792 37.5388 31.2841C37.4699 31.4865 37.4027 31.6898 37.3231 31.8872C37.3737 31.6806 37.4285 31.4749 37.4749 31.2667C37.5238 31.0601 37.5711 30.8544 37.611 30.6462C37.6939 30.2298 37.7677 29.8117 37.8241 29.392ZM40.18 32.5732C40.214 32.3326 40.2563 32.0921 40.3102 31.8548C40.3625 31.6159 40.4372 31.3828 40.511 31.1506C40.4878 31.3953 40.4479 31.6342 40.4131 31.8731L40.3136 32.5915C40.2464 33.0709 40.1958 33.5504 40.1269 34.034C40.0896 33.5471 40.1186 33.0568 40.18 32.5732ZM32.0937 36.3202C32.0066 35.7321 31.9204 35.1456 31.8333 34.5558C31.8042 34.3509 31.7735 34.1452 31.7428 33.9386C31.7088 33.7047 31.674 33.4716 31.64 33.2385C31.309 30.9797 30.9755 28.7192 30.6445 26.4587C30.5326 26.0805 30.5591 25.7279 30.6628 25.445H30.6645C30.8005 25.0668 31.0751 24.8096 31.3397 24.7715C31.5081 24.7482 31.7039 24.808 31.8847 24.9382C32.1311 25.1099 32.3517 25.411 32.462 25.8001C33.1821 29.3073 33.9029 32.8129 34.623 36.321H32.0937V36.3202ZM23.9063 14.151C23.7959 13.9735 23.6856 13.7959 23.5786 13.6151C23.5421 13.742 23.5114 13.8681 23.4882 13.9967C23.4467 14.2356 23.4268 14.4778 23.4285 14.7225C23.4301 14.9672 23.4542 15.2144 23.4898 15.4608C23.5239 15.7088 23.5711 15.9552 23.611 16.2066C23.5147 15.971 23.426 15.7346 23.3555 15.4898C23.2833 15.2451 23.2269 14.9938 23.2036 14.735C23.1497 14.219 23.2144 13.6856 23.392 13.1945L23.4973 12.8992L23.6657 13.1672C23.8374 13.4401 24.0025 13.7155 24.1651 13.9925C24.3318 14.2696 24.4869 14.55 24.6487 14.8304C24.9598 15.3936 25.2659 15.9618 25.5371 16.55C25.1406 16.0382 24.7789 15.5039 24.4239 14.9664C24.2497 14.696 24.073 14.4264 23.9063 14.151ZM26.3335 17.4467L27.4699 16.7731L28.5682 16.1327L29.1331 14.1833L28.1684 12.1833L27.1912 10.1327L27.0883 9.91705L27.3272 9.90958C27.8051 9.89714 28.2862 9.92783 28.759 10.0108C29.2277 10.0904 29.6947 10.1958 30.1468 10.3567C31.0477 10.6678 31.9079 11.1746 32.5342 11.9112C33.1638 12.6445 33.5462 13.5637 33.6831 14.501C33.8241 15.4417 33.7719 16.394 33.6143 17.319C33.7047 16.3849 33.7229 15.4384 33.538 14.5268C33.3662 13.6168 32.9664 12.7516 32.3559 12.0705C31.7404 11.3903 30.9224 10.9191 30.0523 10.6313C29.6159 10.4861 29.1638 10.3849 28.7076 10.3111C28.3351 10.2455 27.9527 10.2173 27.5745 10.2173L28.443 12.0523L29.4044 14.1103L29.4276 14.1593L29.4135 14.2099L28.7781 16.2406L28.764 16.2854L28.7242 16.3069L27.5662 16.9382L26.404 17.5662C25.6259 17.9809 24.8528 18.4007 24.0713 18.8063C24.8204 18.3467 25.5786 17.8996 26.3335 17.4467ZM26.3982 19.0394C26.735 18.7914 27.0809 18.5541 27.4301 18.3243C27.7793 18.0946 28.1327 17.8698 28.4869 17.6508C28.842 17.4301 29.202 17.2202 29.562 17.0079C29.922 16.7997 30.2845 16.5915 30.6512 16.3907L30.774 16.3235L30.8395 16.4397C31.0245 16.7781 31.207 17.1166 31.3803 17.4608C31.5562 17.8026 31.7279 18.1485 31.8855 18.501C31.6557 18.1916 31.4384 17.8731 31.2252 17.5512C31.0369 17.2692 30.8561 16.9847 30.6769 16.6968C30.36 16.8959 30.0398 17.0842 29.718 17.2758C29.3579 17.4857 28.9979 17.6972 28.6321 17.8963C28.2663 18.1012 27.8988 18.2978 27.528 18.4903C27.1564 18.6827 26.7798 18.8677 26.3982 19.0394ZM30.1775 30.6462C30.0904 30.0473 30 29.4484 29.9079 28.8511C29.7628 27.8789 29.6217 26.9058 29.4932 25.932C29.4674 25.7603 29.4459 25.5861 29.4243 25.4144C29.4152 25.3621 29.4102 25.309 29.4027 25.2567C29.3355 24.8893 29.2161 24.5201 29.0427 24.1784C28.9506 23.9917 28.8403 23.815 28.7151 23.6499C28.5392 23.4127 28.331 23.1978 28.0946 23.0145C27.8573 22.8337 27.5935 22.6819 27.3347 22.5259C27.6076 22.6528 27.8864 22.7773 28.1418 22.9473C28.399 23.1157 28.6321 23.3198 28.8353 23.5554C28.9822 23.7254 29.1083 23.9104 29.2211 24.1037C29.4168 24.448 29.5579 24.8237 29.645 25.2186C29.6508 25.2509 29.6557 25.2841 29.6616 25.3165C29.6906 25.4865 29.7196 25.6566 29.747 25.8266C29.9137 26.8188 30.0672 27.8117 30.219 28.8055C30.3799 29.8698 30.5193 30.939 30.6537 32.0091C30.6703 32.141 30.686 32.2737 30.7026 32.4056C30.7134 32.4944 30.7242 32.5832 30.735 32.6719C30.7607 32.8785 30.7839 33.0842 30.8088 33.2908C30.9141 34.1974 31.0079 35.1083 31.0892 36.0183C30.8934 35.0029 30.7109 33.9859 30.5458 32.9689C30.5151 32.793 30.4861 32.6163 30.4587 32.4405C30.4513 32.3932 30.4446 32.3484 30.4372 32.3011L30.4355 32.2995C30.3973 32.0697 30.3617 31.8399 30.3268 31.6085C30.3268 31.6085 30.3268 31.6068 30.3252 31.6051C30.2746 31.2849 30.2281 30.9647 30.1775 30.6462ZM23.5968 23.9494L25.1298 25.8009H25.1315L25.8482 26.6678C25.8955 26.7258 25.9419 26.7814 25.9892 26.8395C26.1012 26.9755 26.214 27.1107 26.3243 27.2468C27.5645 28.754 28.7897 30.2746 30.0216 31.7876C30.0523 32.005 30.083 32.2223 30.1136 32.4372C30.0904 32.4081 30.0664 32.3791 30.0431 32.3501C28.7184 30.6835 27.3812 29.027 26.0614 27.3546C25.9511 27.2186 25.8424 27.0817 25.7354 26.944C25.7047 26.9059 25.6757 26.8677 25.645 26.8295L24.91 25.8922L23.4674 24.0514C22.7507 23.1174 22.0249 22.1908 21.3173 21.2518C22.0854 22.1452 22.8362 23.0502 23.5968 23.9494ZM16.2937 19.9046L22.0689 27.0734L22.9125 28.1178L23.2418 28.5268L29.5205 36.3202H29.0137L22.8619 28.686L22.5326 28.2771L21.6906 27.231L15.9859 20.1526L16.2937 19.9046ZM14.1634 10.3592C14.3227 10.1062 14.5475 9.91539 14.7748 9.76027C15.0079 9.6068 15.2468 9.47574 15.484 9.33638C15.0983 9.72709 14.6172 10.0365 14.3924 10.4894C14.1642 10.9382 14.2115 11.4708 14.3924 11.9535C14.5624 12.4479 14.8378 12.9059 15.1365 13.3546C15.4367 13.8017 15.7677 14.2381 16.0556 14.7084C15.6591 14.3285 15.2717 13.9411 14.9224 13.5122C14.5732 13.0834 14.2655 12.6056 14.0722 12.0664C13.9801 11.8001 13.9129 11.5056 13.9187 11.2103C13.927 10.915 14.0025 10.6114 14.1634 10.3592ZM9.75695 15.0502C9.46744 15.119 9.18291 15.2202 8.91746 15.3563C8.64952 15.4882 8.39403 15.6475 8.16093 15.8358C7.68893 16.2032 7.27914 16.6595 6.9971 17.1879C6.72003 17.7163 6.57155 18.3285 6.70593 18.9457C6.56823 18.6636 6.51929 18.336 6.53256 18.0133C6.55081 17.6914 6.63044 17.3729 6.76068 17.0759C7.01618 16.477 7.44836 15.9685 7.95355 15.5703C8.46205 15.1738 9.06678 14.8859 9.71132 14.7922C10.0315 14.7433 10.3608 14.7491 10.6777 14.8196C10.9905 14.8934 11.2916 15.0328 11.523 15.2468C10.9697 14.9365 10.336 14.9166 9.75695 15.0502ZM3.13978 14.3161C3.67399 14.4844 4.23973 14.4405 4.75404 14.2779C5.27167 14.117 5.74948 13.8432 6.1601 13.4981C6.57238 13.1522 6.91995 12.7325 7.16466 12.2621C7.40689 11.7934 7.53546 11.2634 7.4691 10.7565L7.45666 10.6603L7.52883 10.6022C8.24886 10.0249 8.95147 9.4185 9.69307 8.85359C10.0622 8.56906 10.4438 8.29946 10.8387 8.04811C11.2352 7.8034 11.6383 7.56864 12.0655 7.38034C11.6732 7.63003 11.2891 7.88884 10.9249 8.17337C10.5574 8.45375 10.2024 8.75073 9.84985 9.0477C9.1713 9.62837 8.50684 10.2314 7.80838 10.803C7.86976 11.3696 7.70883 11.9303 7.45334 12.4139C7.17793 12.9258 6.78557 13.3638 6.33264 13.713C5.87806 14.0606 5.35545 14.321 4.79801 14.4479C4.52095 14.511 4.23476 14.535 3.95272 14.5168C3.67234 14.5019 3.39195 14.4388 3.13978 14.3161ZM4.82124 19.7022L5.16715 20.1311L4.34343 20.7955L3.99751 20.3667L4.82124 19.7022Z" fill="white"/>
<path d="M28.6096 16.1079L28.5681 16.1328L28.5557 16.1743L28.6096 16.1079Z" fill="white"/>
<path d="M29.1474 14.1311L29.1333 14.1834L29.1549 14.2306L29.1474 14.1311Z" fill="white"/>
<path d="M56.1118 4.64037C56.1409 4.65282 56.1682 4.66775 56.1973 4.68019C56.2246 4.6636 56.2512 4.64618 56.2786 4.62793L56.1118 4.64037Z" fill="white"/>
<path d="M60.4829 25.7121L60.4447 25.6873L60.3999 25.6939L60.4829 25.7121Z" fill="white"/>
<path d="M62.4977 25.3354L62.443 25.3446L62.4106 25.3869L62.4977 25.3354Z" fill="white"/>
<path d="M35.1136 64.7981H34.5977V64.9839H35.1136V64.7981Z" fill="white"/>
<path d="M36.7399 64.2473H32.9722V64.4331H36.7399V64.2473Z" fill="white"/>
<path d="M38.7712 63.699H30.9404V63.8848H38.7712V63.699Z" fill="white"/>
<path d="M40.3929 63.1482H29.3179V63.334H40.3929V63.1482Z" fill="white"/>
<path d="M42.0187 62.5989H27.6919V62.7847H42.0187V62.5989Z" fill="white"/>
<path d="M43.6413 62.0498H26.48V62.2356H43.6413V62.0498Z" fill="white"/>
<path d="M44.8575 61.499H25.2632V61.6848H44.8575V61.499Z" fill="white"/>
<path d="M20.4219 49.896H19.6748V46.8682H16.2998V49.896H15.5527V43.4712H16.2998V46.209H19.6748V43.4712H20.4219V49.896ZM27.7607 46.6748C27.7607 47.1699 27.6978 47.6211 27.5718 48.0283C27.4458 48.4326 27.2583 48.7812 27.0093 49.0742C26.7632 49.3643 26.457 49.5884 26.0908 49.7466C25.7246 49.9048 25.2998 49.9839 24.8164 49.9839C24.3184 49.9839 23.8833 49.9048 23.5112 49.7466C23.1421 49.5884 22.8345 49.3628 22.5884 49.0698C22.3452 48.7769 22.1621 48.4268 22.0391 48.0195C21.9189 47.6123 21.8589 47.1611 21.8589 46.666C21.8589 46.0098 21.9673 45.4341 22.1841 44.939C22.4009 44.4438 22.729 44.0586 23.1685 43.7832C23.6108 43.5078 24.1646 43.3701 24.8296 43.3701C25.4653 43.3701 26 43.5063 26.4336 43.7788C26.8701 44.0513 27.1997 44.4351 27.4224 44.9302C27.6479 45.4224 27.7607 46.0039 27.7607 46.6748ZM22.6455 46.6748C22.6455 47.2197 22.7231 47.6914 22.8784 48.0898C23.0337 48.4883 23.271 48.7959 23.5903 49.0127C23.9126 49.2295 24.3213 49.3379 24.8164 49.3379C25.3145 49.3379 25.7217 49.2295 26.0381 49.0127C26.3574 48.7959 26.5933 48.4883 26.7456 48.0898C26.8979 47.6914 26.9741 47.2197 26.9741 46.6748C26.9741 45.8457 26.7998 45.1982 26.4512 44.7324C26.1055 44.2637 25.5649 44.0293 24.8296 44.0293C24.3315 44.0293 23.9214 44.1362 23.5991 44.3501C23.2769 44.564 23.0366 44.8687 22.8784 45.2642C22.7231 45.6567 22.6455 46.127 22.6455 46.6748ZM32.019 49.896L29.8613 44.2095H29.8262C29.8379 44.3296 29.8481 44.4761 29.8569 44.6489C29.8657 44.8218 29.873 45.0107 29.8789 45.2158C29.8848 45.418 29.8877 45.6245 29.8877 45.8354V49.896H29.1934V43.4712H30.3008L32.3354 48.8149H32.3662L34.4316 43.4712H35.5303V49.896H34.792V45.7827C34.792 45.5923 34.7949 45.4019 34.8008 45.2114C34.8066 45.0181 34.814 44.8364 34.8228 44.6665C34.8315 44.4937 34.8403 44.3442 34.8491 44.2183H34.814L32.6299 49.896H32.019ZM40.8652 49.896H37.2881V43.4712H40.8652V44.1304H38.0352V46.209H40.7026V46.8594H38.0352V49.2368H40.8652V49.896ZM45.374 49.896H44.627V43.4712H48.2041V44.1304H45.374V46.4858H48.0327V47.1406H45.374V49.896ZM49.2764 49.896V43.4712H50.0234V49.896H49.2764ZM56.0791 49.896H55.231L53.4951 47.0659L51.7329 49.896H50.9375L53.0776 46.5474L51.0869 43.4712H51.9175L53.5215 46.0332L55.1343 43.4712H55.9253L53.939 46.5342L56.0791 49.896Z" fill="white"/>
</g>
<defs>
<clipPath id="clip0_214_408">
<rect width="67.5122" height="70" fill="white"/>
</clipPath>
</defs>
</svg>
