<svg width="20" height="20" viewBox="0 0 20 20" fill="none" xmlns="http://www.w3.org/2000/svg">
<path d="M1.23711 1.23711H4.37113V0H0V4.37113H1.23711V1.23711Z" fill="white"/>
<path d="M15.6289 0V1.23711H18.7629V4.37113H20V0H15.6289Z" fill="white"/>
<path d="M11.8815 0H8.12891V1.23711H11.8815V0Z" fill="white"/>
<path d="M11.8815 18.7627H8.12891V19.9998H11.8815V18.7627Z" fill="white"/>
<path d="M18.7629 18.7629H15.6289V20H20V15.6289H18.7629V18.7629Z" fill="white"/>
<path d="M20.0008 8.12305H18.7637V11.8756H20.0008V8.12305Z" fill="white"/>
<path d="M1.23711 8.12402H0V11.8766H1.23711V8.12402Z" fill="white"/>
<path d="M1.50353 15.1433L0.121094 19.8791L4.85685 18.4966L13.7882 9.56528L10.4349 6.212L1.50353 15.1433ZM4.20604 17.3979L1.94114 18.0591L2.60229 15.7941L8.40324 9.99319L10.007 11.5969L4.20604 17.3979ZM10.8818 10.7222L9.27804 9.11843L10.4349 7.96156L12.0387 9.56532L10.8818 10.7222Z" fill="white"/>
</svg>
