<svg width="15" height="14" viewBox="0 0 15 14" fill="none" xmlns="http://www.w3.org/2000/svg">
<g clip-path="url(#clip0_261_1349)">
<path d="M7.84375 0C3.97803 0 0.84375 3.13428 0.84375 7C0.84375 10.8657 3.97803 14 7.84375 14C11.7094 14 14.8438 10.8657 14.8438 7C14.8438 3.13428 11.7094 0 7.84375 0ZM10.4431 7.07924L6.5056 9.4293C6.47741 9.44642 6.44151 9.44727 6.41247 9.43015C6.38428 9.41391 6.36634 9.38361 6.36634 9.34984V6.99975V4.64967C6.36634 4.61636 6.38428 4.5856 6.41247 4.56933C6.44151 4.55268 6.47741 4.55353 6.5056 4.57018L10.4431 6.9207C10.4713 6.93673 10.488 6.96768 10.488 6.99973C10.488 7.03246 10.4713 7.06281 10.4431 7.07924Z" fill="#FB9120"/>
</g>
<defs>
<clipPath id="clip0_261_1349">
<rect width="14" height="14" fill="white" transform="translate(0.84375)"/>
</clipPath>
</defs>
</svg>
