<svg width="33" height="32" viewBox="0 0 33 32" fill="none" xmlns="http://www.w3.org/2000/svg">
<circle cx="16.8438" cy="16" r="16" fill="#F1F5F9"/>
<path d="M19.5759 15.656C19.5759 14.3651 18.4966 13.3184 17.1649 13.3184C15.8335 13.3184 14.7539 14.3651 14.7539 15.656C14.7539 16.9472 15.8335 17.9938 17.1649 17.9938C18.4966 17.9938 19.5759 16.9472 19.5759 15.656Z" fill="#53C1DE"/>
<path fill-rule="evenodd" clip-rule="evenodd" d="M24.9944 11.3168C25.5036 9.31082 26.1435 5.59085 23.8874 4.32966C21.6418 3.07397 18.7196 5.4801 17.1766 6.92438C15.638 5.49449 12.6337 3.09865 10.3795 4.36384C8.13482 5.62374 8.82704 9.28203 9.34747 11.3006C7.25354 11.8773 3.66406 13.1193 3.66406 15.6568C3.66406 18.1872 7.24981 19.5384 9.33134 20.1145C8.80898 22.1443 8.15143 25.7503 10.399 27.0074C12.6616 28.2724 15.6566 25.9336 17.2139 24.4735C18.7669 25.9263 21.661 28.2804 23.907 27.0198C26.1601 25.7552 25.5733 22.0851 25.0528 20.0548C27.0706 19.4774 30.6641 18.1556 30.6641 15.6568C30.6641 13.1437 27.0553 11.8916 24.9944 11.3168ZM24.7386 18.9788C24.3969 17.93 23.9357 16.8146 23.3715 15.6624C23.91 14.5374 24.3534 13.4364 24.6855 12.3943C26.1964 12.819 29.5107 13.7897 29.5107 15.6568C29.5107 17.5415 26.3302 18.5213 24.7386 18.9788ZM23.3291 26.0519C21.6533 26.9924 19.164 24.7412 18.0171 23.6713C18.7779 22.8645 19.5383 21.9265 20.2803 20.8849C21.5857 20.7727 22.8188 20.5891 23.9371 20.3384C24.3034 21.7746 25.0122 25.1072 23.3291 26.0519ZM10.9753 26.0385C9.29935 25.1015 10.0654 21.8837 10.4497 20.3885C11.5556 20.6257 12.7798 20.7964 14.0882 20.8992C14.8351 21.9184 15.6175 22.8552 16.4059 23.6756C15.4318 24.5892 12.6591 26.9798 10.9753 26.0385ZM4.8174 15.6568C4.8174 13.7651 8.11193 12.8015 9.6572 12.3779C9.99512 13.4434 10.4383 14.5575 10.9732 15.6841C10.4314 16.8275 9.98186 17.9592 9.64083 19.0373C8.16738 18.6284 4.8174 17.5497 4.8174 15.6568ZM10.9574 5.3317C12.6402 4.38726 15.2513 6.68736 16.3684 7.72263C15.584 8.5393 14.8089 9.46905 14.0683 10.4824C12.7985 10.5965 11.5829 10.7797 10.4654 11.0252C10.0462 9.39715 9.27639 6.27513 10.9574 5.3317ZM21.1054 11.6979C21.9669 11.8033 22.7923 11.9435 23.5673 12.1151C23.3346 12.8381 23.0447 13.5942 22.7031 14.3693C22.208 13.4585 21.6766 12.566 21.1054 11.6979ZM17.1769 8.5218C17.7089 9.08059 18.2417 9.70458 18.7659 10.3816C17.7027 10.3328 16.6378 10.3326 15.5747 10.3808C16.0993 9.71015 16.6367 9.08708 17.1769 8.5218ZM11.6349 14.3685C11.299 13.5961 11.0116 12.8367 10.777 12.1033C11.5473 11.9361 12.3689 11.7995 13.2248 11.6958C12.652 12.562 12.1215 13.4542 11.6349 14.3685ZM13.2493 19.6976C12.3652 19.602 11.5312 19.4723 10.7611 19.3097C10.9995 18.5635 11.2932 17.7877 11.6362 16.9986C12.1295 17.9225 12.6681 18.8233 13.2493 19.6976ZM17.2089 22.8709C16.6622 22.2989 16.1169 21.6663 15.5844 20.9859C16.6536 21.0266 17.7249 21.0267 18.794 20.9804C18.2682 21.6732 17.7373 22.3067 17.2089 22.8709ZM22.7141 16.9585C23.075 17.7561 23.3792 18.5276 23.6208 19.2613C22.8379 19.4346 21.9927 19.5741 21.1022 19.6777C21.6776 18.7931 22.2175 17.8868 22.7141 16.9585ZM19.6366 19.8132C18.0012 19.9265 16.3555 19.9253 14.7195 19.8225C13.7899 18.5059 12.9623 17.1212 12.248 15.6837C12.9589 14.2492 13.7804 12.8673 14.7056 11.5527C16.3428 11.4328 17.9901 11.4324 19.6273 11.5535C20.5446 12.8679 21.3648 14.2463 22.0922 15.6678C21.3735 17.1016 20.5476 18.4863 19.6366 19.8132ZM23.3113 5.29845C24.9946 6.2398 24.2454 9.58305 23.8776 11.0369C22.7575 10.7862 21.541 10.5997 20.2675 10.4838C19.5256 9.45955 18.7569 8.52818 17.9852 7.72206C19.1166 6.66448 21.6444 4.36632 23.3113 5.29845Z" fill="#53C1DE"/>
</svg>
