<svg width="733" height="122" viewBox="0 0 733 122" fill="none" xmlns="http://www.w3.org/2000/svg">
<path d="M133.656 53L129.672 46.16H127.032V53H124.848V36.272H130.248C131.512 36.272 132.576 36.488 133.44 36.92C134.32 37.352 134.976 37.936 135.408 38.672C135.84 39.408 136.056 40.248 136.056 41.192C136.056 42.344 135.72 43.36 135.048 44.24C134.392 45.12 133.4 45.704 132.072 45.992L136.272 53H133.656ZM127.032 44.408H130.248C131.432 44.408 132.32 44.12 132.912 43.544C133.504 42.952 133.8 42.168 133.8 41.192C133.8 40.2 133.504 39.432 132.912 38.888C132.336 38.344 131.448 38.072 130.248 38.072H127.032V44.408ZM151.45 45.92C151.45 46.336 151.426 46.776 151.378 47.24H140.866C140.946 48.536 141.386 49.552 142.186 50.288C143.002 51.008 143.986 51.368 145.138 51.368C146.082 51.368 146.866 51.152 147.49 50.72C148.13 50.272 148.578 49.68 148.834 48.944H151.186C150.834 50.208 150.13 51.24 149.074 52.04C148.018 52.824 146.706 53.216 145.138 53.216C143.89 53.216 142.77 52.936 141.778 52.376C140.802 51.816 140.034 51.024 139.474 50C138.914 48.96 138.634 47.76 138.634 46.4C138.634 45.04 138.906 43.848 139.45 42.824C139.994 41.8 140.754 41.016 141.73 40.472C142.722 39.912 143.858 39.632 145.138 39.632C146.386 39.632 147.49 39.904 148.45 40.448C149.41 40.992 150.146 41.744 150.658 42.704C151.186 43.648 151.45 44.72 151.45 45.92ZM149.194 45.464C149.194 44.632 149.01 43.92 148.642 43.328C148.274 42.72 147.77 42.264 147.13 41.96C146.506 41.64 145.81 41.48 145.042 41.48C143.938 41.48 142.994 41.832 142.21 42.536C141.442 43.24 141.002 44.216 140.89 45.464H149.194ZM156.516 35.24V53H154.332V35.24H156.516ZM161.367 37.712C160.951 37.712 160.599 37.568 160.311 37.28C160.023 36.992 159.879 36.64 159.879 36.224C159.879 35.808 160.023 35.456 160.311 35.168C160.599 34.88 160.951 34.736 161.367 34.736C161.767 34.736 162.103 34.88 162.375 35.168C162.663 35.456 162.807 35.808 162.807 36.224C162.807 36.64 162.663 36.992 162.375 37.28C162.103 37.568 161.767 37.712 161.367 37.712ZM162.423 39.848V53H160.239V39.848H162.423ZM165.329 46.376C165.329 45.032 165.601 43.856 166.145 42.848C166.689 41.824 167.433 41.032 168.377 40.472C169.337 39.912 170.401 39.632 171.569 39.632C172.721 39.632 173.721 39.88 174.569 40.376C175.417 40.872 176.049 41.496 176.465 42.248V39.848H178.673V53H176.465V50.552C176.033 51.32 175.385 51.96 174.521 52.472C173.673 52.968 172.681 53.216 171.545 53.216C170.377 53.216 169.321 52.928 168.377 52.352C167.433 51.776 166.689 50.968 166.145 49.928C165.601 48.888 165.329 47.704 165.329 46.376ZM176.465 46.4C176.465 45.408 176.265 44.544 175.865 43.808C175.465 43.072 174.921 42.512 174.233 42.128C173.561 41.728 172.817 41.528 172.001 41.528C171.185 41.528 170.441 41.72 169.769 42.104C169.097 42.488 168.561 43.048 168.161 43.784C167.761 44.52 167.561 45.384 167.561 46.376C167.561 47.384 167.761 48.264 168.161 49.016C168.561 49.752 169.097 50.32 169.769 50.72C170.441 51.104 171.185 51.296 172.001 51.296C172.817 51.296 173.561 51.104 174.233 50.72C174.921 50.32 175.465 49.752 175.865 49.016C176.265 48.264 176.465 47.392 176.465 46.4ZM184.548 42.296C184.996 41.512 185.652 40.872 186.516 40.376C187.38 39.88 188.364 39.632 189.468 39.632C190.652 39.632 191.716 39.912 192.66 40.472C193.604 41.032 194.348 41.824 194.892 42.848C195.436 43.856 195.708 45.032 195.708 46.376C195.708 47.704 195.436 48.888 194.892 49.928C194.348 50.968 193.596 51.776 192.636 52.352C191.692 52.928 190.636 53.216 189.468 53.216C188.332 53.216 187.332 52.968 186.468 52.472C185.62 51.976 184.98 51.344 184.548 50.576V53H182.364V35.24H184.548V42.296ZM193.476 46.376C193.476 45.384 193.276 44.52 192.876 43.784C192.476 43.048 191.932 42.488 191.244 42.104C190.572 41.72 189.828 41.528 189.012 41.528C188.212 41.528 187.468 41.728 186.78 42.128C186.108 42.512 185.564 43.08 185.148 43.832C184.748 44.568 184.548 45.424 184.548 46.4C184.548 47.392 184.748 48.264 185.148 49.016C185.564 49.752 186.108 50.32 186.78 50.72C187.468 51.104 188.212 51.296 189.012 51.296C189.828 51.296 190.572 51.104 191.244 50.72C191.932 50.32 192.476 49.752 192.876 49.016C193.276 48.264 193.476 47.384 193.476 46.376ZM200.766 35.24V53H198.582V35.24H200.766ZM216.489 45.92C216.489 46.336 216.465 46.776 216.417 47.24H205.905C205.985 48.536 206.425 49.552 207.225 50.288C208.041 51.008 209.025 51.368 210.177 51.368C211.121 51.368 211.905 51.152 212.529 50.72C213.169 50.272 213.617 49.68 213.873 48.944H216.225C215.873 50.208 215.169 51.24 214.113 52.04C213.057 52.824 211.745 53.216 210.177 53.216C208.929 53.216 207.809 52.936 206.817 52.376C205.841 51.816 205.073 51.024 204.513 50C203.953 48.96 203.673 47.76 203.673 46.4C203.673 45.04 203.945 43.848 204.489 42.824C205.033 41.8 205.793 41.016 206.769 40.472C207.761 39.912 208.897 39.632 210.177 39.632C211.425 39.632 212.529 39.904 213.489 40.448C214.449 40.992 215.185 41.744 215.697 42.704C216.225 43.648 216.489 44.72 216.489 45.92ZM214.233 45.464C214.233 44.632 214.049 43.92 213.681 43.328C213.313 42.72 212.809 42.264 212.169 41.96C211.545 41.64 210.849 41.48 210.081 41.48C208.977 41.48 208.033 41.832 207.249 42.536C206.481 43.24 206.041 44.216 205.929 45.464H214.233ZM224.954 44.624C224.954 42.992 225.322 41.528 226.058 40.232C226.794 38.92 227.794 37.896 229.058 37.16C230.338 36.424 231.754 36.056 233.306 36.056C235.13 36.056 236.722 36.496 238.082 37.376C239.442 38.256 240.434 39.504 241.058 41.12H238.442C237.978 40.112 237.306 39.336 236.426 38.792C235.562 38.248 234.522 37.976 233.306 37.976C232.138 37.976 231.09 38.248 230.162 38.792C229.234 39.336 228.506 40.112 227.978 41.12C227.45 42.112 227.186 43.28 227.186 44.624C227.186 45.952 227.45 47.12 227.978 48.128C228.506 49.12 229.234 49.888 230.162 50.432C231.09 50.976 232.138 51.248 233.306 51.248C234.522 51.248 235.562 50.984 236.426 50.456C237.306 49.912 237.978 49.136 238.442 48.128H241.058C240.434 49.728 239.442 50.968 238.082 51.848C236.722 52.712 235.13 53.144 233.306 53.144C231.754 53.144 230.338 52.784 229.058 52.064C227.794 51.328 226.794 50.312 226.058 49.016C225.322 47.72 224.954 46.256 224.954 44.624ZM246.493 41.984C246.877 41.232 247.421 40.648 248.125 40.232C248.845 39.816 249.717 39.608 250.741 39.608V41.864H250.165C247.717 41.864 246.493 43.192 246.493 45.848V53H244.309V39.848H246.493V41.984ZM265.262 45.92C265.262 46.336 265.238 46.776 265.19 47.24H254.678C254.758 48.536 255.198 49.552 255.998 50.288C256.814 51.008 257.798 51.368 258.95 51.368C259.894 51.368 260.678 51.152 261.302 50.72C261.942 50.272 262.39 49.68 262.646 48.944H264.998C264.646 50.208 263.942 51.24 262.886 52.04C261.83 52.824 260.518 53.216 258.95 53.216C257.702 53.216 256.582 52.936 255.59 52.376C254.614 51.816 253.846 51.024 253.286 50C252.726 48.96 252.446 47.76 252.446 46.4C252.446 45.04 252.718 43.848 253.262 42.824C253.806 41.8 254.566 41.016 255.542 40.472C256.534 39.912 257.67 39.632 258.95 39.632C260.198 39.632 261.302 39.904 262.262 40.448C263.222 40.992 263.958 41.744 264.47 42.704C264.998 43.648 265.262 44.72 265.262 45.92ZM263.006 45.464C263.006 44.632 262.822 43.92 262.454 43.328C262.086 42.72 261.582 42.264 260.942 41.96C260.318 41.64 259.622 41.48 258.854 41.48C257.75 41.48 256.806 41.832 256.022 42.536C255.254 43.24 254.814 44.216 254.702 45.464H263.006ZM285.665 39.848L281.561 53H279.305L276.137 42.56L272.969 53H270.713L266.585 39.848H268.817L271.841 50.888L275.105 39.848H277.337L280.529 50.912L283.505 39.848H285.665Z" fill="#F22B45"/>
<path d="M123.774 81.718C123.774 80.494 124.05 79.396 124.602 78.424C125.154 77.44 125.904 76.672 126.852 76.12C127.812 75.568 128.874 75.292 130.038 75.292C131.406 75.292 132.6 75.622 133.62 76.282C134.64 76.942 135.384 77.878 135.852 79.09H133.89C133.542 78.334 133.038 77.752 132.378 77.344C131.73 76.936 130.95 76.732 130.038 76.732C129.162 76.732 128.376 76.936 127.68 77.344C126.984 77.752 126.438 78.334 126.042 79.09C125.646 79.834 125.448 80.71 125.448 81.718C125.448 82.714 125.646 83.59 126.042 84.346C126.438 85.09 126.984 85.666 127.68 86.074C128.376 86.482 129.162 86.686 130.038 86.686C130.95 86.686 131.73 86.488 132.378 86.092C133.038 85.684 133.542 85.102 133.89 84.346H135.852C135.384 85.546 134.64 86.476 133.62 87.136C132.6 87.784 131.406 88.108 130.038 88.108C128.874 88.108 127.812 87.838 126.852 87.298C125.904 86.746 125.154 85.984 124.602 85.012C124.05 84.04 123.774 82.942 123.774 81.718ZM142.592 88.162C141.668 88.162 140.828 87.952 140.072 87.532C139.328 87.112 138.74 86.518 138.308 85.75C137.888 84.97 137.678 84.07 137.678 83.05C137.678 82.042 137.894 81.154 138.326 80.386C138.77 79.606 139.37 79.012 140.126 78.604C140.882 78.184 141.728 77.974 142.664 77.974C143.6 77.974 144.446 78.184 145.202 78.604C145.958 79.012 146.552 79.6 146.984 80.368C147.428 81.136 147.65 82.03 147.65 83.05C147.65 84.07 147.422 84.97 146.966 85.75C146.522 86.518 145.916 87.112 145.148 87.532C144.38 87.952 143.528 88.162 142.592 88.162ZM142.592 86.722C143.18 86.722 143.732 86.584 144.248 86.308C144.764 86.032 145.178 85.618 145.49 85.066C145.814 84.514 145.976 83.842 145.976 83.05C145.976 82.258 145.82 81.586 145.508 81.034C145.196 80.482 144.788 80.074 144.284 79.81C143.78 79.534 143.234 79.396 142.646 79.396C142.046 79.396 141.494 79.534 140.99 79.81C140.498 80.074 140.102 80.482 139.802 81.034C139.502 81.586 139.352 82.258 139.352 83.05C139.352 83.854 139.496 84.532 139.784 85.084C140.084 85.636 140.48 86.05 140.972 86.326C141.464 86.59 142.004 86.722 142.592 86.722ZM154.61 77.956C155.81 77.956 156.782 78.322 157.526 79.054C158.27 79.774 158.642 80.818 158.642 82.186V88H157.022V82.42C157.022 81.436 156.776 80.686 156.284 80.17C155.792 79.642 155.12 79.378 154.268 79.378C153.404 79.378 152.714 79.648 152.198 80.188C151.694 80.728 151.442 81.514 151.442 82.546V88H149.804V78.136H151.442V79.54C151.766 79.036 152.204 78.646 152.756 78.37C153.32 78.094 153.938 77.956 154.61 77.956ZM164.81 88.162C164.054 88.162 163.376 88.036 162.776 87.784C162.176 87.52 161.702 87.16 161.354 86.704C161.006 86.236 160.814 85.702 160.778 85.102H162.47C162.518 85.594 162.746 85.996 163.154 86.308C163.574 86.62 164.12 86.776 164.792 86.776C165.416 86.776 165.908 86.638 166.268 86.362C166.628 86.086 166.808 85.738 166.808 85.318C166.808 84.886 166.616 84.568 166.232 84.364C165.848 84.148 165.254 83.938 164.45 83.734C163.718 83.542 163.118 83.35 162.65 83.158C162.194 82.954 161.798 82.66 161.462 82.276C161.138 81.88 160.976 81.364 160.976 80.728C160.976 80.224 161.126 79.762 161.426 79.342C161.726 78.922 162.152 78.592 162.704 78.352C163.256 78.1 163.886 77.974 164.594 77.974C165.686 77.974 166.568 78.25 167.24 78.802C167.912 79.354 168.272 80.11 168.32 81.07H166.682C166.646 80.554 166.436 80.14 166.052 79.828C165.68 79.516 165.176 79.36 164.54 79.36C163.952 79.36 163.484 79.486 163.136 79.738C162.788 79.99 162.614 80.32 162.614 80.728C162.614 81.052 162.716 81.322 162.92 81.538C163.136 81.742 163.4 81.91 163.712 82.042C164.036 82.162 164.48 82.3 165.044 82.456C165.752 82.648 166.328 82.84 166.772 83.032C167.216 83.212 167.594 83.488 167.906 83.86C168.23 84.232 168.398 84.718 168.41 85.318C168.41 85.858 168.26 86.344 167.96 86.776C167.66 87.208 167.234 87.55 166.682 87.802C166.142 88.042 165.518 88.162 164.81 88.162ZM179.47 78.136V88H177.832V86.542C177.52 87.046 177.082 87.442 176.518 87.73C175.966 88.006 175.354 88.144 174.682 88.144C173.914 88.144 173.224 87.988 172.612 87.676C172 87.352 171.514 86.872 171.154 86.236C170.806 85.6 170.632 84.826 170.632 83.914V78.136H172.252V83.698C172.252 84.67 172.498 85.42 172.99 85.948C173.482 86.464 174.154 86.722 175.006 86.722C175.882 86.722 176.572 86.452 177.076 85.912C177.58 85.372 177.832 84.586 177.832 83.554V78.136H179.47ZM194.098 77.956C194.866 77.956 195.55 78.118 196.15 78.442C196.75 78.754 197.224 79.228 197.572 79.864C197.92 80.5 198.094 81.274 198.094 82.186V88H196.474V82.42C196.474 81.436 196.228 80.686 195.736 80.17C195.256 79.642 194.602 79.378 193.774 79.378C192.922 79.378 192.244 79.654 191.74 80.206C191.236 80.746 190.984 81.532 190.984 82.564V88H189.364V82.42C189.364 81.436 189.118 80.686 188.626 80.17C188.146 79.642 187.492 79.378 186.664 79.378C185.812 79.378 185.134 79.654 184.63 80.206C184.126 80.746 183.874 81.532 183.874 82.564V88H182.236V78.136H183.874V79.558C184.198 79.042 184.63 78.646 185.17 78.37C185.722 78.094 186.328 77.956 186.988 77.956C187.816 77.956 188.548 78.142 189.184 78.514C189.82 78.886 190.294 79.432 190.606 80.152C190.882 79.456 191.338 78.916 191.974 78.532C192.61 78.148 193.318 77.956 194.098 77.956ZM209.781 82.69C209.781 83.002 209.763 83.332 209.727 83.68H201.843C201.903 84.652 202.233 85.414 202.833 85.966C203.445 86.506 204.183 86.776 205.047 86.776C205.755 86.776 206.343 86.614 206.811 86.29C207.291 85.954 207.627 85.51 207.819 84.958H209.583C209.319 85.906 208.791 86.68 207.999 87.28C207.207 87.868 206.223 88.162 205.047 88.162C204.111 88.162 203.271 87.952 202.527 87.532C201.795 87.112 201.219 86.518 200.799 85.75C200.379 84.97 200.169 84.07 200.169 83.05C200.169 82.03 200.373 81.136 200.781 80.368C201.189 79.6 201.759 79.012 202.491 78.604C203.235 78.184 204.087 77.974 205.047 77.974C205.983 77.974 206.811 78.178 207.531 78.586C208.251 78.994 208.803 79.558 209.187 80.278C209.583 80.986 209.781 81.79 209.781 82.69ZM208.089 82.348C208.089 81.724 207.951 81.19 207.675 80.746C207.399 80.29 207.021 79.948 206.541 79.72C206.073 79.48 205.551 79.36 204.975 79.36C204.147 79.36 203.439 79.624 202.851 80.152C202.275 80.68 201.945 81.412 201.861 82.348H208.089ZM213.581 79.738C213.869 79.174 214.277 78.736 214.805 78.424C215.345 78.112 215.999 77.956 216.767 77.956V79.648H216.335C214.499 79.648 213.581 80.644 213.581 82.636V88H211.943V78.136H213.581V79.738ZM225.094 79.954C225.418 79.39 225.898 78.922 226.534 78.55C227.182 78.166 227.932 77.974 228.784 77.974C229.66 77.974 230.452 78.184 231.16 78.604C231.88 79.024 232.444 79.618 232.852 80.386C233.26 81.142 233.464 82.024 233.464 83.032C233.464 84.028 233.26 84.916 232.852 85.696C232.444 86.476 231.88 87.082 231.16 87.514C230.452 87.946 229.66 88.162 228.784 88.162C227.944 88.162 227.2 87.976 226.552 87.604C225.916 87.22 225.43 86.746 225.094 86.182V92.68H223.456V78.136H225.094V79.954ZM231.79 83.032C231.79 82.288 231.64 81.64 231.34 81.088C231.04 80.536 230.632 80.116 230.116 79.828C229.612 79.54 229.054 79.396 228.442 79.396C227.842 79.396 227.284 79.546 226.768 79.846C226.264 80.134 225.856 80.56 225.544 81.124C225.244 81.676 225.094 82.318 225.094 83.05C225.094 83.794 225.244 84.448 225.544 85.012C225.856 85.564 226.264 85.99 226.768 86.29C227.284 86.578 227.842 86.722 228.442 86.722C229.054 86.722 229.612 86.578 230.116 86.29C230.632 85.99 231.04 85.564 231.34 85.012C231.64 84.448 231.79 83.788 231.79 83.032ZM237.258 74.68V88H235.62V74.68H237.258ZM249.05 82.69C249.05 83.002 249.032 83.332 248.996 83.68H241.112C241.172 84.652 241.502 85.414 242.102 85.966C242.714 86.506 243.452 86.776 244.316 86.776C245.024 86.776 245.612 86.614 246.08 86.29C246.56 85.954 246.896 85.51 247.088 84.958H248.852C248.588 85.906 248.06 86.68 247.268 87.28C246.476 87.868 245.492 88.162 244.316 88.162C243.38 88.162 242.54 87.952 241.796 87.532C241.064 87.112 240.488 86.518 240.068 85.75C239.648 84.97 239.438 84.07 239.438 83.05C239.438 82.03 239.642 81.136 240.05 80.368C240.458 79.6 241.028 79.012 241.76 78.604C242.504 78.184 243.356 77.974 244.316 77.974C245.252 77.974 246.08 78.178 246.8 78.586C247.52 78.994 248.072 79.558 248.456 80.278C248.852 80.986 249.05 81.79 249.05 82.69ZM247.358 82.348C247.358 81.724 247.22 81.19 246.944 80.746C246.668 80.29 246.29 79.948 245.81 79.72C245.342 79.48 244.82 79.36 244.244 79.36C243.416 79.36 242.708 79.624 242.12 80.152C241.544 80.68 241.214 81.412 241.13 82.348H247.358ZM250.6 83.032C250.6 82.024 250.804 81.142 251.212 80.386C251.62 79.618 252.178 79.024 252.886 78.604C253.606 78.184 254.404 77.974 255.28 77.974C256.144 77.974 256.894 78.16 257.53 78.532C258.166 78.904 258.64 79.372 258.952 79.936V78.136H260.608V88H258.952V86.164C258.628 86.74 258.142 87.22 257.494 87.604C256.858 87.976 256.114 88.162 255.262 88.162C254.386 88.162 253.594 87.946 252.886 87.514C252.178 87.082 251.62 86.476 251.212 85.696C250.804 84.916 250.6 84.028 250.6 83.032ZM258.952 83.05C258.952 82.306 258.802 81.658 258.502 81.106C258.202 80.554 257.794 80.134 257.278 79.846C256.774 79.546 256.216 79.396 255.604 79.396C254.992 79.396 254.434 79.54 253.93 79.828C253.426 80.116 253.024 80.536 252.724 81.088C252.424 81.64 252.274 82.288 252.274 83.032C252.274 83.788 252.424 84.448 252.724 85.012C253.024 85.564 253.426 85.99 253.93 86.29C254.434 86.578 254.992 86.722 255.604 86.722C256.216 86.722 256.774 86.578 257.278 86.29C257.794 85.99 258.202 85.564 258.502 85.012C258.802 84.448 258.952 83.794 258.952 83.05ZM266.868 88.162C266.112 88.162 265.434 88.036 264.834 87.784C264.234 87.52 263.76 87.16 263.412 86.704C263.064 86.236 262.872 85.702 262.836 85.102H264.528C264.576 85.594 264.804 85.996 265.212 86.308C265.632 86.62 266.178 86.776 266.85 86.776C267.474 86.776 267.966 86.638 268.326 86.362C268.686 86.086 268.866 85.738 268.866 85.318C268.866 84.886 268.674 84.568 268.29 84.364C267.906 84.148 267.312 83.938 266.508 83.734C265.776 83.542 265.176 83.35 264.708 83.158C264.252 82.954 263.856 82.66 263.52 82.276C263.196 81.88 263.034 81.364 263.034 80.728C263.034 80.224 263.184 79.762 263.484 79.342C263.784 78.922 264.21 78.592 264.762 78.352C265.314 78.1 265.944 77.974 266.652 77.974C267.744 77.974 268.626 78.25 269.298 78.802C269.97 79.354 270.33 80.11 270.378 81.07H268.74C268.704 80.554 268.494 80.14 268.11 79.828C267.738 79.516 267.234 79.36 266.598 79.36C266.01 79.36 265.542 79.486 265.194 79.738C264.846 79.99 264.672 80.32 264.672 80.728C264.672 81.052 264.774 81.322 264.978 81.538C265.194 81.742 265.458 81.91 265.77 82.042C266.094 82.162 266.538 82.3 267.102 82.456C267.81 82.648 268.386 82.84 268.83 83.032C269.274 83.212 269.652 83.488 269.964 83.86C270.288 84.232 270.456 84.718 270.468 85.318C270.468 85.858 270.318 86.344 270.018 86.776C269.718 87.208 269.292 87.55 268.74 87.802C268.2 88.042 267.576 88.162 266.868 88.162ZM272.169 83.032C272.169 82.024 272.373 81.142 272.781 80.386C273.189 79.618 273.747 79.024 274.455 78.604C275.175 78.184 275.973 77.974 276.849 77.974C277.713 77.974 278.463 78.16 279.099 78.532C279.735 78.904 280.209 79.372 280.521 79.936V78.136H282.177V88H280.521V86.164C280.197 86.74 279.711 87.22 279.063 87.604C278.427 87.976 277.683 88.162 276.831 88.162C275.955 88.162 275.163 87.946 274.455 87.514C273.747 87.082 273.189 86.476 272.781 85.696C272.373 84.916 272.169 84.028 272.169 83.032ZM280.521 83.05C280.521 82.306 280.371 81.658 280.071 81.106C279.771 80.554 279.363 80.134 278.847 79.846C278.343 79.546 277.785 79.396 277.173 79.396C276.561 79.396 276.003 79.54 275.499 79.828C274.995 80.116 274.593 80.536 274.293 81.088C273.993 81.64 273.843 82.288 273.843 83.032C273.843 83.788 273.993 84.448 274.293 85.012C274.593 85.564 274.995 85.99 275.499 86.29C276.003 86.578 276.561 86.722 277.173 86.722C277.785 86.722 278.343 86.578 278.847 86.29C279.363 85.99 279.771 85.564 280.071 85.012C280.371 84.448 280.521 83.794 280.521 83.05ZM289.751 77.956C290.951 77.956 291.923 78.322 292.667 79.054C293.411 79.774 293.783 80.818 293.783 82.186V88H292.163V82.42C292.163 81.436 291.917 80.686 291.425 80.17C290.933 79.642 290.261 79.378 289.409 79.378C288.545 79.378 287.855 79.648 287.339 80.188C286.835 80.728 286.583 81.514 286.583 82.546V88H284.945V78.136H286.583V79.54C286.907 79.036 287.345 78.646 287.897 78.37C288.461 78.094 289.079 77.956 289.751 77.956ZM298.456 79.486V85.3C298.456 85.78 298.558 86.122 298.762 86.326C298.966 86.518 299.32 86.614 299.824 86.614H301.03V88H299.554C298.642 88 297.958 87.79 297.502 87.37C297.046 86.95 296.818 86.26 296.818 85.3V79.486H295.54V78.136H296.818V75.652H298.456V78.136H301.03V79.486H298.456ZM307.202 83.032C307.202 82.024 307.406 81.142 307.814 80.386C308.222 79.618 308.78 79.024 309.488 78.604C310.208 78.184 311.006 77.974 311.882 77.974C312.746 77.974 313.496 78.16 314.132 78.532C314.768 78.904 315.242 79.372 315.554 79.936V78.136H317.21V88H315.554V86.164C315.23 86.74 314.744 87.22 314.096 87.604C313.46 87.976 312.716 88.162 311.864 88.162C310.988 88.162 310.196 87.946 309.488 87.514C308.78 87.082 308.222 86.476 307.814 85.696C307.406 84.916 307.202 84.028 307.202 83.032ZM315.554 83.05C315.554 82.306 315.404 81.658 315.104 81.106C314.804 80.554 314.396 80.134 313.88 79.846C313.376 79.546 312.818 79.396 312.206 79.396C311.594 79.396 311.036 79.54 310.532 79.828C310.028 80.116 309.626 80.536 309.326 81.088C309.026 81.64 308.876 82.288 308.876 83.032C308.876 83.788 309.026 84.448 309.326 85.012C309.626 85.564 310.028 85.99 310.532 86.29C311.036 86.578 311.594 86.722 312.206 86.722C312.818 86.722 313.376 86.578 313.88 86.29C314.396 85.99 314.804 85.564 315.104 85.012C315.404 84.448 315.554 83.794 315.554 83.05ZM324.784 77.956C325.984 77.956 326.956 78.322 327.7 79.054C328.444 79.774 328.816 80.818 328.816 82.186V88H327.196V82.42C327.196 81.436 326.95 80.686 326.458 80.17C325.966 79.642 325.294 79.378 324.442 79.378C323.578 79.378 322.888 79.648 322.372 80.188C321.868 80.728 321.616 81.514 321.616 82.546V88H319.978V78.136H321.616V79.54C321.94 79.036 322.378 78.646 322.93 78.37C323.494 78.094 324.112 77.956 324.784 77.956ZM330.879 83.032C330.879 82.024 331.083 81.142 331.491 80.386C331.899 79.618 332.457 79.024 333.165 78.604C333.885 78.184 334.689 77.974 335.577 77.974C336.345 77.974 337.059 78.154 337.719 78.514C338.379 78.862 338.883 79.324 339.231 79.9V74.68H340.887V88H339.231V86.146C338.907 86.734 338.427 87.22 337.791 87.604C337.155 87.976 336.411 88.162 335.559 88.162C334.683 88.162 333.885 87.946 333.165 87.514C332.457 87.082 331.899 86.476 331.491 85.696C331.083 84.916 330.879 84.028 330.879 83.032ZM339.231 83.05C339.231 82.306 339.081 81.658 338.781 81.106C338.481 80.554 338.073 80.134 337.557 79.846C337.053 79.546 336.495 79.396 335.883 79.396C335.271 79.396 334.713 79.54 334.209 79.828C333.705 80.116 333.303 80.536 333.003 81.088C332.703 81.64 332.553 82.288 332.553 83.032C332.553 83.788 332.703 84.448 333.003 85.012C333.303 85.564 333.705 85.99 334.209 86.29C334.713 86.578 335.271 86.722 335.883 86.722C336.495 86.722 337.053 86.578 337.557 86.29C338.073 85.99 338.481 85.564 338.781 85.012C339.081 84.448 339.231 83.794 339.231 83.05ZM347.842 83.032C347.842 82.024 348.046 81.142 348.454 80.386C348.862 79.618 349.42 79.024 350.128 78.604C350.848 78.184 351.652 77.974 352.54 77.974C353.308 77.974 354.022 78.154 354.682 78.514C355.342 78.862 355.846 79.324 356.194 79.9V74.68H357.85V88H356.194V86.146C355.87 86.734 355.39 87.22 354.754 87.604C354.118 87.976 353.374 88.162 352.522 88.162C351.646 88.162 350.848 87.946 350.128 87.514C349.42 87.082 348.862 86.476 348.454 85.696C348.046 84.916 347.842 84.028 347.842 83.032ZM356.194 83.05C356.194 82.306 356.044 81.658 355.744 81.106C355.444 80.554 355.036 80.134 354.52 79.846C354.016 79.546 353.458 79.396 352.846 79.396C352.234 79.396 351.676 79.54 351.172 79.828C350.668 80.116 350.266 80.536 349.966 81.088C349.666 81.64 349.516 82.288 349.516 83.032C349.516 83.788 349.666 84.448 349.966 85.012C350.266 85.564 350.668 85.99 351.172 86.29C351.676 86.578 352.234 86.722 352.846 86.722C353.458 86.722 354.016 86.578 354.52 86.29C355.036 85.99 355.444 85.564 355.744 85.012C356.044 84.448 356.194 83.794 356.194 83.05ZM369.618 82.69C369.618 83.002 369.6 83.332 369.564 83.68H361.68C361.74 84.652 362.07 85.414 362.67 85.966C363.282 86.506 364.02 86.776 364.884 86.776C365.592 86.776 366.18 86.614 366.648 86.29C367.128 85.954 367.464 85.51 367.656 84.958H369.42C369.156 85.906 368.628 86.68 367.836 87.28C367.044 87.868 366.06 88.162 364.884 88.162C363.948 88.162 363.108 87.952 362.364 87.532C361.632 87.112 361.056 86.518 360.636 85.75C360.216 84.97 360.006 84.07 360.006 83.05C360.006 82.03 360.21 81.136 360.618 80.368C361.026 79.6 361.596 79.012 362.328 78.604C363.072 78.184 363.924 77.974 364.884 77.974C365.82 77.974 366.648 78.178 367.368 78.586C368.088 78.994 368.64 79.558 369.024 80.278C369.42 80.986 369.618 81.79 369.618 82.69ZM367.926 82.348C367.926 81.724 367.788 81.19 367.512 80.746C367.236 80.29 366.858 79.948 366.378 79.72C365.91 79.48 365.388 79.36 364.812 79.36C363.984 79.36 363.276 79.624 362.688 80.152C362.112 80.68 361.782 81.412 361.698 82.348H367.926ZM373.419 79.954C373.743 79.39 374.223 78.922 374.859 78.55C375.507 78.166 376.257 77.974 377.109 77.974C377.985 77.974 378.777 78.184 379.485 78.604C380.205 79.024 380.769 79.618 381.177 80.386C381.585 81.142 381.789 82.024 381.789 83.032C381.789 84.028 381.585 84.916 381.177 85.696C380.769 86.476 380.205 87.082 379.485 87.514C378.777 87.946 377.985 88.162 377.109 88.162C376.269 88.162 375.525 87.976 374.877 87.604C374.241 87.22 373.755 86.746 373.419 86.182V92.68H371.781V78.136H373.419V79.954ZM380.115 83.032C380.115 82.288 379.965 81.64 379.665 81.088C379.365 80.536 378.957 80.116 378.441 79.828C377.937 79.54 377.379 79.396 376.767 79.396C376.167 79.396 375.609 79.546 375.093 79.846C374.589 80.134 374.181 80.56 373.869 81.124C373.569 81.676 373.419 82.318 373.419 83.05C373.419 83.794 373.569 84.448 373.869 85.012C374.181 85.564 374.589 85.99 375.093 86.29C375.609 86.578 376.167 86.722 376.767 86.722C377.379 86.722 377.937 86.578 378.441 86.29C378.957 85.99 379.365 85.564 379.665 85.012C379.965 84.448 380.115 83.788 380.115 83.032ZM392.945 82.69C392.945 83.002 392.927 83.332 392.891 83.68H385.007C385.067 84.652 385.397 85.414 385.997 85.966C386.609 86.506 387.347 86.776 388.211 86.776C388.919 86.776 389.507 86.614 389.975 86.29C390.455 85.954 390.791 85.51 390.983 84.958H392.747C392.483 85.906 391.955 86.68 391.163 87.28C390.371 87.868 389.387 88.162 388.211 88.162C387.275 88.162 386.435 87.952 385.691 87.532C384.959 87.112 384.383 86.518 383.963 85.75C383.543 84.97 383.333 84.07 383.333 83.05C383.333 82.03 383.537 81.136 383.945 80.368C384.353 79.6 384.923 79.012 385.655 78.604C386.399 78.184 387.251 77.974 388.211 77.974C389.147 77.974 389.975 78.178 390.695 78.586C391.415 78.994 391.967 79.558 392.351 80.278C392.747 80.986 392.945 81.79 392.945 82.69ZM391.253 82.348C391.253 81.724 391.115 81.19 390.839 80.746C390.563 80.29 390.185 79.948 389.705 79.72C389.237 79.48 388.715 79.36 388.139 79.36C387.311 79.36 386.603 79.624 386.015 80.152C385.439 80.68 385.109 81.412 385.025 82.348H391.253ZM399.913 77.956C401.113 77.956 402.085 78.322 402.829 79.054C403.573 79.774 403.945 80.818 403.945 82.186V88H402.325V82.42C402.325 81.436 402.079 80.686 401.587 80.17C401.095 79.642 400.423 79.378 399.571 79.378C398.707 79.378 398.017 79.648 397.501 80.188C396.997 80.728 396.745 81.514 396.745 82.546V88H395.107V78.136H396.745V79.54C397.069 79.036 397.507 78.646 398.059 78.37C398.623 78.094 399.241 77.956 399.913 77.956ZM406.008 83.032C406.008 82.024 406.212 81.142 406.62 80.386C407.028 79.618 407.586 79.024 408.294 78.604C409.014 78.184 409.818 77.974 410.706 77.974C411.474 77.974 412.188 78.154 412.848 78.514C413.508 78.862 414.012 79.324 414.36 79.9V74.68H416.016V88H414.36V86.146C414.036 86.734 413.556 87.22 412.92 87.604C412.284 87.976 411.54 88.162 410.688 88.162C409.812 88.162 409.014 87.946 408.294 87.514C407.586 87.082 407.028 86.476 406.62 85.696C406.212 84.916 406.008 84.028 406.008 83.032ZM414.36 83.05C414.36 82.306 414.21 81.658 413.91 81.106C413.61 80.554 413.202 80.134 412.686 79.846C412.182 79.546 411.624 79.396 411.012 79.396C410.4 79.396 409.842 79.54 409.338 79.828C408.834 80.116 408.432 80.536 408.132 81.088C407.832 81.64 407.682 82.288 407.682 83.032C407.682 83.788 407.832 84.448 408.132 85.012C408.432 85.564 408.834 85.99 409.338 86.29C409.842 86.578 410.4 86.722 411.012 86.722C411.624 86.722 412.182 86.578 412.686 86.29C413.202 85.99 413.61 85.564 413.91 85.012C414.21 84.448 414.36 83.794 414.36 83.05ZM418.172 83.032C418.172 82.024 418.376 81.142 418.784 80.386C419.192 79.618 419.75 79.024 420.458 78.604C421.178 78.184 421.976 77.974 422.852 77.974C423.716 77.974 424.466 78.16 425.102 78.532C425.738 78.904 426.212 79.372 426.524 79.936V78.136H428.18V88H426.524V86.164C426.2 86.74 425.714 87.22 425.066 87.604C424.43 87.976 423.686 88.162 422.834 88.162C421.958 88.162 421.166 87.946 420.458 87.514C419.75 87.082 419.192 86.476 418.784 85.696C418.376 84.916 418.172 84.028 418.172 83.032ZM426.524 83.05C426.524 82.306 426.374 81.658 426.074 81.106C425.774 80.554 425.366 80.134 424.85 79.846C424.346 79.546 423.788 79.396 423.176 79.396C422.564 79.396 422.006 79.54 421.502 79.828C420.998 80.116 420.596 80.536 420.296 81.088C419.996 81.64 419.846 82.288 419.846 83.032C419.846 83.788 419.996 84.448 420.296 85.012C420.596 85.564 420.998 85.99 421.502 86.29C422.006 86.578 422.564 86.722 423.176 86.722C423.788 86.722 424.346 86.578 424.85 86.29C425.366 85.99 425.774 85.564 426.074 85.012C426.374 84.448 426.524 83.794 426.524 83.05ZM432.587 79.972C432.923 79.384 433.415 78.904 434.062 78.532C434.711 78.16 435.449 77.974 436.277 77.974C437.165 77.974 437.963 78.184 438.671 78.604C439.379 79.024 439.937 79.618 440.345 80.386C440.753 81.142 440.957 82.024 440.957 83.032C440.957 84.028 440.753 84.916 440.345 85.696C439.937 86.476 439.372 87.082 438.652 87.514C437.945 87.946 437.153 88.162 436.277 88.162C435.425 88.162 434.675 87.976 434.027 87.604C433.391 87.232 432.911 86.758 432.587 86.182V88H430.949V74.68H432.587V79.972ZM439.283 83.032C439.283 82.288 439.133 81.64 438.833 81.088C438.533 80.536 438.125 80.116 437.609 79.828C437.105 79.54 436.547 79.396 435.935 79.396C435.335 79.396 434.777 79.546 434.261 79.846C433.757 80.134 433.349 80.56 433.037 81.124C432.737 81.676 432.587 82.318 432.587 83.05C432.587 83.794 432.737 84.448 433.037 85.012C433.349 85.564 433.757 85.99 434.261 86.29C434.777 86.578 435.335 86.722 435.935 86.722C436.547 86.722 437.105 86.578 437.609 86.29C438.125 85.99 438.533 85.564 438.833 85.012C439.133 84.448 439.283 83.788 439.283 83.032ZM444.751 74.68V88H443.113V74.68H444.751ZM456.542 82.69C456.542 83.002 456.524 83.332 456.488 83.68H448.604C448.664 84.652 448.994 85.414 449.594 85.966C450.206 86.506 450.944 86.776 451.808 86.776C452.516 86.776 453.104 86.614 453.572 86.29C454.052 85.954 454.388 85.51 454.58 84.958H456.344C456.08 85.906 455.552 86.68 454.76 87.28C453.968 87.868 452.984 88.162 451.808 88.162C450.872 88.162 450.032 87.952 449.288 87.532C448.556 87.112 447.98 86.518 447.56 85.75C447.14 84.97 446.93 84.07 446.93 83.05C446.93 82.03 447.134 81.136 447.542 80.368C447.95 79.6 448.52 79.012 449.252 78.604C449.996 78.184 450.848 77.974 451.808 77.974C452.744 77.974 453.572 78.178 454.292 78.586C455.012 78.994 455.564 79.558 455.948 80.278C456.344 80.986 456.542 81.79 456.542 82.69ZM454.85 82.348C454.85 81.724 454.712 81.19 454.436 80.746C454.16 80.29 453.782 79.948 453.302 79.72C452.834 79.48 452.312 79.36 451.736 79.36C450.908 79.36 450.2 79.624 449.612 80.152C449.036 80.68 448.706 81.412 448.622 82.348H454.85ZM465.501 79.486V85.3C465.501 85.78 465.603 86.122 465.807 86.326C466.011 86.518 466.365 86.614 466.869 86.614H468.075V88H466.599C465.687 88 465.003 87.79 464.547 87.37C464.091 86.95 463.863 86.26 463.863 85.3V79.486H462.585V78.136H463.863V75.652H465.501V78.136H468.075V79.486H465.501ZM479.06 82.69C479.06 83.002 479.042 83.332 479.006 83.68H471.122C471.182 84.652 471.512 85.414 472.112 85.966C472.724 86.506 473.462 86.776 474.326 86.776C475.034 86.776 475.622 86.614 476.09 86.29C476.57 85.954 476.906 85.51 477.098 84.958H478.862C478.598 85.906 478.07 86.68 477.278 87.28C476.486 87.868 475.502 88.162 474.326 88.162C473.39 88.162 472.55 87.952 471.806 87.532C471.074 87.112 470.498 86.518 470.078 85.75C469.658 84.97 469.448 84.07 469.448 83.05C469.448 82.03 469.652 81.136 470.06 80.368C470.468 79.6 471.038 79.012 471.77 78.604C472.514 78.184 473.366 77.974 474.326 77.974C475.262 77.974 476.09 78.178 476.81 78.586C477.53 78.994 478.082 79.558 478.466 80.278C478.862 80.986 479.06 81.79 479.06 82.69ZM477.368 82.348C477.368 81.724 477.23 81.19 476.954 80.746C476.678 80.29 476.3 79.948 475.82 79.72C475.352 79.48 474.83 79.36 474.254 79.36C473.426 79.36 472.718 79.624 472.13 80.152C471.554 80.68 471.224 81.412 471.14 82.348H477.368ZM480.61 83.032C480.61 82.024 480.814 81.142 481.222 80.386C481.63 79.618 482.188 79.024 482.896 78.604C483.616 78.184 484.414 77.974 485.29 77.974C486.154 77.974 486.904 78.16 487.54 78.532C488.176 78.904 488.65 79.372 488.962 79.936V78.136H490.618V88H488.962V86.164C488.638 86.74 488.152 87.22 487.504 87.604C486.868 87.976 486.124 88.162 485.272 88.162C484.396 88.162 483.604 87.946 482.896 87.514C482.188 87.082 481.63 86.476 481.222 85.696C480.814 84.916 480.61 84.028 480.61 83.032ZM488.962 83.05C488.962 82.306 488.812 81.658 488.512 81.106C488.212 80.554 487.804 80.134 487.288 79.846C486.784 79.546 486.226 79.396 485.614 79.396C485.002 79.396 484.444 79.54 483.94 79.828C483.436 80.116 483.034 80.536 482.734 81.088C482.434 81.64 482.284 82.288 482.284 83.032C482.284 83.788 482.434 84.448 482.734 85.012C483.034 85.564 483.436 85.99 483.94 86.29C484.444 86.578 485.002 86.722 485.614 86.722C486.226 86.722 486.784 86.578 487.288 86.29C487.804 85.99 488.212 85.564 488.512 85.012C488.812 84.448 488.962 83.794 488.962 83.05ZM505.248 77.956C506.016 77.956 506.7 78.118 507.3 78.442C507.9 78.754 508.374 79.228 508.722 79.864C509.07 80.5 509.244 81.274 509.244 82.186V88H507.624V82.42C507.624 81.436 507.378 80.686 506.886 80.17C506.406 79.642 505.752 79.378 504.924 79.378C504.072 79.378 503.394 79.654 502.89 80.206C502.386 80.746 502.134 81.532 502.134 82.564V88H500.514V82.42C500.514 81.436 500.268 80.686 499.776 80.17C499.296 79.642 498.642 79.378 497.814 79.378C496.962 79.378 496.284 79.654 495.78 80.206C495.276 80.746 495.024 81.532 495.024 82.564V88H493.386V78.136H495.024V79.558C495.348 79.042 495.78 78.646 496.32 78.37C496.872 78.094 497.478 77.956 498.138 77.956C498.966 77.956 499.698 78.142 500.334 78.514C500.97 78.886 501.444 79.432 501.756 80.152C502.032 79.456 502.488 78.916 503.124 78.532C503.76 78.148 504.468 77.956 505.248 77.956ZM521.032 88.162C520.108 88.162 519.268 87.952 518.512 87.532C517.768 87.112 517.18 86.518 516.748 85.75C516.328 84.97 516.118 84.07 516.118 83.05C516.118 82.042 516.334 81.154 516.766 80.386C517.21 79.606 517.81 79.012 518.566 78.604C519.322 78.184 520.168 77.974 521.104 77.974C522.04 77.974 522.886 78.184 523.642 78.604C524.398 79.012 524.992 79.6 525.424 80.368C525.868 81.136 526.09 82.03 526.09 83.05C526.09 84.07 525.862 84.97 525.406 85.75C524.962 86.518 524.356 87.112 523.588 87.532C522.82 87.952 521.968 88.162 521.032 88.162ZM521.032 86.722C521.62 86.722 522.172 86.584 522.688 86.308C523.204 86.032 523.618 85.618 523.93 85.066C524.254 84.514 524.416 83.842 524.416 83.05C524.416 82.258 524.26 81.586 523.948 81.034C523.636 80.482 523.228 80.074 522.724 79.81C522.22 79.534 521.674 79.396 521.086 79.396C520.486 79.396 519.934 79.534 519.43 79.81C518.938 80.074 518.542 80.482 518.242 81.034C517.942 81.586 517.792 82.258 517.792 83.05C517.792 83.854 517.936 84.532 518.224 85.084C518.524 85.636 518.92 86.05 519.412 86.326C519.904 86.59 520.444 86.722 521.032 86.722ZM532.257 79.486H530.187V88H528.549V79.486H527.271V78.136H528.549V77.434C528.549 76.33 528.831 75.526 529.395 75.022C529.971 74.506 530.889 74.248 532.149 74.248V75.616C531.429 75.616 530.919 75.76 530.619 76.048C530.331 76.324 530.187 76.786 530.187 77.434V78.136H532.257V79.486ZM552.106 78.136L549.028 88H547.336L544.96 80.17L542.584 88H540.892L537.796 78.136H539.47L541.738 86.416L544.186 78.136H545.86L548.254 86.434L550.486 78.136H552.106ZM558.034 88.162C557.11 88.162 556.27 87.952 555.514 87.532C554.77 87.112 554.182 86.518 553.75 85.75C553.33 84.97 553.12 84.07 553.12 83.05C553.12 82.042 553.336 81.154 553.768 80.386C554.212 79.606 554.812 79.012 555.568 78.604C556.324 78.184 557.17 77.974 558.106 77.974C559.042 77.974 559.888 78.184 560.644 78.604C561.4 79.012 561.994 79.6 562.426 80.368C562.87 81.136 563.092 82.03 563.092 83.05C563.092 84.07 562.864 84.97 562.408 85.75C561.964 86.518 561.358 87.112 560.59 87.532C559.822 87.952 558.97 88.162 558.034 88.162ZM558.034 86.722C558.622 86.722 559.174 86.584 559.69 86.308C560.206 86.032 560.62 85.618 560.932 85.066C561.256 84.514 561.418 83.842 561.418 83.05C561.418 82.258 561.262 81.586 560.95 81.034C560.638 80.482 560.23 80.074 559.726 79.81C559.222 79.534 558.676 79.396 558.088 79.396C557.488 79.396 556.936 79.534 556.432 79.81C555.94 80.074 555.544 80.482 555.244 81.034C554.944 81.586 554.794 82.258 554.794 83.05C554.794 83.854 554.938 84.532 555.226 85.084C555.526 85.636 555.922 86.05 556.414 86.326C556.906 86.59 557.446 86.722 558.034 86.722ZM566.883 79.738C567.171 79.174 567.579 78.736 568.107 78.424C568.647 78.112 569.301 77.956 570.069 77.956V79.648H569.637C567.801 79.648 566.883 80.644 566.883 82.636V88H565.245V78.136H566.883V79.738ZM577.468 88L573.598 83.644V88H571.96V74.68H573.598V82.51L577.396 78.136H579.682L575.038 83.05L579.7 88H577.468ZM590.224 82.69C590.224 83.002 590.206 83.332 590.17 83.68H582.286C582.346 84.652 582.676 85.414 583.276 85.966C583.888 86.506 584.626 86.776 585.49 86.776C586.198 86.776 586.786 86.614 587.254 86.29C587.734 85.954 588.07 85.51 588.262 84.958H590.026C589.762 85.906 589.234 86.68 588.442 87.28C587.65 87.868 586.666 88.162 585.49 88.162C584.554 88.162 583.714 87.952 582.97 87.532C582.238 87.112 581.662 86.518 581.242 85.75C580.822 84.97 580.612 84.07 580.612 83.05C580.612 82.03 580.816 81.136 581.224 80.368C581.632 79.6 582.202 79.012 582.934 78.604C583.678 78.184 584.53 77.974 585.49 77.974C586.426 77.974 587.254 78.178 587.974 78.586C588.694 78.994 589.246 79.558 589.63 80.278C590.026 80.986 590.224 81.79 590.224 82.69ZM588.532 82.348C588.532 81.724 588.394 81.19 588.118 80.746C587.842 80.29 587.464 79.948 586.984 79.72C586.516 79.48 585.994 79.36 585.418 79.36C584.59 79.36 583.882 79.624 583.294 80.152C582.718 80.68 582.388 81.412 582.304 82.348H588.532ZM594.024 79.738C594.312 79.174 594.72 78.736 595.248 78.424C595.788 78.112 596.442 77.956 597.21 77.956V79.648H596.778C594.942 79.648 594.024 80.644 594.024 82.636V88H592.386V78.136H594.024V79.738ZM602.593 88.162C601.837 88.162 601.159 88.036 600.559 87.784C599.959 87.52 599.485 87.16 599.137 86.704C598.789 86.236 598.597 85.702 598.561 85.102H600.253C600.301 85.594 600.529 85.996 600.937 86.308C601.357 86.62 601.903 86.776 602.575 86.776C603.199 86.776 603.691 86.638 604.051 86.362C604.411 86.086 604.591 85.738 604.591 85.318C604.591 84.886 604.399 84.568 604.015 84.364C603.631 84.148 603.037 83.938 602.233 83.734C601.501 83.542 600.901 83.35 600.433 83.158C599.977 82.954 599.581 82.66 599.245 82.276C598.921 81.88 598.759 81.364 598.759 80.728C598.759 80.224 598.909 79.762 599.209 79.342C599.509 78.922 599.935 78.592 600.487 78.352C601.039 78.1 601.669 77.974 602.377 77.974C603.469 77.974 604.351 78.25 605.023 78.802C605.695 79.354 606.055 80.11 606.103 81.07H604.465C604.429 80.554 604.219 80.14 603.835 79.828C603.463 79.516 602.959 79.36 602.323 79.36C601.735 79.36 601.267 79.486 600.919 79.738C600.571 79.99 600.397 80.32 600.397 80.728C600.397 81.052 600.499 81.322 600.703 81.538C600.919 81.742 601.183 81.91 601.495 82.042C601.819 82.162 602.263 82.3 602.827 82.456C603.535 82.648 604.111 82.84 604.555 83.032C604.999 83.212 605.377 83.488 605.689 83.86C606.013 84.232 606.181 84.718 606.193 85.318C606.193 85.858 606.043 86.344 605.743 86.776C605.443 87.208 605.017 87.55 604.465 87.802C603.925 88.042 603.301 88.162 602.593 88.162ZM609.027 88.108C608.715 88.108 608.451 88 608.235 87.784C608.019 87.568 607.911 87.304 607.911 86.992C607.911 86.68 608.019 86.416 608.235 86.2C608.451 85.984 608.715 85.876 609.027 85.876C609.327 85.876 609.579 85.984 609.783 86.2C609.999 86.416 610.107 86.68 610.107 86.992C610.107 87.304 609.999 87.568 609.783 87.784C609.579 88 609.327 88.108 609.027 88.108Z" fill="#FF4860"/>
<path d="M731 17H84V20H731V17Z" fill="#FF4860" fill-opacity="0.1"/>
<path d="M733 104H63V108H733V104Z" fill="#FF4860" fill-opacity="0.1"/>
<path d="M81.2153 26.6603C79.2732 22.9526 76.6248 19.598 73.2703 16.9497C69.9157 14.3014 66.0315 12.3592 61.4411 10.9468C56.8506 9.53434 51.907 8.82812 46.4338 8.82812C40.784 8.82812 35.6639 9.53434 30.8969 10.9468C26.1299 12.3592 21.8926 14.4779 18.1849 17.1262C14.6538 19.9511 11.6523 23.3057 9.71023 27.1899C7.59156 31.0741 6.53223 35.6646 6.53223 40.4316C6.53223 41.4909 6.53223 42.3737 6.70878 43.2565C6.70878 44.1393 6.88534 44.8455 6.88534 45.7283L7.23845 48.5532H38.3123L37.7826 45.022C37.7826 44.4924 37.606 44.1393 37.606 43.6096V41.844C37.606 40.6081 37.7826 39.3723 37.9591 38.1364C38.1357 37.2536 38.4888 36.3708 38.8419 35.6646C39.195 35.1349 39.7247 34.6052 40.4309 34.2521C41.1371 33.899 42.0199 33.7225 43.4324 33.7225C44.3151 33.7225 45.1979 33.899 45.9042 34.2521C46.6104 34.6052 47.3166 35.1349 47.6697 35.6646C48.1994 36.1943 48.5525 36.9005 48.729 37.6067C49.0821 38.4895 49.0822 39.1957 49.0822 40.0785C49.0822 41.4909 48.729 42.5503 48.1994 43.6096C47.4932 44.8455 46.4338 46.2579 45.3745 47.4938C44.1386 48.9063 42.7261 50.1422 41.3137 51.3781C39.7247 52.7905 38.3123 54.2029 36.8998 55.6154C35.4874 57.2044 34.2515 58.7934 33.1921 60.3824C32.1328 62.3245 31.4266 64.4432 31.4266 66.5618V79.2738H60.5583V70.4461C60.5583 70.0929 60.9114 69.5633 61.4411 69.0336C62.5004 67.9743 63.7363 66.9149 65.3253 65.6791C67.0908 64.4432 68.8564 63.0307 70.9751 61.6183C73.0937 60.0293 75.0358 58.0872 76.978 56.1451C78.9201 54.0264 80.5091 51.5546 81.745 49.0828C83.1574 46.2579 83.6871 43.0799 83.6871 39.5488C84.0402 34.7818 82.9809 30.5445 81.2153 26.6603Z" fill="#FF4860"/>
<path d="M61.2643 85.453H31.9561V113.349H61.2643V85.453Z" fill="#FF4860"/>
<path d="M46.6107 3.88422C52.6136 3.88422 58.0868 4.59045 63.0304 6.17945C67.9739 7.5919 72.2113 9.88713 75.7424 12.5355C79.2735 15.3604 81.9218 18.7149 83.864 22.5991C85.8061 26.4834 86.6889 30.8972 86.6889 35.6642C86.6889 39.1954 85.9826 42.3734 84.7467 45.0217C83.5108 47.8466 81.7453 50.3184 79.8032 52.437C77.8611 54.7323 75.7424 56.6744 73.4472 58.4399C71.1519 60.2055 69.0333 61.7945 66.9146 63.2069C64.9725 64.6194 63.2069 66.0318 61.9711 67.4443C60.5586 68.8567 59.8524 70.2692 59.8524 71.6816V78.0376H33.369V67.0912C33.369 65.3256 33.8987 63.5601 34.7815 61.7945C35.8408 60.2055 37.0767 58.4399 38.4891 56.8509C40.0781 55.2619 41.6671 53.6729 43.4327 52.2605C45.1983 50.6715 46.7873 49.0825 48.3763 47.4935C49.9653 45.9045 51.2012 44.1389 52.2605 42.1968C53.3198 40.4312 53.8495 38.3126 53.8495 36.1939C53.8495 34.7815 53.6729 33.369 53.1433 31.9566C52.6136 30.5441 51.9074 29.4848 51.0246 28.4255C50.1418 27.3661 49.0825 26.6599 47.67 25.9537C46.2576 25.2475 44.8451 25.0709 43.0796 25.0709C40.9609 25.0709 39.0188 25.424 37.7829 26.3068C36.3705 27.013 35.3111 28.0724 34.6049 29.4848C33.8987 30.7207 33.369 32.1331 33.0159 33.8987C32.8394 35.4877 32.6628 37.0767 32.6628 38.8423V40.9609C32.6628 41.4906 32.6628 42.1968 32.8394 42.7265H4.41389C4.23734 41.8437 4.23734 40.9609 4.06078 40.0781C3.88423 39.1954 3.88423 38.136 3.88423 37.0767C3.88423 31.9566 4.94356 27.3661 7.06223 23.3053C9.1809 19.2446 12.1823 15.7135 15.89 12.8886C19.5977 10.0637 24.1881 7.76846 29.4848 6.35602C34.7815 4.59046 40.4313 3.88422 46.6107 3.88422ZM46.6107 0C40.0781 0 33.8987 0.882768 28.4255 2.47177C22.7757 4.06077 17.8321 6.53256 13.5948 9.71056C9.35745 12.8886 6.00289 16.7728 3.70767 21.3633C1.23589 25.9537 0 31.2503 0 36.9001C0 38.136 6.70876e-07 39.1954 0.176556 40.2547C0.353112 41.1375 0.353113 42.1968 0.529669 43.2561L0.882779 46.4342H37.2533L36.7236 42.3734C36.7236 41.8437 36.547 41.314 36.547 40.7844V38.6657C36.547 37.2532 36.7236 35.8408 36.9001 34.4284C37.0767 33.369 37.4298 32.3097 37.9595 31.4269C38.3126 30.7207 39.0188 30.191 39.725 29.6614C40.4313 29.1317 41.6671 28.9551 43.2561 28.9551C44.3155 28.9551 45.3748 29.1317 46.081 29.4848C46.9638 29.8379 47.67 30.3676 48.1997 31.0738C48.7294 31.78 49.259 32.4862 49.4356 33.369C49.7887 34.2518 49.9653 35.3112 49.9653 36.3705C49.9653 37.9595 49.6122 39.3719 48.9059 40.6078C48.0232 42.1968 46.9638 43.6093 45.5514 45.1983C44.1389 46.7873 42.5499 48.3763 40.9609 49.7887C39.1954 51.3777 37.4298 52.9667 35.8408 54.7323C34.0753 56.4978 32.6628 58.4399 31.6035 60.382C30.191 62.6773 29.6614 64.9725 29.6614 67.6208V82.4515H63.7366V72.2113C63.7366 71.8582 64.0897 71.3285 64.6194 70.6223C65.8553 69.3864 67.4443 68.1505 69.2098 66.7381C71.1519 65.3256 73.4472 63.7366 75.7424 61.9711C78.2142 60.0289 80.5094 57.9103 82.6281 55.615C84.9233 53.1433 86.6889 50.3184 88.1013 47.3169C89.6903 44.1389 90.3965 40.4313 90.3965 36.1939C90.3965 30.7207 89.3372 25.7771 87.042 21.3633C84.9233 16.9494 81.7453 13.0651 77.8611 10.0637C73.9768 7.06222 69.3864 4.59044 63.9132 3.00144C58.793 0.882773 52.9667 0 46.6107 0Z" fill="#F22B45"/>
<path d="M60.2053 93.3979V118.292H33.5454V93.3979H60.2053ZM63.9129 89.5137H29.6611V122H64.0895V89.5137H63.9129Z" fill="#F22B45"/>
</svg>
