<svg width="733" height="122" viewBox="0 0 733 122" fill="none" xmlns="http://www.w3.org/2000/svg">
<path d="M421.943 51.248C423.975 49.616 425.567 48.28 426.719 47.24C427.871 46.184 428.839 45.088 429.623 43.952C430.423 42.8 430.823 41.672 430.823 40.568C430.823 39.528 430.567 38.712 430.055 38.12C429.559 37.512 428.751 37.208 427.631 37.208C426.543 37.208 425.695 37.552 425.087 38.24C424.495 38.912 424.175 39.816 424.127 40.952H422.015C422.079 39.16 422.623 37.776 423.647 36.8C424.671 35.824 425.991 35.336 427.607 35.336C429.255 35.336 430.559 35.792 431.519 36.704C432.495 37.616 432.983 38.872 432.983 40.472C432.983 41.8 432.583 43.096 431.783 44.36C430.999 45.608 430.103 46.712 429.095 47.672C428.087 48.616 426.799 49.72 425.231 50.984H433.487V52.808H421.943V51.248ZM435.483 49.136V47.48L443.907 35.816H446.523V47.24H448.923V49.136H446.523V53H444.363V49.136H435.483ZM444.459 38.096L438.003 47.24H444.459V38.096ZM459.625 30.392L453.049 57.08H450.889L457.441 30.392H459.625ZM473.199 37.352L466.527 53H464.319L471.087 37.568H461.823V35.696H473.199V37.352ZM492.267 49.28H484.971L483.627 53H481.323L487.371 36.368H489.891L495.915 53H493.611L492.267 49.28ZM491.643 47.504L488.619 39.056L485.595 47.504H491.643ZM503.207 53.216C502.199 53.216 501.295 53.048 500.495 52.712C499.695 52.36 499.063 51.88 498.599 51.272C498.135 50.648 497.879 49.936 497.831 49.136H500.087C500.151 49.792 500.455 50.328 500.999 50.744C501.559 51.16 502.287 51.368 503.183 51.368C504.015 51.368 504.671 51.184 505.151 50.816C505.631 50.448 505.871 49.984 505.871 49.424C505.871 48.848 505.615 48.424 505.103 48.152C504.591 47.864 503.799 47.584 502.727 47.312C501.751 47.056 500.951 46.8 500.327 46.544C499.719 46.272 499.191 45.88 498.743 45.368C498.311 44.84 498.095 44.152 498.095 43.304C498.095 42.632 498.295 42.016 498.695 41.456C499.095 40.896 499.663 40.456 500.399 40.136C501.135 39.8 501.975 39.632 502.919 39.632C504.375 39.632 505.551 40 506.447 40.736C507.343 41.472 507.823 42.48 507.887 43.76H505.703C505.655 43.072 505.375 42.52 504.863 42.104C504.367 41.688 503.695 41.48 502.847 41.48C502.063 41.48 501.439 41.648 500.975 41.984C500.511 42.32 500.279 42.76 500.279 43.304C500.279 43.736 500.415 44.096 500.687 44.384C500.975 44.656 501.327 44.88 501.743 45.056C502.175 45.216 502.767 45.4 503.519 45.608C504.463 45.864 505.231 46.12 505.823 46.376C506.415 46.616 506.919 46.984 507.335 47.48C507.767 47.976 507.991 48.624 508.007 49.424C508.007 50.144 507.807 50.792 507.407 51.368C507.007 51.944 506.439 52.4 505.703 52.736C504.983 53.056 504.151 53.216 503.207 53.216ZM515.746 53.216C514.738 53.216 513.834 53.048 513.034 52.712C512.234 52.36 511.602 51.88 511.138 51.272C510.674 50.648 510.418 49.936 510.37 49.136H512.626C512.69 49.792 512.994 50.328 513.538 50.744C514.098 51.16 514.826 51.368 515.722 51.368C516.554 51.368 517.21 51.184 517.69 50.816C518.17 50.448 518.41 49.984 518.41 49.424C518.41 48.848 518.154 48.424 517.642 48.152C517.13 47.864 516.338 47.584 515.266 47.312C514.29 47.056 513.49 46.8 512.866 46.544C512.258 46.272 511.73 45.88 511.282 45.368C510.85 44.84 510.634 44.152 510.634 43.304C510.634 42.632 510.834 42.016 511.234 41.456C511.634 40.896 512.202 40.456 512.938 40.136C513.674 39.8 514.514 39.632 515.458 39.632C516.914 39.632 518.09 40 518.986 40.736C519.882 41.472 520.362 42.48 520.426 43.76H518.242C518.194 43.072 517.914 42.52 517.402 42.104C516.906 41.688 516.234 41.48 515.386 41.48C514.602 41.48 513.978 41.648 513.514 41.984C513.05 42.32 512.818 42.76 512.818 43.304C512.818 43.736 512.954 44.096 513.226 44.384C513.514 44.656 513.866 44.88 514.282 45.056C514.714 45.216 515.306 45.4 516.058 45.608C517.002 45.864 517.77 46.12 518.362 46.376C518.954 46.616 519.458 46.984 519.874 47.48C520.306 47.976 520.53 48.624 520.546 49.424C520.546 50.144 520.346 50.792 519.946 51.368C519.546 51.944 518.978 52.4 518.242 52.736C517.522 53.056 516.69 53.216 515.746 53.216ZM524.757 37.712C524.341 37.712 523.989 37.568 523.701 37.28C523.413 36.992 523.269 36.64 523.269 36.224C523.269 35.808 523.413 35.456 523.701 35.168C523.989 34.88 524.341 34.736 524.757 34.736C525.157 34.736 525.493 34.88 525.765 35.168C526.053 35.456 526.197 35.808 526.197 36.224C526.197 36.64 526.053 36.992 525.765 37.28C525.493 37.568 525.157 37.712 524.757 37.712ZM525.813 39.848V53H523.629V39.848H525.813ZM534.192 53.216C533.184 53.216 532.28 53.048 531.48 52.712C530.68 52.36 530.048 51.88 529.584 51.272C529.12 50.648 528.864 49.936 528.816 49.136H531.072C531.136 49.792 531.44 50.328 531.984 50.744C532.544 51.16 533.272 51.368 534.168 51.368C535 51.368 535.656 51.184 536.136 50.816C536.616 50.448 536.856 49.984 536.856 49.424C536.856 48.848 536.6 48.424 536.088 48.152C535.576 47.864 534.784 47.584 533.712 47.312C532.736 47.056 531.936 46.8 531.312 46.544C530.704 46.272 530.176 45.88 529.728 45.368C529.296 44.84 529.08 44.152 529.08 43.304C529.08 42.632 529.28 42.016 529.68 41.456C530.08 40.896 530.648 40.456 531.384 40.136C532.12 39.8 532.96 39.632 533.904 39.632C535.36 39.632 536.536 40 537.432 40.736C538.328 41.472 538.808 42.48 538.872 43.76H536.688C536.64 43.072 536.36 42.52 535.848 42.104C535.352 41.688 534.68 41.48 533.832 41.48C533.048 41.48 532.424 41.648 531.96 41.984C531.496 42.32 531.264 42.76 531.264 43.304C531.264 43.736 531.4 44.096 531.672 44.384C531.96 44.656 532.312 44.88 532.728 45.056C533.16 45.216 533.752 45.4 534.504 45.608C535.448 45.864 536.216 46.12 536.808 46.376C537.4 46.616 537.904 46.984 538.32 47.48C538.752 47.976 538.976 48.624 538.992 49.424C538.992 50.144 538.792 50.792 538.392 51.368C537.992 51.944 537.424 52.4 536.688 52.736C535.968 53.056 535.136 53.216 534.192 53.216ZM544.739 41.648V49.4C544.739 50.04 544.875 50.496 545.147 50.768C545.419 51.024 545.891 51.152 546.563 51.152H548.171V53H546.203C544.987 53 544.075 52.72 543.467 52.16C542.859 51.6 542.555 50.68 542.555 49.4V41.648H540.851V39.848H542.555V36.536H544.739V39.848H548.171V41.648H544.739ZM550.001 46.376C550.001 45.032 550.273 43.856 550.817 42.848C551.361 41.824 552.105 41.032 553.049 40.472C554.009 39.912 555.073 39.632 556.241 39.632C557.393 39.632 558.393 39.88 559.241 40.376C560.089 40.872 560.721 41.496 561.137 42.248V39.848H563.345V53H561.137V50.552C560.705 51.32 560.057 51.96 559.193 52.472C558.345 52.968 557.353 53.216 556.217 53.216C555.049 53.216 553.993 52.928 553.049 52.352C552.105 51.776 551.361 50.968 550.817 49.928C550.273 48.888 550.001 47.704 550.001 46.376ZM561.137 46.4C561.137 45.408 560.937 44.544 560.537 43.808C560.137 43.072 559.593 42.512 558.905 42.128C558.233 41.728 557.489 41.528 556.673 41.528C555.857 41.528 555.113 41.72 554.441 42.104C553.769 42.488 553.233 43.048 552.833 43.784C552.433 44.52 552.233 45.384 552.233 46.376C552.233 47.384 552.433 48.264 552.833 49.016C553.233 49.752 553.769 50.32 554.441 50.72C555.113 51.104 555.857 51.296 556.673 51.296C557.489 51.296 558.233 51.104 558.905 50.72C559.593 50.32 560.137 49.752 560.537 49.016C560.937 48.264 561.137 47.392 561.137 46.4ZM573.444 39.608C575.044 39.608 576.34 40.096 577.332 41.072C578.324 42.032 578.82 43.424 578.82 45.248V53H576.66V45.56C576.66 44.248 576.332 43.248 575.676 42.56C575.02 41.856 574.124 41.504 572.988 41.504C571.836 41.504 570.916 41.864 570.228 42.584C569.556 43.304 569.22 44.352 569.22 45.728V53H567.036V39.848H569.22V41.72C569.652 41.048 570.236 40.528 570.972 40.16C571.724 39.792 572.548 39.608 573.444 39.608ZM581.571 46.4C581.571 45.04 581.843 43.856 582.387 42.848C582.931 41.824 583.683 41.032 584.643 40.472C585.619 39.912 586.731 39.632 587.979 39.632C589.595 39.632 590.923 40.024 591.963 40.808C593.019 41.592 593.715 42.68 594.051 44.072H591.699C591.475 43.272 591.035 42.64 590.379 42.176C589.739 41.712 588.939 41.48 587.979 41.48C586.731 41.48 585.723 41.912 584.955 42.776C584.187 43.624 583.803 44.832 583.803 46.4C583.803 47.984 584.187 49.208 584.955 50.072C585.723 50.936 586.731 51.368 587.979 51.368C588.939 51.368 589.739 51.144 590.379 50.696C591.019 50.248 591.459 49.608 591.699 48.776H594.051C593.699 50.12 592.995 51.2 591.939 52.016C590.883 52.816 589.563 53.216 587.979 53.216C586.731 53.216 585.619 52.936 584.643 52.376C583.683 51.816 582.931 51.024 582.387 50C581.843 48.976 581.571 47.776 581.571 46.4ZM608.965 45.92C608.965 46.336 608.941 46.776 608.893 47.24H598.381C598.461 48.536 598.901 49.552 599.701 50.288C600.517 51.008 601.501 51.368 602.653 51.368C603.597 51.368 604.381 51.152 605.005 50.72C605.645 50.272 606.093 49.68 606.349 48.944H608.701C608.349 50.208 607.645 51.24 606.589 52.04C605.533 52.824 604.221 53.216 602.653 53.216C601.405 53.216 600.285 52.936 599.293 52.376C598.317 51.816 597.549 51.024 596.989 50C596.429 48.96 596.149 47.76 596.149 46.4C596.149 45.04 596.421 43.848 596.965 42.824C597.509 41.8 598.269 41.016 599.245 40.472C600.237 39.912 601.373 39.632 602.653 39.632C603.901 39.632 605.005 39.904 605.965 40.448C606.925 40.992 607.661 41.744 608.173 42.704C608.701 43.648 608.965 44.72 608.965 45.92ZM606.709 45.464C606.709 44.632 606.525 43.92 606.157 43.328C605.789 42.72 605.285 42.264 604.645 41.96C604.021 41.64 603.325 41.48 602.557 41.48C601.453 41.48 600.509 41.832 599.725 42.536C598.957 43.24 598.517 44.216 598.405 45.464H606.709Z" fill="#00857D"/>
<path d="M275.175 88.126C274.347 88.126 273.603 87.982 272.943 87.694C272.295 87.394 271.785 86.986 271.413 86.47C271.041 85.942 270.849 85.336 270.837 84.652H272.583C272.643 85.24 272.883 85.738 273.303 86.146C273.735 86.542 274.359 86.74 275.175 86.74C275.955 86.74 276.567 86.548 277.011 86.164C277.467 85.768 277.695 85.264 277.695 84.652C277.695 84.172 277.563 83.782 277.299 83.482C277.035 83.182 276.705 82.954 276.309 82.798C275.913 82.642 275.379 82.474 274.707 82.294C273.879 82.078 273.213 81.862 272.709 81.646C272.217 81.43 271.791 81.094 271.431 80.638C271.083 80.17 270.909 79.546 270.909 78.766C270.909 78.082 271.083 77.476 271.431 76.948C271.779 76.42 272.265 76.012 272.889 75.724C273.525 75.436 274.251 75.292 275.067 75.292C276.243 75.292 277.203 75.586 277.947 76.174C278.703 76.762 279.129 77.542 279.225 78.514H277.425C277.365 78.034 277.113 77.614 276.669 77.254C276.225 76.882 275.637 76.696 274.905 76.696C274.221 76.696 273.663 76.876 273.231 77.236C272.799 77.584 272.583 78.076 272.583 78.712C272.583 79.168 272.709 79.54 272.961 79.828C273.225 80.116 273.543 80.338 273.915 80.494C274.299 80.638 274.833 80.806 275.517 80.998C276.345 81.226 277.011 81.454 277.515 81.682C278.019 81.898 278.451 82.24 278.811 82.708C279.171 83.164 279.351 83.788 279.351 84.58C279.351 85.192 279.189 85.768 278.865 86.308C278.541 86.848 278.061 87.286 277.425 87.622C276.789 87.958 276.039 88.126 275.175 88.126ZM293.623 77.956C294.391 77.956 295.075 78.118 295.675 78.442C296.275 78.754 296.749 79.228 297.097 79.864C297.445 80.5 297.619 81.274 297.619 82.186V88H295.999V82.42C295.999 81.436 295.753 80.686 295.261 80.17C294.781 79.642 294.127 79.378 293.299 79.378C292.447 79.378 291.769 79.654 291.265 80.206C290.761 80.746 290.509 81.532 290.509 82.564V88H288.889V82.42C288.889 81.436 288.643 80.686 288.151 80.17C287.671 79.642 287.017 79.378 286.189 79.378C285.337 79.378 284.659 79.654 284.155 80.206C283.651 80.746 283.399 81.532 283.399 82.564V88H281.761V78.136H283.399V79.558C283.723 79.042 284.155 78.646 284.695 78.37C285.247 78.094 285.853 77.956 286.513 77.956C287.341 77.956 288.073 78.142 288.709 78.514C289.345 78.886 289.819 79.432 290.131 80.152C290.407 79.456 290.863 78.916 291.499 78.532C292.135 78.148 292.843 77.956 293.623 77.956ZM304.608 88.162C303.684 88.162 302.844 87.952 302.088 87.532C301.344 87.112 300.756 86.518 300.324 85.75C299.904 84.97 299.694 84.07 299.694 83.05C299.694 82.042 299.91 81.154 300.342 80.386C300.786 79.606 301.386 79.012 302.142 78.604C302.898 78.184 303.744 77.974 304.68 77.974C305.616 77.974 306.462 78.184 307.218 78.604C307.974 79.012 308.568 79.6 309 80.368C309.444 81.136 309.666 82.03 309.666 83.05C309.666 84.07 309.438 84.97 308.982 85.75C308.538 86.518 307.932 87.112 307.164 87.532C306.396 87.952 305.544 88.162 304.608 88.162ZM304.608 86.722C305.196 86.722 305.748 86.584 306.264 86.308C306.78 86.032 307.194 85.618 307.506 85.066C307.83 84.514 307.992 83.842 307.992 83.05C307.992 82.258 307.836 81.586 307.524 81.034C307.212 80.482 306.804 80.074 306.3 79.81C305.796 79.534 305.25 79.396 304.662 79.396C304.062 79.396 303.51 79.534 303.006 79.81C302.514 80.074 302.118 80.482 301.818 81.034C301.518 81.586 301.368 82.258 301.368 83.05C301.368 83.854 301.512 84.532 301.8 85.084C302.1 85.636 302.496 86.05 302.988 86.326C303.48 86.59 304.02 86.722 304.608 86.722ZM316.122 88.162C315.198 88.162 314.358 87.952 313.602 87.532C312.858 87.112 312.27 86.518 311.838 85.75C311.418 84.97 311.208 84.07 311.208 83.05C311.208 82.042 311.424 81.154 311.856 80.386C312.3 79.606 312.9 79.012 313.656 78.604C314.412 78.184 315.258 77.974 316.194 77.974C317.13 77.974 317.976 78.184 318.732 78.604C319.488 79.012 320.082 79.6 320.514 80.368C320.958 81.136 321.18 82.03 321.18 83.05C321.18 84.07 320.952 84.97 320.496 85.75C320.052 86.518 319.446 87.112 318.678 87.532C317.91 87.952 317.058 88.162 316.122 88.162ZM316.122 86.722C316.71 86.722 317.262 86.584 317.778 86.308C318.294 86.032 318.708 85.618 319.02 85.066C319.344 84.514 319.506 83.842 319.506 83.05C319.506 82.258 319.35 81.586 319.038 81.034C318.726 80.482 318.318 80.074 317.814 79.81C317.31 79.534 316.764 79.396 316.176 79.396C315.576 79.396 315.024 79.534 314.52 79.81C314.028 80.074 313.632 80.482 313.332 81.034C313.032 81.586 312.882 82.258 312.882 83.05C312.882 83.854 313.026 84.532 313.314 85.084C313.614 85.636 314.01 86.05 314.502 86.326C314.994 86.59 315.534 86.722 316.122 86.722ZM325.331 79.486V85.3C325.331 85.78 325.433 86.122 325.637 86.326C325.841 86.518 326.195 86.614 326.699 86.614H327.905V88H326.429C325.517 88 324.833 87.79 324.377 87.37C323.921 86.95 323.693 86.26 323.693 85.3V79.486H322.415V78.136H323.693V75.652H325.331V78.136H327.905V79.486H325.331ZM334.786 77.956C335.53 77.956 336.202 78.118 336.802 78.442C337.402 78.754 337.87 79.228 338.206 79.864C338.554 80.5 338.728 81.274 338.728 82.186V88H337.108V82.42C337.108 81.436 336.862 80.686 336.37 80.17C335.878 79.642 335.206 79.378 334.354 79.378C333.49 79.378 332.8 79.648 332.284 80.188C331.78 80.728 331.528 81.514 331.528 82.546V88H329.89V74.68H331.528V79.54C331.852 79.036 332.296 78.646 332.86 78.37C333.436 78.094 334.078 77.956 334.786 77.956ZM353.618 85.21H348.146L347.138 88H345.41L349.946 75.526H351.836L356.354 88H354.626L353.618 85.21ZM353.15 83.878L350.882 77.542L348.614 83.878H353.15ZM362.003 86.488L365.063 78.136H366.809L362.939 88H361.031L357.161 78.136H358.925L362.003 86.488ZM367.809 83.032C367.809 82.024 368.013 81.142 368.421 80.386C368.829 79.618 369.387 79.024 370.095 78.604C370.815 78.184 371.613 77.974 372.489 77.974C373.353 77.974 374.103 78.16 374.739 78.532C375.375 78.904 375.849 79.372 376.161 79.936V78.136H377.817V88H376.161V86.164C375.837 86.74 375.351 87.22 374.703 87.604C374.067 87.976 373.323 88.162 372.471 88.162C371.595 88.162 370.803 87.946 370.095 87.514C369.387 87.082 368.829 86.476 368.421 85.696C368.013 84.916 367.809 84.028 367.809 83.032ZM376.161 83.05C376.161 82.306 376.011 81.658 375.711 81.106C375.411 80.554 375.003 80.134 374.487 79.846C373.983 79.546 373.425 79.396 372.813 79.396C372.201 79.396 371.643 79.54 371.139 79.828C370.635 80.116 370.233 80.536 369.933 81.088C369.633 81.64 369.483 82.288 369.483 83.032C369.483 83.788 369.633 84.448 369.933 85.012C370.233 85.564 370.635 85.99 371.139 86.29C371.643 86.578 372.201 86.722 372.813 86.722C373.425 86.722 373.983 86.578 374.487 86.29C375.003 85.99 375.411 85.564 375.711 85.012C376.011 84.448 376.161 83.794 376.161 83.05ZM381.431 76.534C381.119 76.534 380.855 76.426 380.639 76.21C380.423 75.994 380.315 75.73 380.315 75.418C380.315 75.106 380.423 74.842 380.639 74.626C380.855 74.41 381.119 74.302 381.431 74.302C381.731 74.302 381.983 74.41 382.187 74.626C382.403 74.842 382.511 75.106 382.511 75.418C382.511 75.73 382.403 75.994 382.187 76.21C381.983 76.426 381.731 76.534 381.431 76.534ZM382.223 78.136V88H380.585V78.136H382.223ZM386.653 74.68V88H385.015V74.68H386.653ZM388.833 83.032C388.833 82.024 389.037 81.142 389.445 80.386C389.853 79.618 390.411 79.024 391.119 78.604C391.839 78.184 392.637 77.974 393.513 77.974C394.377 77.974 395.127 78.16 395.763 78.532C396.399 78.904 396.873 79.372 397.185 79.936V78.136H398.841V88H397.185V86.164C396.861 86.74 396.375 87.22 395.727 87.604C395.091 87.976 394.347 88.162 393.495 88.162C392.619 88.162 391.827 87.946 391.119 87.514C390.411 87.082 389.853 86.476 389.445 85.696C389.037 84.916 388.833 84.028 388.833 83.032ZM397.185 83.05C397.185 82.306 397.035 81.658 396.735 81.106C396.435 80.554 396.027 80.134 395.511 79.846C395.007 79.546 394.449 79.396 393.837 79.396C393.225 79.396 392.667 79.54 392.163 79.828C391.659 80.116 391.257 80.536 390.957 81.088C390.657 81.64 390.507 82.288 390.507 83.032C390.507 83.788 390.657 84.448 390.957 85.012C391.257 85.564 391.659 85.99 392.163 86.29C392.667 86.578 393.225 86.722 393.837 86.722C394.449 86.722 395.007 86.578 395.511 86.29C396.027 85.99 396.435 85.564 396.735 85.012C397.035 84.448 397.185 83.794 397.185 83.05ZM403.247 79.972C403.583 79.384 404.075 78.904 404.723 78.532C405.371 78.16 406.109 77.974 406.937 77.974C407.825 77.974 408.623 78.184 409.331 78.604C410.039 79.024 410.597 79.618 411.005 80.386C411.413 81.142 411.617 82.024 411.617 83.032C411.617 84.028 411.413 84.916 411.005 85.696C410.597 86.476 410.033 87.082 409.313 87.514C408.605 87.946 407.813 88.162 406.937 88.162C406.085 88.162 405.335 87.976 404.687 87.604C404.051 87.232 403.571 86.758 403.247 86.182V88H401.609V74.68H403.247V79.972ZM409.943 83.032C409.943 82.288 409.793 81.64 409.493 81.088C409.193 80.536 408.785 80.116 408.269 79.828C407.765 79.54 407.207 79.396 406.595 79.396C405.995 79.396 405.437 79.546 404.921 79.846C404.417 80.134 404.009 80.56 403.697 81.124C403.397 81.676 403.247 82.318 403.247 83.05C403.247 83.794 403.397 84.448 403.697 85.012C404.009 85.564 404.417 85.99 404.921 86.29C405.437 86.578 405.995 86.722 406.595 86.722C407.207 86.722 407.765 86.578 408.269 86.29C408.785 85.99 409.193 85.564 409.493 85.012C409.793 84.448 409.943 83.788 409.943 83.032ZM414.619 76.534C414.307 76.534 414.043 76.426 413.827 76.21C413.611 75.994 413.503 75.73 413.503 75.418C413.503 75.106 413.611 74.842 413.827 74.626C414.043 74.41 414.307 74.302 414.619 74.302C414.919 74.302 415.171 74.41 415.375 74.626C415.591 74.842 415.699 75.106 415.699 75.418C415.699 75.73 415.591 75.994 415.375 76.21C415.171 76.426 414.919 76.534 414.619 76.534ZM415.411 78.136V88H413.773V78.136H415.411ZM419.84 74.68V88H418.202V74.68H419.84ZM423.478 76.534C423.166 76.534 422.902 76.426 422.686 76.21C422.47 75.994 422.362 75.73 422.362 75.418C422.362 75.106 422.47 74.842 422.686 74.626C422.902 74.41 423.166 74.302 423.478 74.302C423.778 74.302 424.03 74.41 424.234 74.626C424.45 74.842 424.558 75.106 424.558 75.418C424.558 75.73 424.45 75.994 424.234 76.21C424.03 76.426 423.778 76.534 423.478 76.534ZM424.27 78.136V88H422.632V78.136H424.27ZM429.06 79.486V85.3C429.06 85.78 429.162 86.122 429.366 86.326C429.57 86.518 429.924 86.614 430.428 86.614H431.634V88H430.158C429.246 88 428.562 87.79 428.106 87.37C427.65 86.95 427.422 86.26 427.422 85.3V79.486H426.144V78.136H427.422V75.652H429.06V78.136H431.634V79.486H429.06ZM442.114 78.136L436.174 92.644H434.482L436.426 87.892L432.448 78.136H434.266L437.362 86.128L440.422 78.136H442.114ZM452.538 88.126C451.71 88.126 450.966 87.982 450.306 87.694C449.658 87.394 449.148 86.986 448.776 86.47C448.404 85.942 448.212 85.336 448.2 84.652H449.946C450.006 85.24 450.246 85.738 450.666 86.146C451.098 86.542 451.722 86.74 452.538 86.74C453.318 86.74 453.93 86.548 454.374 86.164C454.83 85.768 455.058 85.264 455.058 84.652C455.058 84.172 454.926 83.782 454.662 83.482C454.398 83.182 454.068 82.954 453.672 82.798C453.276 82.642 452.742 82.474 452.07 82.294C451.242 82.078 450.576 81.862 450.072 81.646C449.58 81.43 449.154 81.094 448.794 80.638C448.446 80.17 448.272 79.546 448.272 78.766C448.272 78.082 448.446 77.476 448.794 76.948C449.142 76.42 449.628 76.012 450.252 75.724C450.888 75.436 451.614 75.292 452.43 75.292C453.606 75.292 454.566 75.586 455.31 76.174C456.066 76.762 456.492 77.542 456.588 78.514H454.788C454.728 78.034 454.476 77.614 454.032 77.254C453.588 76.882 453 76.696 452.268 76.696C451.584 76.696 451.026 76.876 450.594 77.236C450.162 77.584 449.946 78.076 449.946 78.712C449.946 79.168 450.072 79.54 450.324 79.828C450.588 80.116 450.906 80.338 451.278 80.494C451.662 80.638 452.196 80.806 452.88 80.998C453.708 81.226 454.374 81.454 454.878 81.682C455.382 81.898 455.814 82.24 456.174 82.708C456.534 83.164 456.714 83.788 456.714 84.58C456.714 85.192 456.552 85.768 456.228 86.308C455.904 86.848 455.424 87.286 454.788 87.622C454.152 87.958 453.402 88.126 452.538 88.126ZM460.762 79.954C461.086 79.39 461.566 78.922 462.202 78.55C462.85 78.166 463.6 77.974 464.452 77.974C465.328 77.974 466.12 78.184 466.828 78.604C467.548 79.024 468.112 79.618 468.52 80.386C468.928 81.142 469.132 82.024 469.132 83.032C469.132 84.028 468.928 84.916 468.52 85.696C468.112 86.476 467.548 87.082 466.828 87.514C466.12 87.946 465.328 88.162 464.452 88.162C463.612 88.162 462.868 87.976 462.22 87.604C461.584 87.22 461.098 86.746 460.762 86.182V92.68H459.124V78.136H460.762V79.954ZM467.458 83.032C467.458 82.288 467.308 81.64 467.008 81.088C466.708 80.536 466.3 80.116 465.784 79.828C465.28 79.54 464.722 79.396 464.11 79.396C463.51 79.396 462.952 79.546 462.436 79.846C461.932 80.134 461.524 80.56 461.212 81.124C460.912 81.676 460.762 82.318 460.762 83.05C460.762 83.794 460.912 84.448 461.212 85.012C461.524 85.564 461.932 85.99 462.436 86.29C462.952 86.578 463.51 86.722 464.11 86.722C464.722 86.722 465.28 86.578 465.784 86.29C466.3 85.99 466.708 85.564 467.008 85.012C467.308 84.448 467.458 83.788 467.458 83.032ZM476.184 77.956C476.928 77.956 477.6 78.118 478.2 78.442C478.8 78.754 479.268 79.228 479.604 79.864C479.952 80.5 480.126 81.274 480.126 82.186V88H478.506V82.42C478.506 81.436 478.26 80.686 477.768 80.17C477.276 79.642 476.604 79.378 475.752 79.378C474.888 79.378 474.198 79.648 473.682 80.188C473.178 80.728 472.926 81.514 472.926 82.546V88H471.288V74.68H472.926V79.54C473.25 79.036 473.694 78.646 474.258 78.37C474.834 78.094 475.476 77.956 476.184 77.956ZM491.802 82.69C491.802 83.002 491.784 83.332 491.748 83.68H483.864C483.924 84.652 484.254 85.414 484.854 85.966C485.466 86.506 486.204 86.776 487.068 86.776C487.776 86.776 488.364 86.614 488.832 86.29C489.312 85.954 489.648 85.51 489.84 84.958H491.604C491.34 85.906 490.812 86.68 490.02 87.28C489.228 87.868 488.244 88.162 487.068 88.162C486.132 88.162 485.292 87.952 484.548 87.532C483.816 87.112 483.24 86.518 482.82 85.75C482.4 84.97 482.19 84.07 482.19 83.05C482.19 82.03 482.394 81.136 482.802 80.368C483.21 79.6 483.78 79.012 484.512 78.604C485.256 78.184 486.108 77.974 487.068 77.974C488.004 77.974 488.832 78.178 489.552 78.586C490.272 78.994 490.824 79.558 491.208 80.278C491.604 80.986 491.802 81.79 491.802 82.69ZM490.11 82.348C490.11 81.724 489.972 81.19 489.696 80.746C489.42 80.29 489.042 79.948 488.562 79.72C488.094 79.48 487.572 79.36 486.996 79.36C486.168 79.36 485.46 79.624 484.872 80.152C484.296 80.68 483.966 81.412 483.882 82.348H490.11ZM495.602 79.738C495.89 79.174 496.298 78.736 496.826 78.424C497.366 78.112 498.02 77.956 498.788 77.956V79.648H498.356C496.52 79.648 495.602 80.644 495.602 82.636V88H493.964V78.136H495.602V79.738ZM501.525 76.534C501.213 76.534 500.949 76.426 500.733 76.21C500.517 75.994 500.409 75.73 500.409 75.418C500.409 75.106 500.517 74.842 500.733 74.626C500.949 74.41 501.213 74.302 501.525 74.302C501.825 74.302 502.077 74.41 502.281 74.626C502.497 74.842 502.605 75.106 502.605 75.418C502.605 75.73 502.497 75.994 502.281 76.21C502.077 76.426 501.825 76.534 501.525 76.534ZM502.317 78.136V88H500.679V78.136H502.317ZM504.497 83.05C504.497 82.03 504.701 81.142 505.109 80.386C505.517 79.618 506.081 79.024 506.801 78.604C507.533 78.184 508.367 77.974 509.303 77.974C510.515 77.974 511.511 78.268 512.291 78.856C513.083 79.444 513.605 80.26 513.857 81.304H512.093C511.925 80.704 511.595 80.23 511.103 79.882C510.623 79.534 510.023 79.36 509.303 79.36C508.367 79.36 507.611 79.684 507.035 80.332C506.459 80.968 506.171 81.874 506.171 83.05C506.171 84.238 506.459 85.156 507.035 85.804C507.611 86.452 508.367 86.776 509.303 86.776C510.023 86.776 510.623 86.608 511.103 86.272C511.583 85.936 511.913 85.456 512.093 84.832H513.857C513.593 85.84 513.065 86.65 512.273 87.262C511.481 87.862 510.491 88.162 509.303 88.162C508.367 88.162 507.533 87.952 506.801 87.532C506.081 87.112 505.517 86.518 505.109 85.75C504.701 84.982 504.497 84.082 504.497 83.05ZM515.43 83.032C515.43 82.024 515.634 81.142 516.042 80.386C516.45 79.618 517.008 79.024 517.716 78.604C518.436 78.184 519.234 77.974 520.11 77.974C520.974 77.974 521.724 78.16 522.36 78.532C522.996 78.904 523.47 79.372 523.782 79.936V78.136H525.438V88H523.782V86.164C523.458 86.74 522.972 87.22 522.324 87.604C521.688 87.976 520.944 88.162 520.092 88.162C519.216 88.162 518.424 87.946 517.716 87.514C517.008 87.082 516.45 86.476 516.042 85.696C515.634 84.916 515.43 84.028 515.43 83.032ZM523.782 83.05C523.782 82.306 523.632 81.658 523.332 81.106C523.032 80.554 522.624 80.134 522.108 79.846C521.604 79.546 521.046 79.396 520.434 79.396C519.822 79.396 519.264 79.54 518.76 79.828C518.256 80.116 517.854 80.536 517.554 81.088C517.254 81.64 517.104 82.288 517.104 83.032C517.104 83.788 517.254 84.448 517.554 85.012C517.854 85.564 518.256 85.99 518.76 86.29C519.264 86.578 519.822 86.722 520.434 86.722C521.046 86.722 521.604 86.578 522.108 86.29C522.624 85.99 523.032 85.564 523.332 85.012C523.632 84.448 523.782 83.794 523.782 83.05ZM529.844 74.68V88H528.206V74.68H529.844ZM539.433 79.486V85.3C539.433 85.78 539.535 86.122 539.739 86.326C539.943 86.518 540.297 86.614 540.801 86.614H542.007V88H540.531C539.619 88 538.935 87.79 538.479 87.37C538.023 86.95 537.795 86.26 537.795 85.3V79.486H536.517V78.136H537.795V75.652H539.433V78.136H542.007V79.486H539.433ZM548.887 77.956C549.631 77.956 550.303 78.118 550.903 78.442C551.503 78.754 551.971 79.228 552.307 79.864C552.655 80.5 552.829 81.274 552.829 82.186V88H551.209V82.42C551.209 81.436 550.963 80.686 550.471 80.17C549.979 79.642 549.307 79.378 548.455 79.378C547.591 79.378 546.901 79.648 546.385 80.188C545.881 80.728 545.629 81.514 545.629 82.546V88H543.991V74.68H545.629V79.54C545.953 79.036 546.397 78.646 546.961 78.37C547.537 78.094 548.179 77.956 548.887 77.956ZM564.505 82.69C564.505 83.002 564.487 83.332 564.451 83.68H556.567C556.627 84.652 556.957 85.414 557.557 85.966C558.169 86.506 558.907 86.776 559.771 86.776C560.479 86.776 561.067 86.614 561.535 86.29C562.015 85.954 562.351 85.51 562.543 84.958H564.307C564.043 85.906 563.515 86.68 562.723 87.28C561.931 87.868 560.947 88.162 559.771 88.162C558.835 88.162 557.995 87.952 557.251 87.532C556.519 87.112 555.943 86.518 555.523 85.75C555.103 84.97 554.893 84.07 554.893 83.05C554.893 82.03 555.097 81.136 555.505 80.368C555.913 79.6 556.483 79.012 557.215 78.604C557.959 78.184 558.811 77.974 559.771 77.974C560.707 77.974 561.535 78.178 562.255 78.586C562.975 78.994 563.527 79.558 563.911 80.278C564.307 80.986 564.505 81.79 564.505 82.69ZM562.813 82.348C562.813 81.724 562.675 81.19 562.399 80.746C562.123 80.29 561.745 79.948 561.265 79.72C560.797 79.48 560.275 79.36 559.699 79.36C558.871 79.36 558.163 79.624 557.575 80.152C556.999 80.68 556.669 81.412 556.585 82.348H562.813ZM573.104 74.68V88H571.466V74.68H573.104ZM580.198 88.162C579.274 88.162 578.434 87.952 577.678 87.532C576.934 87.112 576.346 86.518 575.914 85.75C575.494 84.97 575.284 84.07 575.284 83.05C575.284 82.042 575.5 81.154 575.932 80.386C576.376 79.606 576.976 79.012 577.732 78.604C578.488 78.184 579.334 77.974 580.27 77.974C581.206 77.974 582.052 78.184 582.808 78.604C583.564 79.012 584.158 79.6 584.59 80.368C585.034 81.136 585.256 82.03 585.256 83.05C585.256 84.07 585.028 84.97 584.572 85.75C584.128 86.518 583.522 87.112 582.754 87.532C581.986 87.952 581.134 88.162 580.198 88.162ZM580.198 86.722C580.786 86.722 581.338 86.584 581.854 86.308C582.37 86.032 582.784 85.618 583.096 85.066C583.42 84.514 583.582 83.842 583.582 83.05C583.582 82.258 583.426 81.586 583.114 81.034C582.802 80.482 582.394 80.074 581.89 79.81C581.386 79.534 580.84 79.396 580.252 79.396C579.652 79.396 579.1 79.534 578.596 79.81C578.104 80.074 577.708 80.482 577.408 81.034C577.108 81.586 576.958 82.258 576.958 83.05C576.958 83.854 577.102 84.532 577.39 85.084C577.69 85.636 578.086 86.05 578.578 86.326C579.07 86.59 579.61 86.722 580.198 86.722ZM586.797 83.05C586.797 82.03 587.001 81.142 587.409 80.386C587.817 79.618 588.381 79.024 589.101 78.604C589.833 78.184 590.667 77.974 591.603 77.974C592.815 77.974 593.811 78.268 594.591 78.856C595.383 79.444 595.905 80.26 596.157 81.304H594.393C594.225 80.704 593.895 80.23 593.403 79.882C592.923 79.534 592.323 79.36 591.603 79.36C590.667 79.36 589.911 79.684 589.335 80.332C588.759 80.968 588.471 81.874 588.471 83.05C588.471 84.238 588.759 85.156 589.335 85.804C589.911 86.452 590.667 86.776 591.603 86.776C592.323 86.776 592.923 86.608 593.403 86.272C593.883 85.936 594.213 85.456 594.393 84.832H596.157C595.893 85.84 595.365 86.65 594.573 87.262C593.781 87.862 592.791 88.162 591.603 88.162C590.667 88.162 589.833 87.952 589.101 87.532C588.381 87.112 587.817 86.518 587.409 85.75C587.001 84.982 586.797 84.082 586.797 83.05ZM603.851 88L599.981 83.644V88H598.343V74.68H599.981V82.51L603.779 78.136H606.065L601.421 83.05L606.083 88H603.851ZM608.129 88.108C607.817 88.108 607.553 88 607.337 87.784C607.121 87.568 607.013 87.304 607.013 86.992C607.013 86.68 607.121 86.416 607.337 86.2C607.553 85.984 607.817 85.876 608.129 85.876C608.429 85.876 608.681 85.984 608.885 86.2C609.101 86.416 609.209 86.68 609.209 86.992C609.209 87.304 609.101 87.568 608.885 87.784C608.681 88 608.429 88.108 608.129 88.108Z" fill="#00BC8F"/>
<path d="M650 17H0V21H650V17Z" fill="#00BC8F" fill-opacity="0.1"/>
<path d="M674 104H0V108H674V104Z" fill="#00BC8F" fill-opacity="0.1"/>
<path d="M723.052 26.6218C721.112 22.9195 718.468 19.5698 715.118 16.9253C711.769 14.2807 707.89 12.3414 703.306 10.931C698.722 9.52063 693.786 8.81543 688.321 8.81543C682.679 8.81543 677.566 9.52063 672.806 10.931C668.046 12.3414 663.815 14.457 660.112 17.1016C656.586 19.9224 653.589 23.2721 651.65 27.1507C649.534 31.0293 648.477 35.6131 648.477 40.3732C648.477 41.431 648.477 42.3125 648.653 43.194C648.653 44.0756 648.829 44.7807 648.829 45.6622L649.182 48.4831H680.211L679.682 44.9571C679.682 44.4282 679.505 44.0755 679.505 43.5466V41.7836C679.505 40.5495 679.682 39.3154 679.858 38.0813C680.034 37.1998 680.387 36.3183 680.74 35.6131C681.092 35.0842 681.621 34.5553 682.326 34.2027C683.031 33.8501 683.913 33.6738 685.323 33.6738C686.205 33.6738 687.086 33.8501 687.792 34.2027C688.497 34.5553 689.202 35.0842 689.555 35.6131C690.084 36.142 690.436 36.8472 690.612 37.5524C690.965 38.4339 690.965 39.1391 690.965 40.0206C690.965 41.431 690.612 42.4888 690.084 43.5466C689.378 44.7807 688.32 46.1911 687.263 47.4253C686.029 48.8357 684.618 50.0698 683.208 51.3039C681.621 52.7143 680.211 54.1247 678.8 55.5351C677.39 57.1218 676.156 58.7085 675.098 60.2952C674.04 62.2345 673.335 64.3501 673.335 66.4657V79.1594H702.425V70.3443C702.425 69.9917 702.777 69.4628 703.306 68.9339C704.364 67.8761 705.598 66.8183 707.185 65.5842C708.948 64.3501 710.711 62.9397 712.826 61.5293C714.942 59.9426 716.881 58.0033 718.82 56.064C720.76 53.9484 722.347 51.4802 723.581 49.012C724.991 46.1912 725.52 43.0177 725.52 39.4917C725.873 34.7316 724.991 30.5004 723.052 26.6218Z" fill="#00BC8F"/>
<path d="M703.13 85.3301H673.864V113.186H703.13V85.3301Z" fill="#00BC8F"/>
<path d="M688.673 3.87861C694.667 3.87861 700.133 4.58382 705.069 6.17052C710.006 7.58092 714.237 9.87283 717.763 12.5173C721.289 15.3381 723.933 18.6879 725.873 22.5665C727.812 26.4451 728.693 30.8526 728.693 35.6127C728.693 39.1387 727.988 42.3121 726.754 44.9566C725.52 47.6012 723.757 50.2457 721.818 52.3613C719.878 54.6532 717.763 56.5925 715.471 58.3555C713.179 60.1185 711.063 61.7052 708.948 63.1156C707.009 64.526 705.245 65.9364 704.011 67.3468C702.601 68.7572 701.896 70.1676 701.896 71.578V77.9249H675.627V66.9942C675.627 65.2312 676.156 63.4682 677.037 61.7052C678.095 60.1185 679.329 58.3555 680.74 56.7688C682.326 55.1821 683.913 53.5954 685.676 52.185C687.439 50.5983 689.026 49.0116 690.613 47.4248C692.199 45.8381 693.433 44.0751 694.491 42.1358C695.549 40.3728 696.078 38.2572 696.078 36.1416C696.078 34.7312 695.902 33.3208 695.373 31.9104C694.844 30.5 694.139 29.4422 693.257 28.3844C692.376 27.3266 691.318 26.6214 689.907 25.9162C688.497 25.211 687.087 25.0347 685.324 25.0347C683.208 25.0347 681.269 25.3873 680.035 26.2688C678.624 26.974 677.566 28.0318 676.861 29.4422C676.156 30.6763 675.627 32.0867 675.274 33.8497C675.098 35.4364 674.922 37.0231 674.922 38.7861V40.9017C674.922 41.4306 674.922 42.1358 675.098 42.6647H646.714C646.537 41.7832 646.537 40.9017 646.361 40.0202C646.185 39.1387 646.185 38.0809 646.185 37.0231C646.185 31.9104 647.243 27.3266 649.358 23.2717C651.474 19.2168 654.471 15.6908 658.173 12.8699C661.876 10.0491 666.459 7.75722 671.748 6.34682C676.685 4.58381 682.503 3.87861 688.673 3.87861ZM688.673 0C682.15 0 675.98 0.881506 670.514 2.46821C664.873 4.05492 659.936 6.52312 655.705 9.69653C651.474 12.8699 648.124 16.7486 645.832 21.3324C643.364 25.9162 642.13 31.2052 642.13 36.8468C642.13 38.0809 642.13 39.1387 642.306 40.1965C642.482 41.078 642.482 42.1358 642.659 43.1936L643.011 46.3671H679.329L678.8 42.3121C678.8 41.7832 678.624 41.2543 678.624 40.7254V38.6098C678.624 37.1994 678.8 35.789 678.977 34.3786C679.153 33.3208 679.506 32.263 680.035 31.3815C680.387 30.6763 681.092 30.1474 681.798 29.6185C682.503 29.0896 683.737 28.9133 685.324 28.9133C686.381 28.9133 687.439 29.0896 688.144 29.4422C689.026 29.7948 689.731 30.3237 690.26 31.0289C690.789 31.7341 691.318 32.4393 691.494 33.3208C691.847 34.2023 692.023 35.2601 692.023 36.3179C692.023 37.9046 691.67 39.315 690.965 40.5491C690.084 42.1358 689.026 43.5463 687.615 45.133C686.205 46.7197 684.618 48.3064 683.032 49.7168C681.269 51.3035 679.506 52.8902 677.919 54.6532C676.156 56.4162 674.745 58.3555 673.688 60.2948C672.277 62.5867 671.748 64.8786 671.748 67.5231V82.3324H705.774V72.1069C705.774 71.7543 706.127 71.2254 706.656 70.5202C707.89 69.2861 709.477 68.052 711.24 66.6416C713.179 65.2312 715.471 63.6445 717.763 61.8815C720.231 59.9422 722.523 57.8266 724.639 55.5347C726.93 53.0665 728.693 50.2457 730.104 47.2486C731.691 44.0752 732.396 40.3728 732.396 36.1416C732.396 30.6763 731.338 25.7399 729.046 21.3324C726.93 16.9249 723.757 13.0462 719.878 10.0491C716 7.05202 711.416 4.58381 705.951 2.9971C700.838 0.881497 694.844 0 688.673 0Z" fill="#00857D"/>
<path d="M702.072 93.2628V118.121H675.451V93.2628H702.072ZM705.951 89.5605H671.572V122H705.951V89.5605Z" fill="#00857D"/>
</svg>
