<svg width="733" height="122" viewBox="0 0 733 122" fill="none" xmlns="http://www.w3.org/2000/svg">
<path d="M405.588 53.168C404.036 53.168 402.62 52.808 401.34 52.088C400.06 51.352 399.044 50.336 398.292 49.04C397.556 47.728 397.188 46.256 397.188 44.624C397.188 42.992 397.556 41.528 398.292 40.232C399.044 38.92 400.06 37.904 401.34 37.184C402.62 36.448 404.036 36.08 405.588 36.08C407.156 36.08 408.58 36.448 409.86 37.184C411.14 37.904 412.148 38.912 412.884 40.208C413.62 41.504 413.988 42.976 413.988 44.624C413.988 46.272 413.62 47.744 412.884 49.04C412.148 50.336 411.14 51.352 409.86 52.088C408.58 52.808 407.156 53.168 405.588 53.168ZM405.588 51.272C406.756 51.272 407.804 51 408.732 50.456C409.676 49.912 410.412 49.136 410.94 48.128C411.484 47.12 411.756 45.952 411.756 44.624C411.756 43.28 411.484 42.112 410.94 41.12C410.412 40.112 409.684 39.336 408.756 38.792C407.828 38.248 406.772 37.976 405.588 37.976C404.404 37.976 403.348 38.248 402.42 38.792C401.492 39.336 400.756 40.112 400.212 41.12C399.684 42.112 399.42 43.28 399.42 44.624C399.42 45.952 399.684 47.12 400.212 48.128C400.756 49.136 401.492 49.912 402.42 50.456C403.364 51 404.42 51.272 405.588 51.272ZM423.279 39.608C424.879 39.608 426.175 40.096 427.167 41.072C428.159 42.032 428.655 43.424 428.655 45.248V53H426.495V45.56C426.495 44.248 426.167 43.248 425.511 42.56C424.855 41.856 423.959 41.504 422.823 41.504C421.671 41.504 420.751 41.864 420.063 42.584C419.391 43.304 419.055 44.352 419.055 45.728V53H416.871V39.848H419.055V41.72C419.487 41.048 420.071 40.528 420.807 40.16C421.559 39.792 422.383 39.608 423.279 39.608ZM444.223 45.92C444.223 46.336 444.199 46.776 444.151 47.24H433.639C433.719 48.536 434.159 49.552 434.959 50.288C435.775 51.008 436.759 51.368 437.911 51.368C438.855 51.368 439.639 51.152 440.263 50.72C440.903 50.272 441.351 49.68 441.607 48.944H443.959C443.607 50.208 442.903 51.24 441.847 52.04C440.791 52.824 439.479 53.216 437.911 53.216C436.663 53.216 435.543 52.936 434.551 52.376C433.575 51.816 432.807 51.024 432.247 50C431.687 48.96 431.407 47.76 431.407 46.4C431.407 45.04 431.679 43.848 432.223 42.824C432.767 41.8 433.527 41.016 434.503 40.472C435.495 39.912 436.631 39.632 437.911 39.632C439.159 39.632 440.263 39.904 441.223 40.448C442.183 40.992 442.919 41.744 443.431 42.704C443.959 43.648 444.223 44.72 444.223 45.92ZM441.967 45.464C441.967 44.632 441.783 43.92 441.415 43.328C441.047 42.72 440.543 42.264 439.903 41.96C439.279 41.64 438.583 41.48 437.815 41.48C436.711 41.48 435.767 41.832 434.983 42.536C434.215 43.24 433.775 44.216 433.663 45.464H441.967ZM455.688 42.272C456.12 41.52 456.76 40.896 457.608 40.4C458.472 39.888 459.472 39.632 460.608 39.632C461.776 39.632 462.832 39.912 463.776 40.472C464.736 41.032 465.488 41.824 466.032 42.848C466.576 43.856 466.848 45.032 466.848 46.376C466.848 47.704 466.576 48.888 466.032 49.928C465.488 50.968 464.736 51.776 463.776 52.352C462.832 52.928 461.776 53.216 460.608 53.216C459.488 53.216 458.496 52.968 457.632 52.472C456.784 51.96 456.136 51.328 455.688 50.576V59.24H453.504V39.848H455.688V42.272ZM464.616 46.376C464.616 45.384 464.416 44.52 464.016 43.784C463.616 43.048 463.072 42.488 462.384 42.104C461.712 41.72 460.968 41.528 460.152 41.528C459.352 41.528 458.608 41.728 457.92 42.128C457.248 42.512 456.704 43.08 456.288 43.832C455.888 44.568 455.688 45.424 455.688 46.4C455.688 47.392 455.888 48.264 456.288 49.016C456.704 49.752 457.248 50.32 457.92 50.72C458.608 51.104 459.352 51.296 460.152 51.296C460.968 51.296 461.712 51.104 462.384 50.72C463.072 50.32 463.616 49.752 464.016 49.016C464.416 48.264 464.616 47.384 464.616 46.376ZM471.907 41.984C472.291 41.232 472.835 40.648 473.539 40.232C474.259 39.816 475.131 39.608 476.155 39.608V41.864H475.579C473.131 41.864 471.907 43.192 471.907 45.848V53H469.723V39.848H471.907V41.984ZM490.676 45.92C490.676 46.336 490.652 46.776 490.604 47.24H480.092C480.172 48.536 480.612 49.552 481.412 50.288C482.228 51.008 483.212 51.368 484.364 51.368C485.308 51.368 486.092 51.152 486.716 50.72C487.356 50.272 487.804 49.68 488.06 48.944H490.412C490.06 50.208 489.356 51.24 488.3 52.04C487.244 52.824 485.932 53.216 484.364 53.216C483.116 53.216 481.996 52.936 481.004 52.376C480.028 51.816 479.26 51.024 478.7 50C478.14 48.96 477.86 47.76 477.86 46.4C477.86 45.04 478.132 43.848 478.676 42.824C479.22 41.8 479.98 41.016 480.956 40.472C481.948 39.912 483.084 39.632 484.364 39.632C485.612 39.632 486.716 39.904 487.676 40.448C488.636 40.992 489.372 41.744 489.884 42.704C490.412 43.648 490.676 44.72 490.676 45.92ZM488.42 45.464C488.42 44.632 488.236 43.92 487.868 43.328C487.5 42.72 486.996 42.264 486.356 41.96C485.732 41.64 485.036 41.48 484.268 41.48C483.164 41.48 482.22 41.832 481.436 42.536C480.668 43.24 480.228 44.216 480.116 45.464H488.42ZM498.455 50.984L502.535 39.848H504.863L499.703 53H497.159L491.999 39.848H494.351L498.455 50.984ZM519.012 45.92C519.012 46.336 518.988 46.776 518.94 47.24H508.428C508.508 48.536 508.948 49.552 509.748 50.288C510.564 51.008 511.548 51.368 512.7 51.368C513.644 51.368 514.428 51.152 515.052 50.72C515.692 50.272 516.14 49.68 516.396 48.944H518.748C518.396 50.208 517.692 51.24 516.636 52.04C515.58 52.824 514.268 53.216 512.7 53.216C511.452 53.216 510.332 52.936 509.34 52.376C508.364 51.816 507.596 51.024 507.036 50C506.476 48.96 506.196 47.76 506.196 46.4C506.196 45.04 506.468 43.848 507.012 42.824C507.556 41.8 508.316 41.016 509.292 40.472C510.284 39.912 511.42 39.632 512.7 39.632C513.948 39.632 515.052 39.904 516.012 40.448C516.972 40.992 517.708 41.744 518.22 42.704C518.748 43.648 519.012 44.72 519.012 45.92ZM516.756 45.464C516.756 44.632 516.572 43.92 516.204 43.328C515.836 42.72 515.332 42.264 514.692 41.96C514.068 41.64 513.372 41.48 512.604 41.48C511.5 41.48 510.556 41.832 509.772 42.536C509.004 43.24 508.564 44.216 508.452 45.464H516.756ZM528.303 39.608C529.903 39.608 531.199 40.096 532.191 41.072C533.183 42.032 533.679 43.424 533.679 45.248V53H531.519V45.56C531.519 44.248 531.191 43.248 530.535 42.56C529.879 41.856 528.983 41.504 527.847 41.504C526.695 41.504 525.775 41.864 525.087 42.584C524.415 43.304 524.079 44.352 524.079 45.728V53H521.895V39.848H524.079V41.72C524.511 41.048 525.095 40.528 525.831 40.16C526.583 39.792 527.407 39.608 528.303 39.608ZM539.91 41.648V49.4C539.91 50.04 540.046 50.496 540.318 50.768C540.59 51.024 541.062 51.152 541.734 51.152H543.342V53H541.374C540.158 53 539.246 52.72 538.638 52.16C538.03 51.6 537.726 50.68 537.726 49.4V41.648H536.022V39.848H537.726V36.536H539.91V39.848H543.342V41.648H539.91ZM557.043 53.216C556.035 53.216 555.131 53.048 554.331 52.712C553.531 52.36 552.899 51.88 552.435 51.272C551.971 50.648 551.715 49.936 551.667 49.136H553.923C553.987 49.792 554.291 50.328 554.835 50.744C555.395 51.16 556.123 51.368 557.019 51.368C557.851 51.368 558.507 51.184 558.987 50.816C559.467 50.448 559.707 49.984 559.707 49.424C559.707 48.848 559.451 48.424 558.939 48.152C558.427 47.864 557.635 47.584 556.563 47.312C555.587 47.056 554.787 46.8 554.163 46.544C553.555 46.272 553.027 45.88 552.579 45.368C552.147 44.84 551.931 44.152 551.931 43.304C551.931 42.632 552.131 42.016 552.531 41.456C552.931 40.896 553.499 40.456 554.235 40.136C554.971 39.8 555.811 39.632 556.755 39.632C558.211 39.632 559.387 40 560.283 40.736C561.179 41.472 561.659 42.48 561.723 43.76H559.539C559.491 43.072 559.211 42.52 558.699 42.104C558.203 41.688 557.531 41.48 556.683 41.48C555.899 41.48 555.275 41.648 554.811 41.984C554.347 42.32 554.115 42.76 554.115 43.304C554.115 43.736 554.251 44.096 554.523 44.384C554.811 44.656 555.163 44.88 555.579 45.056C556.011 45.216 556.603 45.4 557.355 45.608C558.299 45.864 559.067 46.12 559.659 46.376C560.251 46.616 560.755 46.984 561.171 47.48C561.603 47.976 561.827 48.624 561.843 49.424C561.843 50.144 561.643 50.792 561.243 51.368C560.843 51.944 560.275 52.4 559.539 52.736C558.819 53.056 557.987 53.216 557.043 53.216ZM571.454 39.608C572.446 39.608 573.342 39.824 574.142 40.256C574.942 40.672 575.566 41.304 576.014 42.152C576.478 43 576.71 44.032 576.71 45.248V53H574.55V45.56C574.55 44.248 574.222 43.248 573.566 42.56C572.91 41.856 572.014 41.504 570.878 41.504C569.726 41.504 568.806 41.864 568.118 42.584C567.446 43.304 567.11 44.352 567.11 45.728V53H564.926V35.24H567.11V41.72C567.542 41.048 568.134 40.528 568.886 40.16C569.654 39.792 570.51 39.608 571.454 39.608ZM586.014 53.216C584.782 53.216 583.662 52.936 582.654 52.376C581.662 51.816 580.878 51.024 580.302 50C579.742 48.96 579.462 47.76 579.462 46.4C579.462 45.056 579.75 43.872 580.326 42.848C580.918 41.808 581.718 41.016 582.726 40.472C583.734 39.912 584.862 39.632 586.11 39.632C587.358 39.632 588.486 39.912 589.494 40.472C590.502 41.016 591.294 41.8 591.87 42.824C592.462 43.848 592.758 45.04 592.758 46.4C592.758 47.76 592.454 48.96 591.846 50C591.254 51.024 590.446 51.816 589.422 52.376C588.398 52.936 587.262 53.216 586.014 53.216ZM586.014 51.296C586.798 51.296 587.534 51.112 588.222 50.744C588.91 50.376 589.462 49.824 589.878 49.088C590.31 48.352 590.526 47.456 590.526 46.4C590.526 45.344 590.318 44.448 589.902 43.712C589.486 42.976 588.942 42.432 588.27 42.08C587.598 41.712 586.87 41.528 586.086 41.528C585.286 41.528 584.55 41.712 583.878 42.08C583.222 42.432 582.694 42.976 582.294 43.712C581.894 44.448 581.694 45.344 581.694 46.4C581.694 47.472 581.886 48.376 582.27 49.112C582.67 49.848 583.198 50.4 583.854 50.768C584.51 51.12 585.23 51.296 586.014 51.296ZM597.813 42.272C598.245 41.52 598.885 40.896 599.733 40.4C600.597 39.888 601.597 39.632 602.733 39.632C603.901 39.632 604.957 39.912 605.901 40.472C606.861 41.032 607.613 41.824 608.157 42.848C608.701 43.856 608.973 45.032 608.973 46.376C608.973 47.704 608.701 48.888 608.157 49.928C607.613 50.968 606.861 51.776 605.901 52.352C604.957 52.928 603.901 53.216 602.733 53.216C601.613 53.216 600.621 52.968 599.757 52.472C598.909 51.96 598.261 51.328 597.813 50.576V59.24H595.629V39.848H597.813V42.272ZM606.741 46.376C606.741 45.384 606.541 44.52 606.141 43.784C605.741 43.048 605.197 42.488 604.509 42.104C603.837 41.72 603.093 41.528 602.277 41.528C601.477 41.528 600.733 41.728 600.045 42.128C599.373 42.512 598.829 43.08 598.413 43.832C598.013 44.568 597.813 45.424 597.813 46.4C597.813 47.392 598.013 48.264 598.413 49.016C598.829 49.752 599.373 50.32 600.045 50.72C600.733 51.104 601.477 51.296 602.277 51.296C603.093 51.296 603.837 51.104 604.509 50.72C605.197 50.32 605.741 49.752 606.141 49.016C606.541 48.264 606.741 47.384 606.741 46.376Z" fill="#3FA2DB"/>
<path d="M23.8 85.21H18.328L17.32 88H15.592L20.128 75.526H22.018L26.536 88H24.808L23.8 85.21ZM23.332 83.878L21.064 77.542L18.796 83.878H23.332ZM30.151 74.68V88H28.513V74.68H30.151ZM34.5806 74.68V88H32.9426V74.68H34.5806ZM45.6632 88.162C44.9072 88.162 44.2292 88.036 43.6292 87.784C43.0292 87.52 42.5552 87.16 42.2072 86.704C41.8592 86.236 41.6672 85.702 41.6312 85.102H43.3232C43.3712 85.594 43.5992 85.996 44.0072 86.308C44.4272 86.62 44.9732 86.776 45.6452 86.776C46.2692 86.776 46.7612 86.638 47.1212 86.362C47.4812 86.086 47.6612 85.738 47.6612 85.318C47.6612 84.886 47.4692 84.568 47.0852 84.364C46.7012 84.148 46.1072 83.938 45.3032 83.734C44.5712 83.542 43.9712 83.35 43.5032 83.158C43.0472 82.954 42.6512 82.66 42.3152 82.276C41.9912 81.88 41.8292 81.364 41.8292 80.728C41.8292 80.224 41.9792 79.762 42.2792 79.342C42.5792 78.922 43.0052 78.592 43.5572 78.352C44.1092 78.1 44.7392 77.974 45.4472 77.974C46.5392 77.974 47.4212 78.25 48.0932 78.802C48.7652 79.354 49.1252 80.11 49.1732 81.07H47.5352C47.4992 80.554 47.2892 80.14 46.9052 79.828C46.5332 79.516 46.0292 79.36 45.3932 79.36C44.8052 79.36 44.3372 79.486 43.9892 79.738C43.6412 79.99 43.4672 80.32 43.4672 80.728C43.4672 81.052 43.5692 81.322 43.7732 81.538C43.9892 81.742 44.2532 81.91 44.5652 82.042C44.8892 82.162 45.3332 82.3 45.8972 82.456C46.6052 82.648 47.1812 82.84 47.6252 83.032C48.0692 83.212 48.4472 83.488 48.7592 83.86C49.0832 84.232 49.2512 84.718 49.2632 85.318C49.2632 85.858 49.1132 86.344 48.8132 86.776C48.5132 87.208 48.0872 87.55 47.5352 87.802C46.9952 88.042 46.3712 88.162 45.6632 88.162ZM55.8775 88.162C54.9535 88.162 54.1135 87.952 53.3575 87.532C52.6135 87.112 52.0255 86.518 51.5935 85.75C51.1735 84.97 50.9635 84.07 50.9635 83.05C50.9635 82.042 51.1795 81.154 51.6115 80.386C52.0555 79.606 52.6555 79.012 53.4115 78.604C54.1675 78.184 55.0135 77.974 55.9495 77.974C56.8855 77.974 57.7315 78.184 58.4875 78.604C59.2435 79.012 59.8375 79.6 60.2695 80.368C60.7135 81.136 60.9355 82.03 60.9355 83.05C60.9355 84.07 60.7075 84.97 60.2515 85.75C59.8075 86.518 59.2015 87.112 58.4335 87.532C57.6655 87.952 56.8135 88.162 55.8775 88.162ZM55.8775 86.722C56.4655 86.722 57.0175 86.584 57.5335 86.308C58.0495 86.032 58.4635 85.618 58.7755 85.066C59.0995 84.514 59.2615 83.842 59.2615 83.05C59.2615 82.258 59.1055 81.586 58.7935 81.034C58.4815 80.482 58.0735 80.074 57.5695 79.81C57.0655 79.534 56.5195 79.396 55.9315 79.396C55.3315 79.396 54.7795 79.534 54.2755 79.81C53.7835 80.074 53.3875 80.482 53.0875 81.034C52.7875 81.586 52.6375 82.258 52.6375 83.05C52.6375 83.854 52.7815 84.532 53.0695 85.084C53.3695 85.636 53.7655 86.05 54.2575 86.326C54.7495 86.59 55.2895 86.722 55.8775 86.722ZM64.7271 79.738C65.0151 79.174 65.4231 78.736 65.9511 78.424C66.4911 78.112 67.1451 77.956 67.9131 77.956V79.648H67.4811C65.6451 79.648 64.7271 80.644 64.7271 82.636V88H63.0891V78.136H64.7271V79.738ZM71.802 79.486V85.3C71.802 85.78 71.904 86.122 72.108 86.326C72.312 86.518 72.666 86.614 73.17 86.614H74.376V88H72.9C71.988 88 71.304 87.79 70.848 87.37C70.392 86.95 70.164 86.26 70.164 85.3V79.486H68.886V78.136H70.164V75.652H71.802V78.136H74.376V79.486H71.802ZM79.8526 88.162C79.0966 88.162 78.4186 88.036 77.8186 87.784C77.2186 87.52 76.7446 87.16 76.3966 86.704C76.0486 86.236 75.8566 85.702 75.8206 85.102H77.5126C77.5606 85.594 77.7886 85.996 78.1966 86.308C78.6166 86.62 79.1626 86.776 79.8346 86.776C80.4586 86.776 80.9506 86.638 81.3106 86.362C81.6706 86.086 81.8506 85.738 81.8506 85.318C81.8506 84.886 81.6586 84.568 81.2746 84.364C80.8906 84.148 80.2966 83.938 79.4926 83.734C78.7606 83.542 78.1606 83.35 77.6926 83.158C77.2366 82.954 76.8406 82.66 76.5046 82.276C76.1806 81.88 76.0186 81.364 76.0186 80.728C76.0186 80.224 76.1686 79.762 76.4686 79.342C76.7686 78.922 77.1946 78.592 77.7466 78.352C78.2986 78.1 78.9286 77.974 79.6366 77.974C80.7286 77.974 81.6106 78.25 82.2826 78.802C82.9546 79.354 83.3146 80.11 83.3626 81.07H81.7246C81.6886 80.554 81.4786 80.14 81.0946 79.828C80.7226 79.516 80.2186 79.36 79.5826 79.36C78.9946 79.36 78.5266 79.486 78.1786 79.738C77.8306 79.99 77.6566 80.32 77.6566 80.728C77.6566 81.052 77.7586 81.322 77.9626 81.538C78.1786 81.742 78.4426 81.91 78.7546 82.042C79.0786 82.162 79.5226 82.3 80.0866 82.456C80.7946 82.648 81.3706 82.84 81.8146 83.032C82.2586 83.212 82.6366 83.488 82.9486 83.86C83.2726 84.232 83.4406 84.718 83.4526 85.318C83.4526 85.858 83.3026 86.344 83.0026 86.776C82.7026 87.208 82.2766 87.55 81.7246 87.802C81.1846 88.042 80.5606 88.162 79.8526 88.162ZM94.8657 88.162C93.9417 88.162 93.1017 87.952 92.3457 87.532C91.6017 87.112 91.0137 86.518 90.5817 85.75C90.1617 84.97 89.9517 84.07 89.9517 83.05C89.9517 82.042 90.1677 81.154 90.5997 80.386C91.0437 79.606 91.6437 79.012 92.3997 78.604C93.1557 78.184 94.0017 77.974 94.9377 77.974C95.8737 77.974 96.7197 78.184 97.4757 78.604C98.2317 79.012 98.8257 79.6 99.2577 80.368C99.7017 81.136 99.9237 82.03 99.9237 83.05C99.9237 84.07 99.6957 84.97 99.2397 85.75C98.7957 86.518 98.1897 87.112 97.4217 87.532C96.6537 87.952 95.8017 88.162 94.8657 88.162ZM94.8657 86.722C95.4537 86.722 96.0057 86.584 96.5217 86.308C97.0377 86.032 97.4517 85.618 97.7637 85.066C98.0877 84.514 98.2497 83.842 98.2497 83.05C98.2497 82.258 98.0937 81.586 97.7817 81.034C97.4697 80.482 97.0617 80.074 96.5577 79.81C96.0537 79.534 95.5077 79.396 94.9197 79.396C94.3197 79.396 93.7677 79.534 93.2637 79.81C92.7717 80.074 92.3757 80.482 92.0757 81.034C91.7757 81.586 91.6257 82.258 91.6257 83.05C91.6257 83.854 91.7697 84.532 92.0577 85.084C92.3577 85.636 92.7537 86.05 93.2457 86.326C93.7377 86.59 94.2777 86.722 94.8657 86.722ZM106.091 79.486H104.021V88H102.383V79.486H101.105V78.136H102.383V77.434C102.383 76.33 102.665 75.526 103.229 75.022C103.805 74.506 104.723 74.248 105.983 74.248V75.616C105.263 75.616 104.753 75.76 104.453 76.048C104.165 76.324 104.021 76.786 104.021 77.434V78.136H106.091V79.486ZM122.466 75.454V88H120.828V82.312H114.438V88H112.8V75.454H114.438V80.962H120.828V75.454H122.466ZM129.565 88.162C128.641 88.162 127.801 87.952 127.045 87.532C126.301 87.112 125.713 86.518 125.281 85.75C124.861 84.97 124.651 84.07 124.651 83.05C124.651 82.042 124.867 81.154 125.299 80.386C125.743 79.606 126.343 79.012 127.099 78.604C127.855 78.184 128.701 77.974 129.637 77.974C130.573 77.974 131.419 78.184 132.175 78.604C132.931 79.012 133.525 79.6 133.957 80.368C134.401 81.136 134.623 82.03 134.623 83.05C134.623 84.07 134.395 84.97 133.939 85.75C133.495 86.518 132.889 87.112 132.121 87.532C131.353 87.952 130.501 88.162 129.565 88.162ZM129.565 86.722C130.153 86.722 130.705 86.584 131.221 86.308C131.737 86.032 132.151 85.618 132.463 85.066C132.787 84.514 132.949 83.842 132.949 83.05C132.949 82.258 132.793 81.586 132.481 81.034C132.169 80.482 131.761 80.074 131.257 79.81C130.753 79.534 130.207 79.396 129.619 79.396C129.019 79.396 128.467 79.534 127.963 79.81C127.471 80.074 127.075 80.482 126.775 81.034C126.475 81.586 126.325 82.258 126.325 83.05C126.325 83.854 126.469 84.532 126.757 85.084C127.057 85.636 127.453 86.05 127.945 86.326C128.437 86.59 128.977 86.722 129.565 86.722ZM148.639 77.956C149.407 77.956 150.091 78.118 150.691 78.442C151.291 78.754 151.765 79.228 152.113 79.864C152.461 80.5 152.635 81.274 152.635 82.186V88H151.015V82.42C151.015 81.436 150.769 80.686 150.277 80.17C149.797 79.642 149.143 79.378 148.315 79.378C147.463 79.378 146.785 79.654 146.281 80.206C145.777 80.746 145.525 81.532 145.525 82.564V88H143.905V82.42C143.905 81.436 143.659 80.686 143.167 80.17C142.687 79.642 142.033 79.378 141.205 79.378C140.353 79.378 139.675 79.654 139.171 80.206C138.667 80.746 138.415 81.532 138.415 82.564V88H136.777V78.136H138.415V79.558C138.739 79.042 139.171 78.646 139.711 78.37C140.263 78.094 140.869 77.956 141.529 77.956C142.357 77.956 143.089 78.142 143.725 78.514C144.361 78.886 144.835 79.432 145.147 80.152C145.423 79.456 145.879 78.916 146.515 78.532C147.151 78.148 147.859 77.956 148.639 77.956ZM164.322 82.69C164.322 83.002 164.304 83.332 164.268 83.68H156.384C156.444 84.652 156.774 85.414 157.374 85.966C157.986 86.506 158.724 86.776 159.588 86.776C160.296 86.776 160.884 86.614 161.352 86.29C161.832 85.954 162.168 85.51 162.36 84.958H164.124C163.86 85.906 163.332 86.68 162.54 87.28C161.748 87.868 160.764 88.162 159.588 88.162C158.652 88.162 157.812 87.952 157.068 87.532C156.336 87.112 155.76 86.518 155.34 85.75C154.92 84.97 154.71 84.07 154.71 83.05C154.71 82.03 154.914 81.136 155.322 80.368C155.73 79.6 156.3 79.012 157.032 78.604C157.776 78.184 158.628 77.974 159.588 77.974C160.524 77.974 161.352 78.178 162.072 78.586C162.792 78.994 163.344 79.558 163.728 80.278C164.124 80.986 164.322 81.79 164.322 82.69ZM162.63 82.348C162.63 81.724 162.492 81.19 162.216 80.746C161.94 80.29 161.562 79.948 161.082 79.72C160.614 79.48 160.092 79.36 159.516 79.36C158.688 79.36 157.98 79.624 157.392 80.152C156.816 80.68 156.486 81.412 156.402 82.348H162.63ZM173.09 88L170.102 82.87H168.122V88H166.484V75.454H170.534C171.482 75.454 172.28 75.616 172.928 75.94C173.588 76.264 174.08 76.702 174.404 77.254C174.728 77.806 174.89 78.436 174.89 79.144C174.89 80.008 174.638 80.77 174.134 81.43C173.642 82.09 172.898 82.528 171.902 82.744L175.052 88H173.09ZM168.122 81.556H170.534C171.422 81.556 172.088 81.34 172.532 80.908C172.976 80.464 173.198 79.876 173.198 79.144C173.198 78.4 172.976 77.824 172.532 77.416C172.1 77.008 171.434 76.804 170.534 76.804H168.122V81.556ZM186.435 82.69C186.435 83.002 186.417 83.332 186.381 83.68H178.497C178.557 84.652 178.887 85.414 179.487 85.966C180.099 86.506 180.837 86.776 181.701 86.776C182.409 86.776 182.997 86.614 183.465 86.29C183.945 85.954 184.281 85.51 184.473 84.958H186.237C185.973 85.906 185.445 86.68 184.653 87.28C183.861 87.868 182.877 88.162 181.701 88.162C180.765 88.162 179.925 87.952 179.181 87.532C178.449 87.112 177.873 86.518 177.453 85.75C177.033 84.97 176.823 84.07 176.823 83.05C176.823 82.03 177.027 81.136 177.435 80.368C177.843 79.6 178.413 79.012 179.145 78.604C179.889 78.184 180.741 77.974 181.701 77.974C182.637 77.974 183.465 78.178 184.185 78.586C184.905 78.994 185.457 79.558 185.841 80.278C186.237 80.986 186.435 81.79 186.435 82.69ZM184.743 82.348C184.743 81.724 184.605 81.19 184.329 80.746C184.053 80.29 183.675 79.948 183.195 79.72C182.727 79.48 182.205 79.36 181.629 79.36C180.801 79.36 180.093 79.624 179.505 80.152C178.929 80.68 178.599 81.412 178.515 82.348H184.743ZM190.235 79.954C190.559 79.39 191.039 78.922 191.675 78.55C192.323 78.166 193.073 77.974 193.925 77.974C194.801 77.974 195.593 78.184 196.301 78.604C197.021 79.024 197.585 79.618 197.993 80.386C198.401 81.142 198.605 82.024 198.605 83.032C198.605 84.028 198.401 84.916 197.993 85.696C197.585 86.476 197.021 87.082 196.301 87.514C195.593 87.946 194.801 88.162 193.925 88.162C193.085 88.162 192.341 87.976 191.693 87.604C191.057 87.22 190.571 86.746 190.235 86.182V92.68H188.597V78.136H190.235V79.954ZM196.931 83.032C196.931 82.288 196.781 81.64 196.481 81.088C196.181 80.536 195.773 80.116 195.257 79.828C194.753 79.54 194.195 79.396 193.583 79.396C192.983 79.396 192.425 79.546 191.909 79.846C191.405 80.134 190.997 80.56 190.685 81.124C190.385 81.676 190.235 82.318 190.235 83.05C190.235 83.794 190.385 84.448 190.685 85.012C190.997 85.564 191.405 85.99 191.909 86.29C192.425 86.578 192.983 86.722 193.583 86.722C194.195 86.722 194.753 86.578 195.257 86.29C195.773 85.99 196.181 85.564 196.481 85.012C196.781 84.448 196.931 83.788 196.931 83.032ZM200.149 83.032C200.149 82.024 200.353 81.142 200.761 80.386C201.169 79.618 201.727 79.024 202.435 78.604C203.155 78.184 203.953 77.974 204.829 77.974C205.693 77.974 206.443 78.16 207.079 78.532C207.715 78.904 208.189 79.372 208.501 79.936V78.136H210.157V88H208.501V86.164C208.177 86.74 207.691 87.22 207.043 87.604C206.407 87.976 205.663 88.162 204.811 88.162C203.935 88.162 203.143 87.946 202.435 87.514C201.727 87.082 201.169 86.476 200.761 85.696C200.353 84.916 200.149 84.028 200.149 83.032ZM208.501 83.05C208.501 82.306 208.351 81.658 208.051 81.106C207.751 80.554 207.343 80.134 206.827 79.846C206.323 79.546 205.765 79.396 205.153 79.396C204.541 79.396 203.983 79.54 203.479 79.828C202.975 80.116 202.573 80.536 202.273 81.088C201.973 81.64 201.823 82.288 201.823 83.032C201.823 83.788 201.973 84.448 202.273 85.012C202.573 85.564 202.975 85.99 203.479 86.29C203.983 86.578 204.541 86.722 205.153 86.722C205.765 86.722 206.323 86.578 206.827 86.29C207.343 85.99 207.751 85.564 208.051 85.012C208.351 84.448 208.501 83.794 208.501 83.05ZM213.771 76.534C213.459 76.534 213.195 76.426 212.979 76.21C212.763 75.994 212.655 75.73 212.655 75.418C212.655 75.106 212.763 74.842 212.979 74.626C213.195 74.41 213.459 74.302 213.771 74.302C214.071 74.302 214.323 74.41 214.527 74.626C214.743 74.842 214.851 75.106 214.851 75.418C214.851 75.73 214.743 75.994 214.527 76.21C214.323 76.426 214.071 76.534 213.771 76.534ZM214.563 78.136V88H212.925V78.136H214.563ZM218.993 79.738C219.281 79.174 219.689 78.736 220.217 78.424C220.757 78.112 221.411 77.956 222.179 77.956V79.648H221.747C219.911 79.648 218.993 80.644 218.993 82.636V88H217.355V78.136H218.993V79.738ZM231.162 75.454V76.786H225.708V81.016H230.136V82.348H225.708V88H224.07V75.454H231.162ZM233.986 76.534C233.674 76.534 233.41 76.426 233.194 76.21C232.978 75.994 232.87 75.73 232.87 75.418C232.87 75.106 232.978 74.842 233.194 74.626C233.41 74.41 233.674 74.302 233.986 74.302C234.286 74.302 234.538 74.41 234.742 74.626C234.958 74.842 235.066 75.106 235.066 75.418C235.066 75.73 234.958 75.994 234.742 76.21C234.538 76.426 234.286 76.534 233.986 76.534ZM234.778 78.136V88H233.14V78.136H234.778ZM242.718 88L240.378 84.328L238.128 88H236.418L239.604 83.104L236.418 78.136H238.272L240.612 81.79L242.844 78.136H244.554L241.386 83.014L244.572 88H242.718ZM254.474 88.162C253.718 88.162 253.04 88.036 252.44 87.784C251.84 87.52 251.366 87.16 251.018 86.704C250.67 86.236 250.478 85.702 250.442 85.102H252.134C252.182 85.594 252.41 85.996 252.818 86.308C253.238 86.62 253.784 86.776 254.456 86.776C255.08 86.776 255.572 86.638 255.932 86.362C256.292 86.086 256.472 85.738 256.472 85.318C256.472 84.886 256.28 84.568 255.896 84.364C255.512 84.148 254.918 83.938 254.114 83.734C253.382 83.542 252.782 83.35 252.314 83.158C251.858 82.954 251.462 82.66 251.126 82.276C250.802 81.88 250.64 81.364 250.64 80.728C250.64 80.224 250.79 79.762 251.09 79.342C251.39 78.922 251.816 78.592 252.368 78.352C252.92 78.1 253.55 77.974 254.258 77.974C255.35 77.974 256.232 78.25 256.904 78.802C257.576 79.354 257.936 80.11 257.984 81.07H256.346C256.31 80.554 256.1 80.14 255.716 79.828C255.344 79.516 254.84 79.36 254.204 79.36C253.616 79.36 253.148 79.486 252.8 79.738C252.452 79.99 252.278 80.32 252.278 80.728C252.278 81.052 252.38 81.322 252.584 81.538C252.8 81.742 253.064 81.91 253.376 82.042C253.7 82.162 254.144 82.3 254.708 82.456C255.416 82.648 255.992 82.84 256.436 83.032C256.88 83.212 257.258 83.488 257.57 83.86C257.894 84.232 258.062 84.718 258.074 85.318C258.074 85.858 257.924 86.344 257.624 86.776C257.324 87.208 256.898 87.55 256.346 87.802C255.806 88.042 255.182 88.162 254.474 88.162ZM269.386 82.69C269.386 83.002 269.368 83.332 269.332 83.68H261.448C261.508 84.652 261.838 85.414 262.438 85.966C263.05 86.506 263.788 86.776 264.652 86.776C265.36 86.776 265.948 86.614 266.416 86.29C266.896 85.954 267.232 85.51 267.424 84.958H269.188C268.924 85.906 268.396 86.68 267.604 87.28C266.812 87.868 265.828 88.162 264.652 88.162C263.716 88.162 262.876 87.952 262.132 87.532C261.4 87.112 260.824 86.518 260.404 85.75C259.984 84.97 259.774 84.07 259.774 83.05C259.774 82.03 259.978 81.136 260.386 80.368C260.794 79.6 261.364 79.012 262.096 78.604C262.84 78.184 263.692 77.974 264.652 77.974C265.588 77.974 266.416 78.178 267.136 78.586C267.856 78.994 268.408 79.558 268.792 80.278C269.188 80.986 269.386 81.79 269.386 82.69ZM267.694 82.348C267.694 81.724 267.556 81.19 267.28 80.746C267.004 80.29 266.626 79.948 266.146 79.72C265.678 79.48 265.156 79.36 264.58 79.36C263.752 79.36 263.044 79.624 262.456 80.152C261.88 80.68 261.55 81.412 261.466 82.348H267.694ZM273.186 79.738C273.474 79.174 273.882 78.736 274.41 78.424C274.95 78.112 275.604 77.956 276.372 77.956V79.648H275.94C274.104 79.648 273.186 80.644 273.186 82.636V88H271.548V78.136H273.186V79.738ZM281.935 86.488L284.995 78.136H286.741L282.871 88H280.963L277.093 78.136H278.857L281.935 86.488ZM289.199 76.534C288.887 76.534 288.623 76.426 288.407 76.21C288.191 75.994 288.083 75.73 288.083 75.418C288.083 75.106 288.191 74.842 288.407 74.626C288.623 74.41 288.887 74.302 289.199 74.302C289.499 74.302 289.751 74.41 289.955 74.626C290.171 74.842 290.279 75.106 290.279 75.418C290.279 75.73 290.171 75.994 289.955 76.21C289.751 76.426 289.499 76.534 289.199 76.534ZM289.991 78.136V88H288.353V78.136H289.991ZM292.17 83.05C292.17 82.03 292.374 81.142 292.782 80.386C293.19 79.618 293.754 79.024 294.474 78.604C295.206 78.184 296.04 77.974 296.976 77.974C298.188 77.974 299.184 78.268 299.964 78.856C300.756 79.444 301.278 80.26 301.53 81.304H299.766C299.598 80.704 299.268 80.23 298.776 79.882C298.296 79.534 297.696 79.36 296.976 79.36C296.04 79.36 295.284 79.684 294.708 80.332C294.132 80.968 293.844 81.874 293.844 83.05C293.844 84.238 294.132 85.156 294.708 85.804C295.284 86.452 296.04 86.776 296.976 86.776C297.696 86.776 298.296 86.608 298.776 86.272C299.256 85.936 299.586 85.456 299.766 84.832H301.53C301.266 85.84 300.738 86.65 299.946 87.262C299.154 87.862 298.164 88.162 296.976 88.162C296.04 88.162 295.206 87.952 294.474 87.532C293.754 87.112 293.19 86.518 292.782 85.75C292.374 84.982 292.17 84.082 292.17 83.05ZM312.716 82.69C312.716 83.002 312.698 83.332 312.662 83.68H304.778C304.838 84.652 305.168 85.414 305.768 85.966C306.38 86.506 307.118 86.776 307.982 86.776C308.69 86.776 309.278 86.614 309.746 86.29C310.226 85.954 310.562 85.51 310.754 84.958H312.518C312.254 85.906 311.726 86.68 310.934 87.28C310.142 87.868 309.158 88.162 307.982 88.162C307.046 88.162 306.206 87.952 305.462 87.532C304.73 87.112 304.154 86.518 303.734 85.75C303.314 84.97 303.104 84.07 303.104 83.05C303.104 82.03 303.308 81.136 303.716 80.368C304.124 79.6 304.694 79.012 305.426 78.604C306.17 78.184 307.022 77.974 307.982 77.974C308.918 77.974 309.746 78.178 310.466 78.586C311.186 78.994 311.738 79.558 312.122 80.278C312.518 80.986 312.716 81.79 312.716 82.69ZM311.024 82.348C311.024 81.724 310.886 81.19 310.61 80.746C310.334 80.29 309.956 79.948 309.476 79.72C309.008 79.48 308.486 79.36 307.91 79.36C307.082 79.36 306.374 79.624 305.786 80.152C305.21 80.68 304.88 81.412 304.796 82.348H311.024ZM318.37 88.162C317.614 88.162 316.936 88.036 316.336 87.784C315.736 87.52 315.262 87.16 314.914 86.704C314.566 86.236 314.374 85.702 314.338 85.102H316.03C316.078 85.594 316.306 85.996 316.714 86.308C317.134 86.62 317.68 86.776 318.352 86.776C318.976 86.776 319.468 86.638 319.828 86.362C320.188 86.086 320.368 85.738 320.368 85.318C320.368 84.886 320.176 84.568 319.792 84.364C319.408 84.148 318.814 83.938 318.01 83.734C317.278 83.542 316.678 83.35 316.21 83.158C315.754 82.954 315.358 82.66 315.022 82.276C314.698 81.88 314.536 81.364 314.536 80.728C314.536 80.224 314.686 79.762 314.986 79.342C315.286 78.922 315.712 78.592 316.264 78.352C316.816 78.1 317.446 77.974 318.154 77.974C319.246 77.974 320.128 78.25 320.8 78.802C321.472 79.354 321.832 80.11 321.88 81.07H320.242C320.206 80.554 319.996 80.14 319.612 79.828C319.24 79.516 318.736 79.36 318.1 79.36C317.512 79.36 317.044 79.486 316.696 79.738C316.348 79.99 316.174 80.32 316.174 80.728C316.174 81.052 316.276 81.322 316.48 81.538C316.696 81.742 316.96 81.91 317.272 82.042C317.596 82.162 318.04 82.3 318.604 82.456C319.312 82.648 319.888 82.84 320.332 83.032C320.776 83.212 321.154 83.488 321.466 83.86C321.79 84.232 321.958 84.718 321.97 85.318C321.97 85.858 321.82 86.344 321.52 86.776C321.22 87.208 320.794 87.55 320.242 87.802C319.702 88.042 319.078 88.162 318.37 88.162ZM328.469 83.032C328.469 82.024 328.673 81.142 329.081 80.386C329.489 79.618 330.047 79.024 330.755 78.604C331.475 78.184 332.273 77.974 333.149 77.974C334.013 77.974 334.763 78.16 335.399 78.532C336.035 78.904 336.509 79.372 336.821 79.936V78.136H338.477V88H336.821V86.164C336.497 86.74 336.011 87.22 335.363 87.604C334.727 87.976 333.983 88.162 333.131 88.162C332.255 88.162 331.463 87.946 330.755 87.514C330.047 87.082 329.489 86.476 329.081 85.696C328.673 84.916 328.469 84.028 328.469 83.032ZM336.821 83.05C336.821 82.306 336.671 81.658 336.371 81.106C336.071 80.554 335.663 80.134 335.147 79.846C334.643 79.546 334.085 79.396 333.473 79.396C332.861 79.396 332.303 79.54 331.799 79.828C331.295 80.116 330.893 80.536 330.593 81.088C330.293 81.64 330.143 82.288 330.143 83.032C330.143 83.788 330.293 84.448 330.593 85.012C330.893 85.564 331.295 85.99 331.799 86.29C332.303 86.578 332.861 86.722 333.473 86.722C334.085 86.722 334.643 86.578 335.147 86.29C335.663 85.99 336.071 85.564 336.371 85.012C336.671 84.448 336.821 83.794 336.821 83.05ZM342.883 79.738C343.171 79.174 343.579 78.736 344.107 78.424C344.647 78.112 345.301 77.956 346.069 77.956V79.648H345.637C343.801 79.648 342.883 80.644 342.883 82.636V88H341.245V78.136H342.883V79.738ZM356.96 82.69C356.96 83.002 356.942 83.332 356.906 83.68H349.022C349.082 84.652 349.412 85.414 350.012 85.966C350.624 86.506 351.362 86.776 352.226 86.776C352.934 86.776 353.522 86.614 353.99 86.29C354.47 85.954 354.806 85.51 354.998 84.958H356.762C356.498 85.906 355.97 86.68 355.178 87.28C354.386 87.868 353.402 88.162 352.226 88.162C351.29 88.162 350.45 87.952 349.706 87.532C348.974 87.112 348.398 86.518 347.978 85.75C347.558 84.97 347.348 84.07 347.348 83.05C347.348 82.03 347.552 81.136 347.96 80.368C348.368 79.6 348.938 79.012 349.67 78.604C350.414 78.184 351.266 77.974 352.226 77.974C353.162 77.974 353.99 78.178 354.71 78.586C355.43 78.994 355.982 79.558 356.366 80.278C356.762 80.986 356.96 81.79 356.96 82.69ZM355.268 82.348C355.268 81.724 355.13 81.19 354.854 80.746C354.578 80.29 354.2 79.948 353.72 79.72C353.252 79.48 352.73 79.36 352.154 79.36C351.326 79.36 350.618 79.624 350.03 80.152C349.454 80.68 349.124 81.412 349.04 82.348H355.268ZM363.309 83.032C363.309 82.024 363.513 81.142 363.921 80.386C364.329 79.618 364.887 79.024 365.595 78.604C366.315 78.184 367.113 77.974 367.989 77.974C368.853 77.974 369.603 78.16 370.239 78.532C370.875 78.904 371.349 79.372 371.661 79.936V78.136H373.317V88H371.661V86.164C371.337 86.74 370.851 87.22 370.203 87.604C369.567 87.976 368.823 88.162 367.971 88.162C367.095 88.162 366.303 87.946 365.595 87.514C364.887 87.082 364.329 86.476 363.921 85.696C363.513 84.916 363.309 84.028 363.309 83.032ZM371.661 83.05C371.661 82.306 371.511 81.658 371.211 81.106C370.911 80.554 370.503 80.134 369.987 79.846C369.483 79.546 368.925 79.396 368.313 79.396C367.701 79.396 367.143 79.54 366.639 79.828C366.135 80.116 365.733 80.536 365.433 81.088C365.133 81.64 364.983 82.288 364.983 83.032C364.983 83.788 365.133 84.448 365.433 85.012C365.733 85.564 366.135 85.99 366.639 86.29C367.143 86.578 367.701 86.722 368.313 86.722C368.925 86.722 369.483 86.578 369.987 86.29C370.503 85.99 370.911 85.564 371.211 85.012C371.511 84.448 371.661 83.794 371.661 83.05ZM379.757 86.488L382.817 78.136H384.563L380.693 88H378.785L374.915 78.136H376.679L379.757 86.488ZM385.563 83.032C385.563 82.024 385.767 81.142 386.175 80.386C386.583 79.618 387.141 79.024 387.849 78.604C388.569 78.184 389.367 77.974 390.243 77.974C391.107 77.974 391.857 78.16 392.493 78.532C393.129 78.904 393.603 79.372 393.915 79.936V78.136H395.571V88H393.915V86.164C393.591 86.74 393.105 87.22 392.457 87.604C391.821 87.976 391.077 88.162 390.225 88.162C389.349 88.162 388.557 87.946 387.849 87.514C387.141 87.082 386.583 86.476 386.175 85.696C385.767 84.916 385.563 84.028 385.563 83.032ZM393.915 83.05C393.915 82.306 393.765 81.658 393.465 81.106C393.165 80.554 392.757 80.134 392.241 79.846C391.737 79.546 391.179 79.396 390.567 79.396C389.955 79.396 389.397 79.54 388.893 79.828C388.389 80.116 387.987 80.536 387.687 81.088C387.387 81.64 387.237 82.288 387.237 83.032C387.237 83.788 387.387 84.448 387.687 85.012C387.987 85.564 388.389 85.99 388.893 86.29C389.397 86.578 389.955 86.722 390.567 86.722C391.179 86.722 391.737 86.578 392.241 86.29C392.757 85.99 393.165 85.564 393.465 85.012C393.765 84.448 393.915 83.794 393.915 83.05ZM399.185 76.534C398.873 76.534 398.609 76.426 398.393 76.21C398.177 75.994 398.069 75.73 398.069 75.418C398.069 75.106 398.177 74.842 398.393 74.626C398.609 74.41 398.873 74.302 399.185 74.302C399.485 74.302 399.737 74.41 399.941 74.626C400.157 74.842 400.265 75.106 400.265 75.418C400.265 75.73 400.157 75.994 399.941 76.21C399.737 76.426 399.485 76.534 399.185 76.534ZM399.977 78.136V88H398.339V78.136H399.977ZM404.407 74.68V88H402.769V74.68H404.407ZM406.587 83.032C406.587 82.024 406.791 81.142 407.199 80.386C407.607 79.618 408.165 79.024 408.873 78.604C409.593 78.184 410.391 77.974 411.267 77.974C412.131 77.974 412.881 78.16 413.517 78.532C414.153 78.904 414.627 79.372 414.939 79.936V78.136H416.595V88H414.939V86.164C414.615 86.74 414.129 87.22 413.481 87.604C412.845 87.976 412.101 88.162 411.249 88.162C410.373 88.162 409.581 87.946 408.873 87.514C408.165 87.082 407.607 86.476 407.199 85.696C406.791 84.916 406.587 84.028 406.587 83.032ZM414.939 83.05C414.939 82.306 414.789 81.658 414.489 81.106C414.189 80.554 413.781 80.134 413.265 79.846C412.761 79.546 412.203 79.396 411.591 79.396C410.979 79.396 410.421 79.54 409.917 79.828C409.413 80.116 409.011 80.536 408.711 81.088C408.411 81.64 408.261 82.288 408.261 83.032C408.261 83.788 408.411 84.448 408.711 85.012C409.011 85.564 409.413 85.99 409.917 86.29C410.421 86.578 410.979 86.722 411.591 86.722C412.203 86.722 412.761 86.578 413.265 86.29C413.781 85.99 414.189 85.564 414.489 85.012C414.789 84.448 414.939 83.794 414.939 83.05ZM421.001 79.972C421.337 79.384 421.829 78.904 422.477 78.532C423.125 78.16 423.863 77.974 424.691 77.974C425.579 77.974 426.377 78.184 427.085 78.604C427.793 79.024 428.351 79.618 428.759 80.386C429.167 81.142 429.371 82.024 429.371 83.032C429.371 84.028 429.167 84.916 428.759 85.696C428.351 86.476 427.787 87.082 427.067 87.514C426.359 87.946 425.567 88.162 424.691 88.162C423.839 88.162 423.089 87.976 422.441 87.604C421.805 87.232 421.325 86.758 421.001 86.182V88H419.363V74.68H421.001V79.972ZM427.697 83.032C427.697 82.288 427.547 81.64 427.247 81.088C426.947 80.536 426.539 80.116 426.023 79.828C425.519 79.54 424.961 79.396 424.349 79.396C423.749 79.396 423.191 79.546 422.675 79.846C422.171 80.134 421.763 80.56 421.451 81.124C421.151 81.676 421.001 82.318 421.001 83.05C421.001 83.794 421.151 84.448 421.451 85.012C421.763 85.564 422.171 85.99 422.675 86.29C423.191 86.578 423.749 86.722 424.349 86.722C424.961 86.722 425.519 86.578 426.023 86.29C426.539 85.99 426.947 85.564 427.247 85.012C427.547 84.448 427.697 83.788 427.697 83.032ZM433.165 74.68V88H431.527V74.68H433.165ZM444.956 82.69C444.956 83.002 444.938 83.332 444.902 83.68H437.018C437.078 84.652 437.408 85.414 438.008 85.966C438.62 86.506 439.358 86.776 440.222 86.776C440.93 86.776 441.518 86.614 441.986 86.29C442.466 85.954 442.802 85.51 442.994 84.958H444.758C444.494 85.906 443.966 86.68 443.174 87.28C442.382 87.868 441.398 88.162 440.222 88.162C439.286 88.162 438.446 87.952 437.702 87.532C436.97 87.112 436.394 86.518 435.974 85.75C435.554 84.97 435.344 84.07 435.344 83.05C435.344 82.03 435.548 81.136 435.956 80.368C436.364 79.6 436.934 79.012 437.666 78.604C438.41 78.184 439.262 77.974 440.222 77.974C441.158 77.974 441.986 78.178 442.706 78.586C443.426 78.994 443.978 79.558 444.362 80.278C444.758 80.986 444.956 81.79 444.956 82.69ZM443.264 82.348C443.264 81.724 443.126 81.19 442.85 80.746C442.574 80.29 442.196 79.948 441.716 79.72C441.248 79.48 440.726 79.36 440.15 79.36C439.322 79.36 438.614 79.624 438.026 80.152C437.45 80.68 437.12 81.412 437.036 82.348H443.264ZM453.555 79.972C453.891 79.384 454.383 78.904 455.031 78.532C455.679 78.16 456.417 77.974 457.245 77.974C458.133 77.974 458.931 78.184 459.639 78.604C460.347 79.024 460.905 79.618 461.313 80.386C461.721 81.142 461.925 82.024 461.925 83.032C461.925 84.028 461.721 84.916 461.313 85.696C460.905 86.476 460.341 87.082 459.621 87.514C458.913 87.946 458.121 88.162 457.245 88.162C456.393 88.162 455.643 87.976 454.995 87.604C454.359 87.232 453.879 86.758 453.555 86.182V88H451.917V74.68H453.555V79.972ZM460.251 83.032C460.251 82.288 460.101 81.64 459.801 81.088C459.501 80.536 459.093 80.116 458.577 79.828C458.073 79.54 457.515 79.396 456.903 79.396C456.303 79.396 455.745 79.546 455.229 79.846C454.725 80.134 454.317 80.56 454.005 81.124C453.705 81.676 453.555 82.318 453.555 83.05C453.555 83.794 453.705 84.448 454.005 85.012C454.317 85.564 454.725 85.99 455.229 86.29C455.745 86.578 456.303 86.722 456.903 86.722C457.515 86.722 458.073 86.578 458.577 86.29C459.093 85.99 459.501 85.564 459.801 85.012C460.101 84.448 460.251 83.788 460.251 83.032ZM473.081 82.69C473.081 83.002 473.063 83.332 473.027 83.68H465.143C465.203 84.652 465.533 85.414 466.133 85.966C466.745 86.506 467.483 86.776 468.347 86.776C469.055 86.776 469.643 86.614 470.111 86.29C470.591 85.954 470.927 85.51 471.119 84.958H472.883C472.619 85.906 472.091 86.68 471.299 87.28C470.507 87.868 469.523 88.162 468.347 88.162C467.411 88.162 466.571 87.952 465.827 87.532C465.095 87.112 464.519 86.518 464.099 85.75C463.679 84.97 463.469 84.07 463.469 83.05C463.469 82.03 463.673 81.136 464.081 80.368C464.489 79.6 465.059 79.012 465.791 78.604C466.535 78.184 467.387 77.974 468.347 77.974C469.283 77.974 470.111 78.178 470.831 78.586C471.551 78.994 472.103 79.558 472.487 80.278C472.883 80.986 473.081 81.79 473.081 82.69ZM471.389 82.348C471.389 81.724 471.251 81.19 470.975 80.746C470.699 80.29 470.321 79.948 469.841 79.72C469.373 79.48 468.851 79.36 468.275 79.36C467.447 79.36 466.739 79.624 466.151 80.152C465.575 80.68 465.245 81.412 465.161 82.348H471.389ZM480.049 77.956C481.249 77.956 482.221 78.322 482.965 79.054C483.709 79.774 484.081 80.818 484.081 82.186V88H482.461V82.42C482.461 81.436 482.215 80.686 481.723 80.17C481.231 79.642 480.559 79.378 479.707 79.378C478.843 79.378 478.153 79.648 477.637 80.188C477.133 80.728 476.881 81.514 476.881 82.546V88H475.243V78.136H476.881V79.54C477.205 79.036 477.643 78.646 478.195 78.37C478.759 78.094 479.377 77.956 480.049 77.956ZM495.757 82.69C495.757 83.002 495.739 83.332 495.703 83.68H487.819C487.879 84.652 488.209 85.414 488.809 85.966C489.421 86.506 490.159 86.776 491.023 86.776C491.731 86.776 492.319 86.614 492.787 86.29C493.267 85.954 493.603 85.51 493.795 84.958H495.559C495.295 85.906 494.767 86.68 493.975 87.28C493.183 87.868 492.199 88.162 491.023 88.162C490.087 88.162 489.247 87.952 488.503 87.532C487.771 87.112 487.195 86.518 486.775 85.75C486.355 84.97 486.145 84.07 486.145 83.05C486.145 82.03 486.349 81.136 486.757 80.368C487.165 79.6 487.735 79.012 488.467 78.604C489.211 78.184 490.063 77.974 491.023 77.974C491.959 77.974 492.787 78.178 493.507 78.586C494.227 78.994 494.779 79.558 495.163 80.278C495.559 80.986 495.757 81.79 495.757 82.69ZM494.065 82.348C494.065 81.724 493.927 81.19 493.651 80.746C493.375 80.29 492.997 79.948 492.517 79.72C492.049 79.48 491.527 79.36 490.951 79.36C490.123 79.36 489.415 79.624 488.827 80.152C488.251 80.68 487.921 81.412 487.837 82.348H494.065ZM497.307 83.032C497.307 82.024 497.511 81.142 497.919 80.386C498.327 79.618 498.885 79.024 499.593 78.604C500.313 78.184 501.111 77.974 501.987 77.974C502.851 77.974 503.601 78.16 504.237 78.532C504.873 78.904 505.347 79.372 505.659 79.936V78.136H507.315V88H505.659V86.164C505.335 86.74 504.849 87.22 504.201 87.604C503.565 87.976 502.821 88.162 501.969 88.162C501.093 88.162 500.301 87.946 499.593 87.514C498.885 87.082 498.327 86.476 497.919 85.696C497.511 84.916 497.307 84.028 497.307 83.032ZM505.659 83.05C505.659 82.306 505.509 81.658 505.209 81.106C504.909 80.554 504.501 80.134 503.985 79.846C503.481 79.546 502.923 79.396 502.311 79.396C501.699 79.396 501.141 79.54 500.637 79.828C500.133 80.116 499.731 80.536 499.431 81.088C499.131 81.64 498.981 82.288 498.981 83.032C498.981 83.788 499.131 84.448 499.431 85.012C499.731 85.564 500.133 85.99 500.637 86.29C501.141 86.578 501.699 86.722 502.311 86.722C502.923 86.722 503.481 86.578 503.985 86.29C504.501 85.99 504.909 85.564 505.209 85.012C505.509 84.448 505.659 83.794 505.659 83.05ZM512.081 79.486V85.3C512.081 85.78 512.183 86.122 512.387 86.326C512.591 86.518 512.945 86.614 513.449 86.614H514.655V88H513.179C512.267 88 511.583 87.79 511.127 87.37C510.671 86.95 510.443 86.26 510.443 85.3V79.486H509.165V78.136H510.443V75.652H512.081V78.136H514.655V79.486H512.081ZM521.536 77.956C522.28 77.956 522.952 78.118 523.552 78.442C524.152 78.754 524.62 79.228 524.956 79.864C525.304 80.5 525.478 81.274 525.478 82.186V88H523.858V82.42C523.858 81.436 523.612 80.686 523.12 80.17C522.628 79.642 521.956 79.378 521.104 79.378C520.24 79.378 519.55 79.648 519.034 80.188C518.53 80.728 518.278 81.514 518.278 82.546V88H516.64V74.68H518.278V79.54C518.602 79.036 519.046 78.646 519.61 78.37C520.186 78.094 520.828 77.956 521.536 77.956ZM537.254 88.162C536.33 88.162 535.49 87.952 534.734 87.532C533.99 87.112 533.402 86.518 532.97 85.75C532.55 84.97 532.34 84.07 532.34 83.05C532.34 82.042 532.556 81.154 532.988 80.386C533.432 79.606 534.032 79.012 534.788 78.604C535.544 78.184 536.39 77.974 537.326 77.974C538.262 77.974 539.108 78.184 539.864 78.604C540.62 79.012 541.214 79.6 541.646 80.368C542.09 81.136 542.312 82.03 542.312 83.05C542.312 84.07 542.084 84.97 541.628 85.75C541.184 86.518 540.578 87.112 539.81 87.532C539.042 87.952 538.19 88.162 537.254 88.162ZM537.254 86.722C537.842 86.722 538.394 86.584 538.91 86.308C539.426 86.032 539.84 85.618 540.152 85.066C540.476 84.514 540.638 83.842 540.638 83.05C540.638 82.258 540.482 81.586 540.17 81.034C539.858 80.482 539.45 80.074 538.946 79.81C538.442 79.534 537.896 79.396 537.308 79.396C536.708 79.396 536.156 79.534 535.652 79.81C535.16 80.074 534.764 80.482 534.464 81.034C534.164 81.586 534.014 82.258 534.014 83.05C534.014 83.854 534.158 84.532 534.446 85.084C534.746 85.636 535.142 86.05 535.634 86.326C536.126 86.59 536.666 86.722 537.254 86.722ZM549.272 77.956C550.472 77.956 551.444 78.322 552.188 79.054C552.932 79.774 553.304 80.818 553.304 82.186V88H551.684V82.42C551.684 81.436 551.438 80.686 550.946 80.17C550.454 79.642 549.782 79.378 548.93 79.378C548.066 79.378 547.376 79.648 546.86 80.188C546.356 80.728 546.104 81.514 546.104 82.546V88H544.466V78.136H546.104V79.54C546.428 79.036 546.866 78.646 547.418 78.37C547.982 78.094 548.6 77.956 549.272 77.956ZM564.98 82.69C564.98 83.002 564.962 83.332 564.926 83.68H557.042C557.102 84.652 557.432 85.414 558.032 85.966C558.644 86.506 559.382 86.776 560.246 86.776C560.954 86.776 561.542 86.614 562.01 86.29C562.49 85.954 562.826 85.51 563.018 84.958H564.782C564.518 85.906 563.99 86.68 563.198 87.28C562.406 87.868 561.422 88.162 560.246 88.162C559.31 88.162 558.47 87.952 557.726 87.532C556.994 87.112 556.418 86.518 555.998 85.75C555.578 84.97 555.368 84.07 555.368 83.05C555.368 82.03 555.572 81.136 555.98 80.368C556.388 79.6 556.958 79.012 557.69 78.604C558.434 78.184 559.286 77.974 560.246 77.974C561.182 77.974 562.01 78.178 562.73 78.586C563.45 78.994 564.002 79.558 564.386 80.278C564.782 80.986 564.98 81.79 564.98 82.69ZM563.288 82.348C563.288 81.724 563.15 81.19 562.874 80.746C562.598 80.29 562.22 79.948 561.74 79.72C561.272 79.48 560.75 79.36 560.174 79.36C559.346 79.36 558.638 79.624 558.05 80.152C557.474 80.68 557.144 81.412 557.06 82.348H563.288ZM573.579 79.738C573.867 79.174 574.275 78.736 574.803 78.424C575.343 78.112 575.997 77.956 576.765 77.956V79.648H576.333C574.497 79.648 573.579 80.644 573.579 82.636V88H571.941V78.136H573.579V79.738ZM582.958 88.162C582.034 88.162 581.194 87.952 580.438 87.532C579.694 87.112 579.106 86.518 578.674 85.75C578.254 84.97 578.044 84.07 578.044 83.05C578.044 82.042 578.26 81.154 578.692 80.386C579.136 79.606 579.736 79.012 580.492 78.604C581.248 78.184 582.094 77.974 583.03 77.974C583.966 77.974 584.812 78.184 585.568 78.604C586.324 79.012 586.918 79.6 587.35 80.368C587.794 81.136 588.016 82.03 588.016 83.05C588.016 84.07 587.788 84.97 587.332 85.75C586.888 86.518 586.282 87.112 585.514 87.532C584.746 87.952 583.894 88.162 582.958 88.162ZM582.958 86.722C583.546 86.722 584.098 86.584 584.614 86.308C585.13 86.032 585.544 85.618 585.856 85.066C586.18 84.514 586.342 83.842 586.342 83.05C586.342 82.258 586.186 81.586 585.874 81.034C585.562 80.482 585.154 80.074 584.65 79.81C584.146 79.534 583.6 79.396 583.012 79.396C582.412 79.396 581.86 79.534 581.356 79.81C580.864 80.074 580.468 80.482 580.168 81.034C579.868 81.586 579.718 82.258 579.718 83.05C579.718 83.854 579.862 84.532 580.15 85.084C580.45 85.636 580.846 86.05 581.338 86.326C581.83 86.59 582.37 86.722 582.958 86.722ZM594.471 88.162C593.547 88.162 592.707 87.952 591.951 87.532C591.207 87.112 590.619 86.518 590.187 85.75C589.767 84.97 589.557 84.07 589.557 83.05C589.557 82.042 589.773 81.154 590.205 80.386C590.649 79.606 591.249 79.012 592.005 78.604C592.761 78.184 593.607 77.974 594.543 77.974C595.479 77.974 596.325 78.184 597.081 78.604C597.837 79.012 598.431 79.6 598.863 80.368C599.307 81.136 599.529 82.03 599.529 83.05C599.529 84.07 599.301 84.97 598.845 85.75C598.401 86.518 597.795 87.112 597.027 87.532C596.259 87.952 595.407 88.162 594.471 88.162ZM594.471 86.722C595.059 86.722 595.611 86.584 596.127 86.308C596.643 86.032 597.057 85.618 597.369 85.066C597.693 84.514 597.855 83.842 597.855 83.05C597.855 82.258 597.699 81.586 597.387 81.034C597.075 80.482 596.667 80.074 596.163 79.81C595.659 79.534 595.113 79.396 594.525 79.396C593.925 79.396 593.373 79.534 592.869 79.81C592.377 80.074 591.981 80.482 591.681 81.034C591.381 81.586 591.231 82.258 591.231 83.05C591.231 83.854 591.375 84.532 591.663 85.084C591.963 85.636 592.359 86.05 592.851 86.326C593.343 86.59 593.883 86.722 594.471 86.722ZM605.697 79.486H603.627V88H601.989V79.486H600.711V78.136H601.989V77.434C601.989 76.33 602.271 75.526 602.835 75.022C603.411 74.506 604.329 74.248 605.589 74.248V75.616C604.869 75.616 604.359 75.76 604.059 76.048C603.771 76.324 603.627 76.786 603.627 77.434V78.136H605.697V79.486ZM608.129 88.108C607.817 88.108 607.553 88 607.337 87.784C607.121 87.568 607.013 87.304 607.013 86.992C607.013 86.68 607.121 86.416 607.337 86.2C607.553 85.984 607.817 85.876 608.129 85.876C608.429 85.876 608.681 85.984 608.885 86.2C609.101 86.416 609.209 86.68 609.209 86.992C609.209 87.304 609.101 87.568 608.885 87.784C608.681 88 608.429 88.108 608.129 88.108Z" fill="#3FA2DB" fill-opacity="0.6"/>
<path d="M650 17H0V21H650V17Z" fill="#3FA2DB" fill-opacity="0.1"/>
<path d="M674 104H0V108H674V104Z" fill="#3FA2DB" fill-opacity="0.1"/>
<path d="M723.052 26.6218C721.112 22.9195 718.468 19.5698 715.118 16.9253C711.769 14.2807 707.89 12.3414 703.306 10.931C698.722 9.52063 693.786 8.81543 688.321 8.81543C682.679 8.81543 677.566 9.52063 672.806 10.931C668.046 12.3414 663.815 14.457 660.112 17.1016C656.586 19.9224 653.589 23.2721 651.65 27.1507C649.534 31.0293 648.477 35.6131 648.477 40.3732C648.477 41.431 648.477 42.3125 648.653 43.194C648.653 44.0756 648.829 44.7807 648.829 45.6622L649.182 48.4831H680.211L679.682 44.9571C679.682 44.4282 679.505 44.0755 679.505 43.5466V41.7836C679.505 40.5495 679.682 39.3154 679.858 38.0813C680.034 37.1998 680.387 36.3183 680.74 35.6131C681.092 35.0842 681.621 34.5553 682.326 34.2027C683.031 33.8501 683.913 33.6738 685.323 33.6738C686.205 33.6738 687.086 33.8501 687.792 34.2027C688.497 34.5553 689.202 35.0842 689.555 35.6131C690.084 36.142 690.436 36.8472 690.612 37.5524C690.965 38.4339 690.965 39.1391 690.965 40.0206C690.965 41.431 690.612 42.4888 690.084 43.5466C689.378 44.7807 688.32 46.1911 687.263 47.4253C686.029 48.8357 684.618 50.0698 683.208 51.3039C681.621 52.7143 680.211 54.1247 678.8 55.5351C677.39 57.1218 676.156 58.7085 675.098 60.2952C674.04 62.2345 673.335 64.3501 673.335 66.4657V79.1594H702.425V70.3443C702.425 69.9917 702.777 69.4628 703.306 68.9339C704.364 67.8761 705.598 66.8183 707.185 65.5842C708.948 64.3501 710.711 62.9397 712.826 61.5293C714.942 59.9426 716.881 58.0033 718.82 56.064C720.76 53.9484 722.347 51.4802 723.581 49.012C724.991 46.1912 725.52 43.0177 725.52 39.4917C725.873 34.7316 724.991 30.5004 723.052 26.6218Z" fill="#3FA2DB" fill-opacity="0.6"/>
<path d="M703.13 85.3301H673.864V113.186H703.13V85.3301Z" fill="#3FA2DB" fill-opacity="0.6"/>
<path d="M688.673 3.87861C694.667 3.87861 700.133 4.58382 705.069 6.17052C710.006 7.58092 714.237 9.87283 717.763 12.5173C721.289 15.3381 723.933 18.6879 725.873 22.5665C727.812 26.4451 728.693 30.8526 728.693 35.6127C728.693 39.1387 727.988 42.3121 726.754 44.9566C725.52 47.6012 723.757 50.2457 721.818 52.3613C719.878 54.6532 717.763 56.5925 715.471 58.3555C713.179 60.1185 711.063 61.7052 708.948 63.1156C707.009 64.526 705.245 65.9364 704.011 67.3468C702.601 68.7572 701.896 70.1676 701.896 71.578V77.9249H675.627V66.9942C675.627 65.2312 676.156 63.4682 677.037 61.7052C678.095 60.1185 679.329 58.3555 680.74 56.7688C682.326 55.1821 683.913 53.5954 685.676 52.185C687.439 50.5983 689.026 49.0116 690.613 47.4248C692.199 45.8381 693.433 44.0751 694.491 42.1358C695.549 40.3728 696.078 38.2572 696.078 36.1416C696.078 34.7312 695.902 33.3208 695.373 31.9104C694.844 30.5 694.139 29.4422 693.257 28.3844C692.376 27.3266 691.318 26.6214 689.907 25.9162C688.497 25.211 687.087 25.0347 685.324 25.0347C683.208 25.0347 681.269 25.3873 680.035 26.2688C678.624 26.974 677.566 28.0318 676.861 29.4422C676.156 30.6763 675.627 32.0867 675.274 33.8497C675.098 35.4364 674.922 37.0231 674.922 38.7861V40.9017C674.922 41.4306 674.922 42.1358 675.098 42.6647H646.714C646.537 41.7832 646.537 40.9017 646.361 40.0202C646.185 39.1387 646.185 38.0809 646.185 37.0231C646.185 31.9104 647.243 27.3266 649.358 23.2717C651.474 19.2168 654.471 15.6908 658.173 12.8699C661.876 10.0491 666.459 7.75722 671.748 6.34682C676.685 4.58381 682.503 3.87861 688.673 3.87861ZM688.673 0C682.15 0 675.98 0.881506 670.514 2.46821C664.873 4.05492 659.936 6.52312 655.705 9.69653C651.474 12.8699 648.124 16.7486 645.832 21.3324C643.364 25.9162 642.13 31.2052 642.13 36.8468C642.13 38.0809 642.13 39.1387 642.306 40.1965C642.482 41.078 642.482 42.1358 642.659 43.1936L643.011 46.3671H679.329L678.8 42.3121C678.8 41.7832 678.624 41.2543 678.624 40.7254V38.6098C678.624 37.1994 678.8 35.789 678.977 34.3786C679.153 33.3208 679.506 32.263 680.035 31.3815C680.387 30.6763 681.092 30.1474 681.798 29.6185C682.503 29.0896 683.737 28.9133 685.324 28.9133C686.381 28.9133 687.439 29.0896 688.144 29.4422C689.026 29.7948 689.731 30.3237 690.26 31.0289C690.789 31.7341 691.318 32.4393 691.494 33.3208C691.847 34.2023 692.023 35.2601 692.023 36.3179C692.023 37.9046 691.67 39.315 690.965 40.5491C690.084 42.1358 689.026 43.5463 687.615 45.133C686.205 46.7197 684.618 48.3064 683.032 49.7168C681.269 51.3035 679.506 52.8902 677.919 54.6532C676.156 56.4162 674.745 58.3555 673.688 60.2948C672.277 62.5867 671.748 64.8786 671.748 67.5231V82.3324H705.774V72.1069C705.774 71.7543 706.127 71.2254 706.656 70.5202C707.89 69.2861 709.477 68.052 711.24 66.6416C713.179 65.2312 715.471 63.6445 717.763 61.8815C720.231 59.9422 722.523 57.8266 724.639 55.5347C726.93 53.0665 728.693 50.2457 730.104 47.2486C731.691 44.0752 732.396 40.3728 732.396 36.1416C732.396 30.6763 731.338 25.7399 729.046 21.3324C726.93 16.9249 723.757 13.0462 719.878 10.0491C716 7.05202 711.416 4.58381 705.951 2.9971C700.838 0.881497 694.844 0 688.673 0Z" fill="#3FA2DB"/>
<path d="M702.072 93.2628V118.121H675.451V93.2628H702.072ZM705.951 89.5605H671.572V122H705.951V89.5605Z" fill="#3FA2DB"/>
</svg>
