<svg width="733" height="122" viewBox="0 0 733 122" fill="none" xmlns="http://www.w3.org/2000/svg">
<path d="M733 17H84V20H733V17Z" fill="#FFB412" fill-opacity="0.1"/>
<path d="M733 104H63V108H733V104Z" fill="#FFB412" fill-opacity="0.1"/>
<path d="M81.2153 26.6603C79.2732 22.9526 76.6248 19.598 73.2703 16.9497C69.9157 14.3014 66.0315 12.3592 61.4411 10.9468C56.8506 9.53435 51.907 8.82812 46.4338 8.82812C40.784 8.82812 35.6639 9.53435 30.8969 10.9468C26.1299 12.3592 21.8926 14.4779 18.1849 17.1262C14.6538 19.9511 11.6523 23.3057 9.71023 27.1899C7.59156 31.0741 6.53223 35.6646 6.53223 40.4316C6.53223 41.4909 6.53223 42.3737 6.70878 43.2565C6.70878 44.1393 6.88534 44.8455 6.88534 45.7283L7.23845 48.5532H38.3123L37.7826 45.022C37.7826 44.4924 37.606 44.1393 37.606 43.6096V41.844C37.606 40.6082 37.7826 39.3723 37.9591 38.1364C38.1357 37.2536 38.4888 36.3708 38.8419 35.6646C39.195 35.1349 39.7247 34.6053 40.4309 34.2521C41.1371 33.899 42.0199 33.7225 43.4324 33.7225C44.3151 33.7225 45.1979 33.899 45.9042 34.2521C46.6104 34.6053 47.3166 35.1349 47.6697 35.6646C48.1994 36.1943 48.5525 36.9005 48.729 37.6067C49.0821 38.4895 49.0822 39.1957 49.0822 40.0785C49.0822 41.4909 48.729 42.5503 48.1994 43.6096C47.4932 44.8455 46.4338 46.2579 45.3745 47.4938C44.1386 48.9063 42.7261 50.1422 41.3137 51.3781C39.7247 52.7905 38.3123 54.2029 36.8998 55.6154C35.8405 56.8513 34.6046 58.6168 33.5453 60.2058C32.4859 62.1479 31.7797 64.2666 31.7797 66.3853V79.0973H60.9114V70.2695C60.9114 69.9164 61.2645 69.3867 61.7942 68.8571C62.8535 67.7977 64.0894 66.7384 65.6784 65.5025C67.4439 64.2666 69.2095 62.8542 71.3282 61.4417C73.4468 59.8527 75.3889 57.9106 77.3311 55.9685C79.2732 53.8498 80.8622 51.378 82.0981 48.9063C83.5105 46.0814 84.0402 42.9034 84.0402 39.3723C84.0402 34.7818 82.9809 30.5445 81.2153 26.6603Z" fill="#FFB412"/>
<path d="M61.2643 85.453H31.9561V113.349H61.2643V85.453Z" fill="#FFB412"/>
<path d="M46.6107 3.88423C52.6136 3.88423 58.0868 4.59045 63.0304 6.17945C67.9739 7.5919 72.2113 9.88712 75.7424 12.5355C79.2735 15.3604 81.9218 18.7149 83.864 22.5991C85.8061 26.4834 86.6889 30.8972 86.6889 35.6643C86.6889 39.1954 85.9826 42.3734 84.7467 45.0217C83.5108 47.67 81.7453 50.3184 79.8032 52.437C77.8611 54.7323 75.7424 56.6744 73.4472 58.4399C71.1519 60.2055 69.0333 61.7945 66.9146 63.2069C64.9725 64.6194 63.2069 66.0318 61.9711 67.4443C60.5586 68.8567 59.8524 70.2692 59.8524 71.6816V78.0376H33.369V67.0912C33.369 65.3256 33.8987 63.5601 34.7815 61.7945C35.8408 60.2055 37.0767 58.4399 38.4891 56.8509C40.0781 55.2619 41.6671 53.6729 43.4327 52.2605C45.1983 50.6715 46.7873 49.0825 48.3763 47.4935C49.9653 45.9045 51.2012 44.1389 52.2605 42.1968C53.3198 40.4313 53.8495 38.3126 53.8495 36.1939C53.8495 34.7815 53.6729 33.369 53.1433 31.9566C52.6136 30.5441 51.9074 29.4848 51.0246 28.4255C50.1418 27.3661 49.0825 26.6599 47.67 25.9537C46.2576 25.2475 44.8451 25.0709 43.0796 25.0709C40.9609 25.0709 39.0188 25.424 37.7829 26.3068C36.3705 27.013 35.3111 28.0724 34.6049 29.4848C33.8987 30.7207 33.369 32.1331 33.0159 33.8987C32.8394 35.4877 32.6628 37.0767 32.6628 38.8423V40.9609C32.6628 41.4906 32.6628 42.1968 32.8394 42.7265H4.41389C4.23734 41.8437 4.23734 40.9609 4.06078 40.0781C3.88423 39.1954 3.88423 38.136 3.88423 37.0767C3.88423 31.9566 4.94356 27.3661 7.06223 23.3054C9.1809 19.2446 12.1823 15.7135 15.89 12.8886C19.5977 10.0637 24.1881 7.76846 29.4848 6.35601C34.7815 4.59045 40.4313 3.88423 46.6107 3.88423ZM46.6107 0C40.0781 0 33.8987 0.882781 28.4255 2.47178C22.7757 4.06078 17.8321 6.53256 13.5948 9.71056C9.35745 12.8886 6.00289 16.7728 3.70767 21.3632C1.23589 25.9537 0 31.2504 0 36.9001C0 38.136 6.70876e-07 39.1954 0.176556 40.2547C0.353112 41.1375 0.353113 42.1968 0.529669 43.2562L0.882779 46.4342H37.2533L36.7236 42.3734C36.7236 41.8437 36.547 41.314 36.547 40.7844V38.6657C36.547 37.2533 36.7236 35.8408 36.9001 34.4284C37.0767 33.369 37.4298 32.3097 37.9595 31.4269C38.3126 30.7207 39.0188 30.191 39.725 29.6614C40.4313 29.1317 41.6671 28.9551 43.2561 28.9551C44.3155 28.9551 45.3748 29.1317 46.081 29.4848C46.9638 29.8379 47.67 30.3676 48.1997 31.0738C48.7294 31.78 49.259 32.4863 49.4356 33.369C49.7887 34.2518 49.9653 35.3111 49.9653 36.3705C49.9653 37.9595 49.6122 39.3719 48.9059 40.6078C48.0232 42.1968 46.9638 43.6093 45.5514 45.1983C44.1389 46.7873 42.5499 48.3763 40.9609 49.7887C39.1954 51.3777 37.4298 52.9667 35.8408 54.7323C34.0753 56.4978 32.6628 58.4399 31.6035 60.3821C30.191 62.6773 29.6614 64.9725 29.6614 67.6208V82.4515H63.7366V72.2113C63.7366 71.8582 64.0897 71.3285 64.6194 70.6223C65.8553 69.3864 67.4443 68.1505 69.2098 66.7381C71.1519 65.3256 73.4472 63.7366 75.7424 61.9711C78.2142 60.0289 80.5094 57.9103 82.6281 55.6151C84.9233 53.1433 86.6889 50.3184 88.1013 47.3169C89.6903 44.1389 90.3965 40.4313 90.3965 36.1939C90.3965 30.7207 89.3372 25.7771 87.042 21.3632C84.9233 16.9494 81.7453 13.0651 77.8611 10.0637C73.9768 7.06223 69.3864 4.59045 63.9132 3.00145C58.793 0.88278 52.9667 0 46.6107 0Z" fill="#FF8000"/>
<path d="M60.2053 93.3979V118.292H33.5454V93.3979H60.2053ZM63.9129 89.5137H29.6611V122H64.0895V89.5137H63.9129Z" fill="#FF8000"/>
<path d="M127.032 38.048V43.64H133.128V45.44H127.032V51.2H133.848V53H124.848V36.248H133.848V38.048H127.032ZM144.017 53L140.897 48.104L137.897 53H135.617L139.865 46.472L135.617 39.848H138.089L141.209 44.72L144.185 39.848H146.465L142.241 46.352L146.489 53H144.017ZM150.821 42.272C151.253 41.52 151.893 40.896 152.741 40.4C153.605 39.888 154.605 39.632 155.741 39.632C156.909 39.632 157.965 39.912 158.909 40.472C159.869 41.032 160.621 41.824 161.165 42.848C161.709 43.856 161.981 45.032 161.981 46.376C161.981 47.704 161.709 48.888 161.165 49.928C160.621 50.968 159.869 51.776 158.909 52.352C157.965 52.928 156.909 53.216 155.741 53.216C154.621 53.216 153.629 52.968 152.765 52.472C151.917 51.96 151.269 51.328 150.821 50.576V59.24H148.637V39.848H150.821V42.272ZM159.749 46.376C159.749 45.384 159.549 44.52 159.149 43.784C158.749 43.048 158.205 42.488 157.517 42.104C156.845 41.72 156.101 41.528 155.285 41.528C154.485 41.528 153.741 41.728 153.053 42.128C152.381 42.512 151.837 43.08 151.421 43.832C151.021 44.568 150.821 45.424 150.821 46.4C150.821 47.392 151.021 48.264 151.421 49.016C151.837 49.752 152.381 50.32 153.053 50.72C153.741 51.104 154.485 51.296 155.285 51.296C156.101 51.296 156.845 51.104 157.517 50.72C158.205 50.32 158.749 49.752 159.149 49.016C159.549 48.264 159.749 47.384 159.749 46.376ZM176.856 45.92C176.856 46.336 176.832 46.776 176.784 47.24H166.272C166.352 48.536 166.792 49.552 167.592 50.288C168.408 51.008 169.392 51.368 170.544 51.368C171.488 51.368 172.272 51.152 172.896 50.72C173.536 50.272 173.984 49.68 174.24 48.944H176.592C176.24 50.208 175.536 51.24 174.48 52.04C173.424 52.824 172.112 53.216 170.544 53.216C169.296 53.216 168.176 52.936 167.184 52.376C166.208 51.816 165.44 51.024 164.88 50C164.32 48.96 164.04 47.76 164.04 46.4C164.04 45.04 164.312 43.848 164.856 42.824C165.4 41.8 166.16 41.016 167.136 40.472C168.128 39.912 169.264 39.632 170.544 39.632C171.792 39.632 172.896 39.904 173.856 40.448C174.816 40.992 175.552 41.744 176.064 42.704C176.592 43.648 176.856 44.72 176.856 45.92ZM174.6 45.464C174.6 44.632 174.416 43.92 174.048 43.328C173.68 42.72 173.176 42.264 172.536 41.96C171.912 41.64 171.216 41.48 170.448 41.48C169.344 41.48 168.4 41.832 167.616 42.536C166.848 43.24 166.408 44.216 166.296 45.464H174.6ZM181.923 41.984C182.307 41.232 182.851 40.648 183.555 40.232C184.275 39.816 185.147 39.608 186.171 39.608V41.864H185.595C183.147 41.864 181.923 43.192 181.923 45.848V53H179.739V39.848H181.923V41.984ZM191.356 41.648V49.4C191.356 50.04 191.492 50.496 191.764 50.768C192.036 51.024 192.508 51.152 193.18 51.152H194.788V53H192.82C191.604 53 190.692 52.72 190.084 52.16C189.476 51.6 189.172 50.68 189.172 49.4V41.648H187.468V39.848H189.172V36.536H191.356V39.848H194.788V41.648H191.356ZM216.504 41.12C216.04 40.144 215.368 39.392 214.488 38.864C213.608 38.32 212.584 38.048 211.416 38.048C210.248 38.048 209.192 38.32 208.248 38.864C207.32 39.392 206.584 40.16 206.04 41.168C205.512 42.16 205.248 43.312 205.248 44.624C205.248 45.936 205.512 47.088 206.04 48.08C206.584 49.072 207.32 49.84 208.248 50.384C209.192 50.912 210.248 51.176 211.416 51.176C213.048 51.176 214.392 50.688 215.448 49.712C216.504 48.736 217.12 47.416 217.296 45.752H210.624V43.976H219.624V45.656C219.496 47.032 219.064 48.296 218.328 49.448C217.592 50.584 216.624 51.488 215.424 52.16C214.224 52.816 212.888 53.144 211.416 53.144C209.864 53.144 208.448 52.784 207.168 52.064C205.888 51.328 204.872 50.312 204.12 49.016C203.384 47.72 203.016 46.256 203.016 44.624C203.016 42.992 203.384 41.528 204.12 40.232C204.872 38.92 205.888 37.904 207.168 37.184C208.448 36.448 209.864 36.08 211.416 36.08C213.192 36.08 214.76 36.52 216.12 37.4C217.496 38.28 218.496 39.52 219.12 41.12H216.504ZM224.696 41.984C225.08 41.232 225.624 40.648 226.328 40.232C227.048 39.816 227.92 39.608 228.944 39.608V41.864H228.368C225.92 41.864 224.696 43.192 224.696 45.848V53H222.512V39.848H224.696V41.984ZM237.201 53.216C235.969 53.216 234.849 52.936 233.841 52.376C232.849 51.816 232.065 51.024 231.489 50C230.929 48.96 230.649 47.76 230.649 46.4C230.649 45.056 230.937 43.872 231.513 42.848C232.105 41.808 232.905 41.016 233.913 40.472C234.921 39.912 236.049 39.632 237.297 39.632C238.545 39.632 239.673 39.912 240.681 40.472C241.689 41.016 242.481 41.8 243.057 42.824C243.649 43.848 243.945 45.04 243.945 46.4C243.945 47.76 243.641 48.96 243.033 50C242.441 51.024 241.633 51.816 240.609 52.376C239.585 52.936 238.449 53.216 237.201 53.216ZM237.201 51.296C237.985 51.296 238.721 51.112 239.409 50.744C240.097 50.376 240.649 49.824 241.065 49.088C241.497 48.352 241.713 47.456 241.713 46.4C241.713 45.344 241.505 44.448 241.089 43.712C240.673 42.976 240.129 42.432 239.457 42.08C238.785 41.712 238.057 41.528 237.273 41.528C236.473 41.528 235.737 41.712 235.065 42.08C234.409 42.432 233.881 42.976 233.481 43.712C233.081 44.448 232.881 45.344 232.881 46.4C232.881 47.472 233.073 48.376 233.457 49.112C233.857 49.848 234.385 50.4 235.041 50.768C235.697 51.12 236.417 51.296 237.201 51.296ZM258.481 39.848V53H256.297V51.056C255.881 51.728 255.297 52.256 254.545 52.64C253.809 53.008 252.993 53.192 252.097 53.192C251.073 53.192 250.153 52.984 249.337 52.568C248.521 52.136 247.873 51.496 247.393 50.648C246.929 49.8 246.697 48.768 246.697 47.552V39.848H248.857V47.264C248.857 48.56 249.185 49.56 249.841 50.264C250.497 50.952 251.393 51.296 252.529 51.296C253.697 51.296 254.617 50.936 255.289 50.216C255.961 49.496 256.297 48.448 256.297 47.072V39.848H258.481ZM264.352 42.272C264.784 41.52 265.424 40.896 266.272 40.4C267.136 39.888 268.136 39.632 269.272 39.632C270.44 39.632 271.496 39.912 272.44 40.472C273.4 41.032 274.152 41.824 274.696 42.848C275.24 43.856 275.512 45.032 275.512 46.376C275.512 47.704 275.24 48.888 274.696 49.928C274.152 50.968 273.4 51.776 272.44 52.352C271.496 52.928 270.44 53.216 269.272 53.216C268.152 53.216 267.16 52.968 266.296 52.472C265.448 51.96 264.8 51.328 264.352 50.576V59.24H262.168V39.848H264.352V42.272ZM273.28 46.376C273.28 45.384 273.08 44.52 272.68 43.784C272.28 43.048 271.736 42.488 271.048 42.104C270.376 41.72 269.632 41.528 268.816 41.528C268.016 41.528 267.272 41.728 266.584 42.128C265.912 42.512 265.368 43.08 264.952 43.832C264.552 44.568 264.352 45.424 264.352 46.4C264.352 47.392 264.552 48.264 264.952 49.016C265.368 49.752 265.912 50.32 266.584 50.72C267.272 51.104 268.016 51.296 268.816 51.296C269.632 51.296 270.376 51.104 271.048 50.72C271.736 50.32 272.28 49.752 272.68 49.016C273.08 48.264 273.28 47.384 273.28 46.376ZM290.522 53.216C289.29 53.216 288.17 52.936 287.162 52.376C286.17 51.816 285.386 51.024 284.81 50C284.25 48.96 283.97 47.76 283.97 46.4C283.97 45.056 284.258 43.872 284.834 42.848C285.426 41.808 286.226 41.016 287.234 40.472C288.242 39.912 289.37 39.632 290.618 39.632C291.866 39.632 292.994 39.912 294.002 40.472C295.01 41.016 295.802 41.8 296.378 42.824C296.97 43.848 297.266 45.04 297.266 46.4C297.266 47.76 296.962 48.96 296.354 50C295.762 51.024 294.954 51.816 293.93 52.376C292.906 52.936 291.77 53.216 290.522 53.216ZM290.522 51.296C291.306 51.296 292.042 51.112 292.73 50.744C293.418 50.376 293.97 49.824 294.386 49.088C294.818 48.352 295.034 47.456 295.034 46.4C295.034 45.344 294.826 44.448 294.41 43.712C293.994 42.976 293.45 42.432 292.778 42.08C292.106 41.712 291.378 41.528 290.594 41.528C289.794 41.528 289.058 41.712 288.386 42.08C287.73 42.432 287.202 42.976 286.802 43.712C286.402 44.448 286.202 45.344 286.202 46.4C286.202 47.472 286.394 48.376 286.778 49.112C287.178 49.848 287.706 50.4 288.362 50.768C289.018 51.12 289.738 51.296 290.522 51.296ZM305.489 41.648H302.729V53H300.545V41.648H298.841V39.848H300.545V38.912C300.545 37.44 300.921 36.368 301.673 35.696C302.441 35.008 303.665 34.664 305.345 34.664V36.488C304.385 36.488 303.705 36.68 303.305 37.064C302.921 37.432 302.729 38.048 302.729 38.912V39.848H305.489V41.648ZM335.458 36.272L330.61 53H328.162L324.274 39.536L320.242 53L317.818 53.024L313.138 36.272H315.466L319.114 50.456L323.146 36.272H325.594L329.434 50.408L333.106 36.272H335.458ZM343.584 53.216C342.352 53.216 341.232 52.936 340.224 52.376C339.232 51.816 338.448 51.024 337.872 50C337.312 48.96 337.032 47.76 337.032 46.4C337.032 45.056 337.32 43.872 337.896 42.848C338.488 41.808 339.288 41.016 340.296 40.472C341.304 39.912 342.432 39.632 343.68 39.632C344.928 39.632 346.056 39.912 347.064 40.472C348.072 41.016 348.864 41.8 349.44 42.824C350.032 43.848 350.328 45.04 350.328 46.4C350.328 47.76 350.024 48.96 349.416 50C348.824 51.024 348.016 51.816 346.992 52.376C345.968 52.936 344.832 53.216 343.584 53.216ZM343.584 51.296C344.368 51.296 345.104 51.112 345.792 50.744C346.48 50.376 347.032 49.824 347.448 49.088C347.88 48.352 348.096 47.456 348.096 46.4C348.096 45.344 347.888 44.448 347.472 43.712C347.056 42.976 346.512 42.432 345.84 42.08C345.168 41.712 344.44 41.528 343.656 41.528C342.856 41.528 342.12 41.712 341.448 42.08C340.792 42.432 340.264 42.976 339.864 43.712C339.464 44.448 339.264 45.344 339.264 46.4C339.264 47.472 339.456 48.376 339.84 49.112C340.24 49.848 340.768 50.4 341.424 50.768C342.08 51.12 342.8 51.296 343.584 51.296ZM355.384 41.984C355.768 41.232 356.312 40.648 357.016 40.232C357.736 39.816 358.608 39.608 359.632 39.608V41.864H359.056C356.608 41.864 355.384 43.192 355.384 45.848V53H353.2V39.848H355.384V41.984ZM369.497 53L364.337 47.192V53H362.153V35.24H364.337V45.68L369.401 39.848H372.449L366.257 46.4L372.473 53H369.497ZM386.504 45.92C386.504 46.336 386.48 46.776 386.432 47.24H375.92C376 48.536 376.44 49.552 377.24 50.288C378.056 51.008 379.04 51.368 380.192 51.368C381.136 51.368 381.92 51.152 382.544 50.72C383.184 50.272 383.632 49.68 383.888 48.944H386.24C385.888 50.208 385.184 51.24 384.128 52.04C383.072 52.824 381.76 53.216 380.192 53.216C378.944 53.216 377.824 52.936 376.832 52.376C375.856 51.816 375.088 51.024 374.528 50C373.968 48.96 373.688 47.76 373.688 46.4C373.688 45.04 373.96 43.848 374.504 42.824C375.048 41.8 375.808 41.016 376.784 40.472C377.776 39.912 378.912 39.632 380.192 39.632C381.44 39.632 382.544 39.904 383.504 40.448C384.464 40.992 385.2 41.744 385.712 42.704C386.24 43.648 386.504 44.72 386.504 45.92ZM384.248 45.464C384.248 44.632 384.064 43.92 383.696 43.328C383.328 42.72 382.824 42.264 382.184 41.96C381.56 41.64 380.864 41.48 380.096 41.48C378.992 41.48 378.048 41.832 377.264 42.536C376.496 43.24 376.056 44.216 375.944 45.464H384.248ZM391.571 41.984C391.955 41.232 392.499 40.648 393.203 40.232C393.923 39.816 394.795 39.608 395.819 39.608V41.864H395.243C392.795 41.864 391.571 43.192 391.571 45.848V53H389.387V39.848H391.571V41.984ZM402.996 53.216C401.988 53.216 401.084 53.048 400.284 52.712C399.484 52.36 398.852 51.88 398.388 51.272C397.924 50.648 397.668 49.936 397.62 49.136H399.876C399.94 49.792 400.244 50.328 400.788 50.744C401.348 51.16 402.076 51.368 402.972 51.368C403.804 51.368 404.46 51.184 404.94 50.816C405.42 50.448 405.66 49.984 405.66 49.424C405.66 48.848 405.404 48.424 404.892 48.152C404.38 47.864 403.588 47.584 402.516 47.312C401.54 47.056 400.74 46.8 400.116 46.544C399.508 46.272 398.98 45.88 398.532 45.368C398.1 44.84 397.884 44.152 397.884 43.304C397.884 42.632 398.084 42.016 398.484 41.456C398.884 40.896 399.452 40.456 400.188 40.136C400.924 39.8 401.764 39.632 402.708 39.632C404.164 39.632 405.34 40 406.236 40.736C407.132 41.472 407.612 42.48 407.676 43.76H405.492C405.444 43.072 405.164 42.52 404.652 42.104C404.156 41.688 403.484 41.48 402.636 41.48C401.852 41.48 401.228 41.648 400.764 41.984C400.3 42.32 400.068 42.76 400.068 43.304C400.068 43.736 400.204 44.096 400.476 44.384C400.764 44.656 401.116 44.88 401.532 45.056C401.964 45.216 402.556 45.4 403.308 45.608C404.252 45.864 405.02 46.12 405.612 46.376C406.204 46.616 406.708 46.984 407.124 47.48C407.556 47.976 407.78 48.624 407.796 49.424C407.796 50.144 407.596 50.792 407.196 51.368C406.796 51.944 406.228 52.4 405.492 52.736C404.772 53.056 403.94 53.216 402.996 53.216Z" fill="#FF8000"/>
<path d="M126.024 75.454V88H124.386V75.454H126.024ZM133.622 77.956C134.822 77.956 135.794 78.322 136.538 79.054C137.282 79.774 137.654 80.818 137.654 82.186V88H136.034V82.42C136.034 81.436 135.788 80.686 135.296 80.17C134.804 79.642 134.132 79.378 133.28 79.378C132.416 79.378 131.726 79.648 131.21 80.188C130.706 80.728 130.454 81.514 130.454 82.546V88H128.816V78.136H130.454V79.54C130.778 79.036 131.216 78.646 131.768 78.37C132.332 78.094 132.95 77.956 133.622 77.956ZM142.327 79.486V85.3C142.327 85.78 142.429 86.122 142.633 86.326C142.837 86.518 143.191 86.614 143.695 86.614H144.901V88H143.425C142.513 88 141.829 87.79 141.373 87.37C140.917 86.95 140.689 86.26 140.689 85.3V79.486H139.411V78.136H140.689V75.652H142.327V78.136H144.901V79.486H142.327ZM148.524 79.738C148.812 79.174 149.22 78.736 149.748 78.424C150.288 78.112 150.942 77.956 151.71 77.956V79.648H151.278C149.442 79.648 148.524 80.644 148.524 82.636V88H146.886V78.136H148.524V79.738ZM154.447 76.534C154.135 76.534 153.871 76.426 153.655 76.21C153.439 75.994 153.331 75.73 153.331 75.418C153.331 75.106 153.439 74.842 153.655 74.626C153.871 74.41 154.135 74.302 154.447 74.302C154.747 74.302 154.999 74.41 155.203 74.626C155.419 74.842 155.527 75.106 155.527 75.418C155.527 75.73 155.419 75.994 155.203 76.21C154.999 76.426 154.747 76.534 154.447 76.534ZM155.239 78.136V88H153.601V78.136H155.239ZM162.837 77.956C164.037 77.956 165.009 78.322 165.753 79.054C166.497 79.774 166.869 80.818 166.869 82.186V88H165.249V82.42C165.249 81.436 165.003 80.686 164.511 80.17C164.019 79.642 163.347 79.378 162.495 79.378C161.631 79.378 160.941 79.648 160.425 80.188C159.921 80.728 159.669 81.514 159.669 82.546V88H158.031V78.136H159.669V79.54C159.993 79.036 160.431 78.646 160.983 78.37C161.547 78.094 162.165 77.956 162.837 77.956ZM173.036 88.162C172.28 88.162 171.602 88.036 171.002 87.784C170.402 87.52 169.928 87.16 169.58 86.704C169.232 86.236 169.04 85.702 169.004 85.102H170.696C170.744 85.594 170.972 85.996 171.38 86.308C171.8 86.62 172.346 86.776 173.018 86.776C173.642 86.776 174.134 86.638 174.494 86.362C174.854 86.086 175.034 85.738 175.034 85.318C175.034 84.886 174.842 84.568 174.458 84.364C174.074 84.148 173.48 83.938 172.676 83.734C171.944 83.542 171.344 83.35 170.876 83.158C170.42 82.954 170.024 82.66 169.688 82.276C169.364 81.88 169.202 81.364 169.202 80.728C169.202 80.224 169.352 79.762 169.652 79.342C169.952 78.922 170.378 78.592 170.93 78.352C171.482 78.1 172.112 77.974 172.82 77.974C173.912 77.974 174.794 78.25 175.466 78.802C176.138 79.354 176.498 80.11 176.546 81.07H174.908C174.872 80.554 174.662 80.14 174.278 79.828C173.906 79.516 173.402 79.36 172.766 79.36C172.178 79.36 171.71 79.486 171.362 79.738C171.014 79.99 170.84 80.32 170.84 80.728C170.84 81.052 170.942 81.322 171.146 81.538C171.362 81.742 171.626 81.91 171.938 82.042C172.262 82.162 172.706 82.3 173.27 82.456C173.978 82.648 174.554 82.84 174.998 83.032C175.442 83.212 175.82 83.488 176.132 83.86C176.456 84.232 176.624 84.718 176.636 85.318C176.636 85.858 176.486 86.344 176.186 86.776C175.886 87.208 175.46 87.55 174.908 87.802C174.368 88.042 173.744 88.162 173.036 88.162ZM179.795 76.534C179.483 76.534 179.219 76.426 179.003 76.21C178.787 75.994 178.679 75.73 178.679 75.418C178.679 75.106 178.787 74.842 179.003 74.626C179.219 74.41 179.483 74.302 179.795 74.302C180.095 74.302 180.347 74.41 180.551 74.626C180.767 74.842 180.875 75.106 180.875 75.418C180.875 75.73 180.767 75.994 180.551 76.21C180.347 76.426 180.095 76.534 179.795 76.534ZM180.587 78.136V88H178.949V78.136H180.587ZM182.766 83.05C182.766 82.03 182.97 81.142 183.378 80.386C183.786 79.618 184.35 79.024 185.07 78.604C185.802 78.184 186.636 77.974 187.572 77.974C188.784 77.974 189.78 78.268 190.56 78.856C191.352 79.444 191.874 80.26 192.126 81.304H190.362C190.194 80.704 189.864 80.23 189.372 79.882C188.892 79.534 188.292 79.36 187.572 79.36C186.636 79.36 185.88 79.684 185.304 80.332C184.728 80.968 184.44 81.874 184.44 83.05C184.44 84.238 184.728 85.156 185.304 85.804C185.88 86.452 186.636 86.776 187.572 86.776C188.292 86.776 188.892 86.608 189.372 86.272C189.852 85.936 190.182 85.456 190.362 84.832H192.126C191.862 85.84 191.334 86.65 190.542 87.262C189.75 87.862 188.76 88.162 187.572 88.162C186.636 88.162 185.802 87.952 185.07 87.532C184.35 87.112 183.786 86.518 183.378 85.75C182.97 84.982 182.766 84.082 182.766 83.05ZM198.499 83.032C198.499 82.024 198.703 81.142 199.111 80.386C199.519 79.618 200.077 79.024 200.785 78.604C201.505 78.184 202.303 77.974 203.179 77.974C204.043 77.974 204.793 78.16 205.429 78.532C206.065 78.904 206.539 79.372 206.851 79.936V78.136H208.507V88H206.851V86.164C206.527 86.74 206.041 87.22 205.393 87.604C204.757 87.976 204.013 88.162 203.161 88.162C202.285 88.162 201.493 87.946 200.785 87.514C200.077 87.082 199.519 86.476 199.111 85.696C198.703 84.916 198.499 84.028 198.499 83.032ZM206.851 83.05C206.851 82.306 206.701 81.658 206.401 81.106C206.101 80.554 205.693 80.134 205.177 79.846C204.673 79.546 204.115 79.396 203.503 79.396C202.891 79.396 202.333 79.54 201.829 79.828C201.325 80.116 200.923 80.536 200.623 81.088C200.323 81.64 200.173 82.288 200.173 83.032C200.173 83.788 200.323 84.448 200.623 85.012C200.923 85.564 201.325 85.99 201.829 86.29C202.333 86.578 202.891 86.722 203.503 86.722C204.115 86.722 204.673 86.578 205.177 86.29C205.693 85.99 206.101 85.564 206.401 85.012C206.701 84.448 206.851 83.794 206.851 83.05ZM216.081 77.956C217.281 77.956 218.253 78.322 218.997 79.054C219.741 79.774 220.113 80.818 220.113 82.186V88H218.493V82.42C218.493 81.436 218.247 80.686 217.755 80.17C217.263 79.642 216.591 79.378 215.739 79.378C214.875 79.378 214.185 79.648 213.669 80.188C213.165 80.728 212.913 81.514 212.913 82.546V88H211.275V78.136H212.913V79.54C213.237 79.036 213.675 78.646 214.227 78.37C214.791 78.094 215.409 77.956 216.081 77.956ZM222.176 83.032C222.176 82.024 222.38 81.142 222.788 80.386C223.196 79.618 223.754 79.024 224.462 78.604C225.182 78.184 225.986 77.974 226.874 77.974C227.642 77.974 228.356 78.154 229.016 78.514C229.676 78.862 230.18 79.324 230.528 79.9V74.68H232.184V88H230.528V86.146C230.204 86.734 229.724 87.22 229.088 87.604C228.452 87.976 227.708 88.162 226.856 88.162C225.98 88.162 225.182 87.946 224.462 87.514C223.754 87.082 223.196 86.476 222.788 85.696C222.38 84.916 222.176 84.028 222.176 83.032ZM230.528 83.05C230.528 82.306 230.378 81.658 230.078 81.106C229.778 80.554 229.37 80.134 228.854 79.846C228.35 79.546 227.792 79.396 227.18 79.396C226.568 79.396 226.01 79.54 225.506 79.828C225.002 80.116 224.6 80.536 224.3 81.088C224 81.64 223.85 82.288 223.85 83.032C223.85 83.788 224 84.448 224.3 85.012C224.6 85.564 225.002 85.99 225.506 86.29C226.01 86.578 226.568 86.722 227.18 86.722C227.792 86.722 228.35 86.578 228.854 86.29C229.37 85.99 229.778 85.564 230.078 85.012C230.378 84.448 230.528 83.794 230.528 83.05ZM245.259 88L241.389 83.644V88H239.751V74.68H241.389V82.51L245.187 78.136H247.473L242.829 83.05L247.491 88H245.259ZM253.821 77.956C255.021 77.956 255.993 78.322 256.737 79.054C257.481 79.774 257.853 80.818 257.853 82.186V88H256.233V82.42C256.233 81.436 255.987 80.686 255.495 80.17C255.003 79.642 254.331 79.378 253.479 79.378C252.615 79.378 251.925 79.648 251.409 80.188C250.905 80.728 250.653 81.514 250.653 82.546V88H249.015V78.136H250.653V79.54C250.977 79.036 251.415 78.646 251.967 78.37C252.531 78.094 253.149 77.956 253.821 77.956ZM264.831 88.162C263.907 88.162 263.067 87.952 262.311 87.532C261.567 87.112 260.979 86.518 260.547 85.75C260.127 84.97 259.917 84.07 259.917 83.05C259.917 82.042 260.133 81.154 260.565 80.386C261.009 79.606 261.609 79.012 262.365 78.604C263.121 78.184 263.967 77.974 264.903 77.974C265.839 77.974 266.685 78.184 267.441 78.604C268.197 79.012 268.791 79.6 269.223 80.368C269.667 81.136 269.889 82.03 269.889 83.05C269.889 84.07 269.661 84.97 269.205 85.75C268.761 86.518 268.155 87.112 267.387 87.532C266.619 87.952 265.767 88.162 264.831 88.162ZM264.831 86.722C265.419 86.722 265.971 86.584 266.487 86.308C267.003 86.032 267.417 85.618 267.729 85.066C268.053 84.514 268.215 83.842 268.215 83.05C268.215 82.258 268.059 81.586 267.747 81.034C267.435 80.482 267.027 80.074 266.523 79.81C266.019 79.534 265.473 79.396 264.885 79.396C264.285 79.396 263.733 79.534 263.229 79.81C262.737 80.074 262.341 80.482 262.041 81.034C261.741 81.586 261.591 82.258 261.591 83.05C261.591 83.854 261.735 84.532 262.023 85.084C262.323 85.636 262.719 86.05 263.211 86.326C263.703 86.59 264.243 86.722 264.831 86.722ZM285.182 78.136L282.104 88H280.412L278.036 80.17L275.66 88H273.968L270.872 78.136H272.546L274.814 86.416L277.262 78.136H278.936L281.33 86.434L283.562 78.136H285.182ZM288.446 74.68V88H286.808V74.68H288.446ZM300.238 82.69C300.238 83.002 300.22 83.332 300.184 83.68H292.3C292.36 84.652 292.69 85.414 293.29 85.966C293.902 86.506 294.64 86.776 295.504 86.776C296.212 86.776 296.8 86.614 297.268 86.29C297.748 85.954 298.084 85.51 298.276 84.958H300.04C299.776 85.906 299.248 86.68 298.456 87.28C297.664 87.868 296.68 88.162 295.504 88.162C294.568 88.162 293.728 87.952 292.984 87.532C292.252 87.112 291.676 86.518 291.256 85.75C290.836 84.97 290.626 84.07 290.626 83.05C290.626 82.03 290.83 81.136 291.238 80.368C291.646 79.6 292.216 79.012 292.948 78.604C293.692 78.184 294.544 77.974 295.504 77.974C296.44 77.974 297.268 78.178 297.988 78.586C298.708 78.994 299.26 79.558 299.644 80.278C300.04 80.986 300.238 81.79 300.238 82.69ZM298.546 82.348C298.546 81.724 298.408 81.19 298.132 80.746C297.856 80.29 297.478 79.948 296.998 79.72C296.53 79.48 296.008 79.36 295.432 79.36C294.604 79.36 293.896 79.624 293.308 80.152C292.732 80.68 292.402 81.412 292.318 82.348H298.546ZM301.788 83.032C301.788 82.024 301.992 81.142 302.4 80.386C302.808 79.618 303.366 79.024 304.074 78.604C304.794 78.184 305.598 77.974 306.486 77.974C307.254 77.974 307.968 78.154 308.628 78.514C309.288 78.862 309.792 79.324 310.14 79.9V74.68H311.796V88H310.14V86.146C309.816 86.734 309.336 87.22 308.7 87.604C308.064 87.976 307.32 88.162 306.468 88.162C305.592 88.162 304.794 87.946 304.074 87.514C303.366 87.082 302.808 86.476 302.4 85.696C301.992 84.916 301.788 84.028 301.788 83.032ZM310.14 83.05C310.14 82.306 309.99 81.658 309.69 81.106C309.39 80.554 308.982 80.134 308.466 79.846C307.962 79.546 307.404 79.396 306.792 79.396C306.18 79.396 305.622 79.54 305.118 79.828C304.614 80.116 304.212 80.536 303.912 81.088C303.612 81.64 303.462 82.288 303.462 83.032C303.462 83.788 303.612 84.448 303.912 85.012C304.212 85.564 304.614 85.99 305.118 86.29C305.622 86.578 306.18 86.722 306.792 86.722C307.404 86.722 307.962 86.578 308.466 86.29C308.982 85.99 309.39 85.564 309.69 85.012C309.99 84.448 310.14 83.794 310.14 83.05ZM318.632 77.974C319.484 77.974 320.228 78.16 320.864 78.532C321.512 78.904 321.992 79.372 322.304 79.936V78.136H323.96V88.216C323.96 89.116 323.768 89.914 323.384 90.61C323 91.318 322.448 91.87 321.728 92.266C321.02 92.662 320.192 92.86 319.244 92.86C317.948 92.86 316.868 92.554 316.004 91.942C315.14 91.33 314.63 90.496 314.474 89.44H316.094C316.274 90.04 316.646 90.52 317.21 90.88C317.774 91.252 318.452 91.438 319.244 91.438C320.144 91.438 320.876 91.156 321.44 90.592C322.016 90.028 322.304 89.236 322.304 88.216V86.146C321.98 86.722 321.5 87.202 320.864 87.586C320.228 87.97 319.484 88.162 318.632 88.162C317.756 88.162 316.958 87.946 316.238 87.514C315.53 87.082 314.972 86.476 314.564 85.696C314.156 84.916 313.952 84.028 313.952 83.032C313.952 82.024 314.156 81.142 314.564 80.386C314.972 79.618 315.53 79.024 316.238 78.604C316.958 78.184 317.756 77.974 318.632 77.974ZM322.304 83.05C322.304 82.306 322.154 81.658 321.854 81.106C321.554 80.554 321.146 80.134 320.63 79.846C320.126 79.546 319.568 79.396 318.956 79.396C318.344 79.396 317.786 79.54 317.282 79.828C316.778 80.116 316.376 80.536 316.076 81.088C315.776 81.64 315.626 82.288 315.626 83.032C315.626 83.788 315.776 84.448 316.076 85.012C316.376 85.564 316.778 85.99 317.282 86.29C317.786 86.578 318.344 86.722 318.956 86.722C319.568 86.722 320.126 86.578 320.63 86.29C321.146 85.99 321.554 85.564 321.854 85.012C322.154 84.448 322.304 83.794 322.304 83.05ZM335.728 82.69C335.728 83.002 335.71 83.332 335.674 83.68H327.79C327.85 84.652 328.18 85.414 328.78 85.966C329.392 86.506 330.13 86.776 330.994 86.776C331.702 86.776 332.29 86.614 332.758 86.29C333.238 85.954 333.574 85.51 333.766 84.958H335.53C335.266 85.906 334.738 86.68 333.946 87.28C333.154 87.868 332.17 88.162 330.994 88.162C330.058 88.162 329.218 87.952 328.474 87.532C327.742 87.112 327.166 86.518 326.746 85.75C326.326 84.97 326.116 84.07 326.116 83.05C326.116 82.03 326.32 81.136 326.728 80.368C327.136 79.6 327.706 79.012 328.438 78.604C329.182 78.184 330.034 77.974 330.994 77.974C331.93 77.974 332.758 78.178 333.478 78.586C334.198 78.994 334.75 79.558 335.134 80.278C335.53 80.986 335.728 81.79 335.728 82.69ZM334.036 82.348C334.036 81.724 333.898 81.19 333.622 80.746C333.346 80.29 332.968 79.948 332.488 79.72C332.02 79.48 331.498 79.36 330.922 79.36C330.094 79.36 329.386 79.624 328.798 80.152C328.222 80.68 327.892 81.412 327.808 82.348H334.036ZM337.278 83.032C337.278 82.024 337.482 81.142 337.89 80.386C338.298 79.618 338.856 79.024 339.564 78.604C340.284 78.184 341.082 77.974 341.958 77.974C342.822 77.974 343.572 78.16 344.208 78.532C344.844 78.904 345.318 79.372 345.63 79.936V78.136H347.286V88H345.63V86.164C345.306 86.74 344.82 87.22 344.172 87.604C343.536 87.976 342.792 88.162 341.94 88.162C341.064 88.162 340.272 87.946 339.564 87.514C338.856 87.082 338.298 86.476 337.89 85.696C337.482 84.916 337.278 84.028 337.278 83.032ZM345.63 83.05C345.63 82.306 345.48 81.658 345.18 81.106C344.88 80.554 344.472 80.134 343.956 79.846C343.452 79.546 342.894 79.396 342.282 79.396C341.67 79.396 341.112 79.54 340.608 79.828C340.104 80.116 339.702 80.536 339.402 81.088C339.102 81.64 338.952 82.288 338.952 83.032C338.952 83.788 339.102 84.448 339.402 85.012C339.702 85.564 340.104 85.99 340.608 86.29C341.112 86.578 341.67 86.722 342.282 86.722C342.894 86.722 343.452 86.578 343.956 86.29C344.472 85.99 344.88 85.564 345.18 85.012C345.48 84.448 345.63 83.794 345.63 83.05ZM351.692 79.972C352.028 79.384 352.52 78.904 353.168 78.532C353.816 78.16 354.554 77.974 355.382 77.974C356.27 77.974 357.068 78.184 357.776 78.604C358.484 79.024 359.042 79.618 359.45 80.386C359.858 81.142 360.062 82.024 360.062 83.032C360.062 84.028 359.858 84.916 359.45 85.696C359.042 86.476 358.478 87.082 357.758 87.514C357.05 87.946 356.258 88.162 355.382 88.162C354.53 88.162 353.78 87.976 353.132 87.604C352.496 87.232 352.016 86.758 351.692 86.182V88H350.054V74.68H351.692V79.972ZM358.388 83.032C358.388 82.288 358.238 81.64 357.938 81.088C357.638 80.536 357.23 80.116 356.714 79.828C356.21 79.54 355.652 79.396 355.04 79.396C354.44 79.396 353.882 79.546 353.366 79.846C352.862 80.134 352.454 80.56 352.142 81.124C351.842 81.676 351.692 82.318 351.692 83.05C351.692 83.794 351.842 84.448 352.142 85.012C352.454 85.564 352.862 85.99 353.366 86.29C353.882 86.578 354.44 86.722 355.04 86.722C355.652 86.722 356.21 86.578 356.714 86.29C357.23 85.99 357.638 85.564 357.938 85.012C358.238 84.448 358.388 83.788 358.388 83.032ZM363.856 74.68V88H362.218V74.68H363.856ZM375.648 82.69C375.648 83.002 375.63 83.332 375.594 83.68H367.71C367.77 84.652 368.1 85.414 368.7 85.966C369.312 86.506 370.05 86.776 370.914 86.776C371.622 86.776 372.21 86.614 372.678 86.29C373.158 85.954 373.494 85.51 373.686 84.958H375.45C375.186 85.906 374.658 86.68 373.866 87.28C373.074 87.868 372.09 88.162 370.914 88.162C369.978 88.162 369.138 87.952 368.394 87.532C367.662 87.112 367.086 86.518 366.666 85.75C366.246 84.97 366.036 84.07 366.036 83.05C366.036 82.03 366.24 81.136 366.648 80.368C367.056 79.6 367.626 79.012 368.358 78.604C369.102 78.184 369.954 77.974 370.914 77.974C371.85 77.974 372.678 78.178 373.398 78.586C374.118 78.994 374.67 79.558 375.054 80.278C375.45 80.986 375.648 81.79 375.648 82.69ZM373.956 82.348C373.956 81.724 373.818 81.19 373.542 80.746C373.266 80.29 372.888 79.948 372.408 79.72C371.94 79.48 371.418 79.36 370.842 79.36C370.014 79.36 369.306 79.624 368.718 80.152C368.142 80.68 367.812 81.412 367.728 82.348H373.956ZM386.101 88.162C385.345 88.162 384.667 88.036 384.067 87.784C383.467 87.52 382.993 87.16 382.645 86.704C382.297 86.236 382.105 85.702 382.069 85.102H383.761C383.809 85.594 384.037 85.996 384.445 86.308C384.865 86.62 385.411 86.776 386.083 86.776C386.707 86.776 387.199 86.638 387.559 86.362C387.919 86.086 388.099 85.738 388.099 85.318C388.099 84.886 387.907 84.568 387.523 84.364C387.139 84.148 386.545 83.938 385.741 83.734C385.009 83.542 384.409 83.35 383.941 83.158C383.485 82.954 383.089 82.66 382.753 82.276C382.429 81.88 382.267 81.364 382.267 80.728C382.267 80.224 382.417 79.762 382.717 79.342C383.017 78.922 383.443 78.592 383.995 78.352C384.547 78.1 385.177 77.974 385.885 77.974C386.977 77.974 387.859 78.25 388.531 78.802C389.203 79.354 389.563 80.11 389.611 81.07H387.973C387.937 80.554 387.727 80.14 387.343 79.828C386.971 79.516 386.467 79.36 385.831 79.36C385.243 79.36 384.775 79.486 384.427 79.738C384.079 79.99 383.905 80.32 383.905 80.728C383.905 81.052 384.007 81.322 384.211 81.538C384.427 81.742 384.691 81.91 385.003 82.042C385.327 82.162 385.771 82.3 386.335 82.456C387.043 82.648 387.619 82.84 388.063 83.032C388.507 83.212 388.885 83.488 389.197 83.86C389.521 84.232 389.689 84.718 389.701 85.318C389.701 85.858 389.551 86.344 389.251 86.776C388.951 87.208 388.525 87.55 387.973 87.802C387.433 88.042 386.809 88.162 386.101 88.162ZM394.011 79.486V85.3C394.011 85.78 394.113 86.122 394.317 86.326C394.521 86.518 394.875 86.614 395.379 86.614H396.585V88H395.109C394.197 88 393.513 87.79 393.057 87.37C392.601 86.95 392.373 86.26 392.373 85.3V79.486H391.095V78.136H392.373V75.652H394.011V78.136H396.585V79.486H394.011ZM397.958 83.032C397.958 82.024 398.162 81.142 398.57 80.386C398.978 79.618 399.536 79.024 400.244 78.604C400.964 78.184 401.762 77.974 402.638 77.974C403.502 77.974 404.252 78.16 404.888 78.532C405.524 78.904 405.998 79.372 406.31 79.936V78.136H407.966V88H406.31V86.164C405.986 86.74 405.5 87.22 404.852 87.604C404.216 87.976 403.472 88.162 402.62 88.162C401.744 88.162 400.952 87.946 400.244 87.514C399.536 87.082 398.978 86.476 398.57 85.696C398.162 84.916 397.958 84.028 397.958 83.032ZM406.31 83.05C406.31 82.306 406.16 81.658 405.86 81.106C405.56 80.554 405.152 80.134 404.636 79.846C404.132 79.546 403.574 79.396 402.962 79.396C402.35 79.396 401.792 79.54 401.288 79.828C400.784 80.116 400.382 80.536 400.082 81.088C399.782 81.64 399.632 82.288 399.632 83.032C399.632 83.788 399.782 84.448 400.082 85.012C400.382 85.564 400.784 85.99 401.288 86.29C401.792 86.578 402.35 86.722 402.962 86.722C403.574 86.722 404.132 86.578 404.636 86.29C405.152 85.99 405.56 85.564 405.86 85.012C406.16 84.448 406.31 83.794 406.31 83.05ZM414.748 79.486H412.678V88H411.04V79.486H409.762V78.136H411.04V77.434C411.04 76.33 411.322 75.526 411.886 75.022C412.462 74.506 413.38 74.248 414.64 74.248V75.616C413.92 75.616 413.41 75.76 413.11 76.048C412.822 76.324 412.678 76.786 412.678 77.434V78.136H414.748V79.486ZM420.671 79.486H418.601V88H416.963V79.486H415.685V78.136H416.963V77.434C416.963 76.33 417.245 75.526 417.809 75.022C418.385 74.506 419.303 74.248 420.563 74.248V75.616C419.843 75.616 419.333 75.76 419.033 76.048C418.745 76.324 418.601 76.786 418.601 77.434V78.136H420.671V79.486ZM428.226 76.534C427.914 76.534 427.65 76.426 427.434 76.21C427.218 75.994 427.11 75.73 427.11 75.418C427.11 75.106 427.218 74.842 427.434 74.626C427.65 74.41 427.914 74.302 428.226 74.302C428.526 74.302 428.778 74.41 428.982 74.626C429.198 74.842 429.306 75.106 429.306 75.418C429.306 75.73 429.198 75.994 428.982 76.21C428.778 76.426 428.526 76.534 428.226 76.534ZM429.018 78.136V88H427.38V78.136H429.018ZM436.616 77.956C437.816 77.956 438.788 78.322 439.532 79.054C440.276 79.774 440.648 80.818 440.648 82.186V88H439.028V82.42C439.028 81.436 438.782 80.686 438.29 80.17C437.798 79.642 437.126 79.378 436.274 79.378C435.41 79.378 434.72 79.648 434.204 80.188C433.7 80.728 433.448 81.514 433.448 82.546V88H431.81V78.136H433.448V79.54C433.772 79.036 434.21 78.646 434.762 78.37C435.326 78.094 435.944 77.956 436.616 77.956ZM450.12 79.486V85.3C450.12 85.78 450.222 86.122 450.426 86.326C450.63 86.518 450.984 86.614 451.488 86.614H452.694V88H451.218C450.306 88 449.622 87.79 449.166 87.37C448.71 86.95 448.482 86.26 448.482 85.3V79.486H447.204V78.136H448.482V75.652H450.12V78.136H452.694V79.486H450.12ZM459.575 77.956C460.319 77.956 460.991 78.118 461.591 78.442C462.191 78.754 462.659 79.228 462.995 79.864C463.343 80.5 463.517 81.274 463.517 82.186V88H461.897V82.42C461.897 81.436 461.651 80.686 461.159 80.17C460.667 79.642 459.995 79.378 459.143 79.378C458.279 79.378 457.589 79.648 457.073 80.188C456.569 80.728 456.317 81.514 456.317 82.546V88H454.679V74.68H456.317V79.54C456.641 79.036 457.085 78.646 457.649 78.37C458.225 78.094 458.867 77.956 459.575 77.956ZM475.193 82.69C475.193 83.002 475.175 83.332 475.139 83.68H467.255C467.315 84.652 467.645 85.414 468.245 85.966C468.857 86.506 469.595 86.776 470.459 86.776C471.167 86.776 471.755 86.614 472.223 86.29C472.703 85.954 473.039 85.51 473.231 84.958H474.995C474.731 85.906 474.203 86.68 473.411 87.28C472.619 87.868 471.635 88.162 470.459 88.162C469.523 88.162 468.683 87.952 467.939 87.532C467.207 87.112 466.631 86.518 466.211 85.75C465.791 84.97 465.581 84.07 465.581 83.05C465.581 82.03 465.785 81.136 466.193 80.368C466.601 79.6 467.171 79.012 467.903 78.604C468.647 78.184 469.499 77.974 470.459 77.974C471.395 77.974 472.223 78.178 472.943 78.586C473.663 78.994 474.215 79.558 474.599 80.278C474.995 80.986 475.193 81.79 475.193 82.69ZM473.501 82.348C473.501 81.724 473.363 81.19 473.087 80.746C472.811 80.29 472.433 79.948 471.953 79.72C471.485 79.48 470.963 79.36 470.387 79.36C469.559 79.36 468.851 79.624 468.263 80.152C467.687 80.68 467.357 81.412 467.273 82.348H473.501ZM478.201 76.534C477.889 76.534 477.625 76.426 477.409 76.21C477.193 75.994 477.085 75.73 477.085 75.418C477.085 75.106 477.193 74.842 477.409 74.626C477.625 74.41 477.889 74.302 478.201 74.302C478.501 74.302 478.753 74.41 478.957 74.626C479.173 74.842 479.281 75.106 479.281 75.418C479.281 75.73 479.173 75.994 478.957 76.21C478.753 76.426 478.501 76.534 478.201 76.534ZM478.993 78.136V88H477.355V78.136H478.993ZM483.422 79.738C483.71 79.174 484.118 78.736 484.646 78.424C485.186 78.112 485.84 77.956 486.608 77.956V79.648H486.176C484.34 79.648 483.422 80.644 483.422 82.636V88H481.784V78.136H483.422V79.738ZM494.936 79.738C495.224 79.174 495.632 78.736 496.16 78.424C496.7 78.112 497.354 77.956 498.122 77.956V79.648H497.69C495.854 79.648 494.936 80.644 494.936 82.636V88H493.298V78.136H494.936V79.738ZM509.013 82.69C509.013 83.002 508.995 83.332 508.959 83.68H501.075C501.135 84.652 501.465 85.414 502.065 85.966C502.677 86.506 503.415 86.776 504.279 86.776C504.987 86.776 505.575 86.614 506.043 86.29C506.523 85.954 506.859 85.51 507.051 84.958H508.815C508.551 85.906 508.023 86.68 507.231 87.28C506.439 87.868 505.455 88.162 504.279 88.162C503.343 88.162 502.503 87.952 501.759 87.532C501.027 87.112 500.451 86.518 500.031 85.75C499.611 84.97 499.401 84.07 499.401 83.05C499.401 82.03 499.605 81.136 500.013 80.368C500.421 79.6 500.991 79.012 501.723 78.604C502.467 78.184 503.319 77.974 504.279 77.974C505.215 77.974 506.043 78.178 506.763 78.586C507.483 78.994 508.035 79.558 508.419 80.278C508.815 80.986 509.013 81.79 509.013 82.69ZM507.321 82.348C507.321 81.724 507.183 81.19 506.907 80.746C506.631 80.29 506.253 79.948 505.773 79.72C505.305 79.48 504.783 79.36 504.207 79.36C503.379 79.36 502.671 79.624 502.083 80.152C501.507 80.68 501.177 81.412 501.093 82.348H507.321ZM514.667 88.162C513.911 88.162 513.233 88.036 512.633 87.784C512.033 87.52 511.559 87.16 511.211 86.704C510.863 86.236 510.671 85.702 510.635 85.102H512.327C512.375 85.594 512.603 85.996 513.011 86.308C513.431 86.62 513.977 86.776 514.649 86.776C515.273 86.776 515.765 86.638 516.125 86.362C516.485 86.086 516.665 85.738 516.665 85.318C516.665 84.886 516.473 84.568 516.089 84.364C515.705 84.148 515.111 83.938 514.307 83.734C513.575 83.542 512.975 83.35 512.507 83.158C512.051 82.954 511.655 82.66 511.319 82.276C510.995 81.88 510.833 81.364 510.833 80.728C510.833 80.224 510.983 79.762 511.283 79.342C511.583 78.922 512.009 78.592 512.561 78.352C513.113 78.1 513.743 77.974 514.451 77.974C515.543 77.974 516.425 78.25 517.097 78.802C517.769 79.354 518.129 80.11 518.177 81.07H516.539C516.503 80.554 516.293 80.14 515.909 79.828C515.537 79.516 515.033 79.36 514.397 79.36C513.809 79.36 513.341 79.486 512.993 79.738C512.645 79.99 512.471 80.32 512.471 80.728C512.471 81.052 512.573 81.322 512.777 81.538C512.993 81.742 513.257 81.91 513.569 82.042C513.893 82.162 514.337 82.3 514.901 82.456C515.609 82.648 516.185 82.84 516.629 83.032C517.073 83.212 517.451 83.488 517.763 83.86C518.087 84.232 518.255 84.718 518.267 85.318C518.267 85.858 518.117 86.344 517.817 86.776C517.517 87.208 517.091 87.55 516.539 87.802C515.999 88.042 515.375 88.162 514.667 88.162ZM522.217 79.954C522.541 79.39 523.021 78.922 523.657 78.55C524.305 78.166 525.055 77.974 525.907 77.974C526.783 77.974 527.575 78.184 528.283 78.604C529.003 79.024 529.567 79.618 529.975 80.386C530.383 81.142 530.587 82.024 530.587 83.032C530.587 84.028 530.383 84.916 529.975 85.696C529.567 86.476 529.003 87.082 528.283 87.514C527.575 87.946 526.783 88.162 525.907 88.162C525.067 88.162 524.323 87.976 523.675 87.604C523.039 87.22 522.553 86.746 522.217 86.182V92.68H520.579V78.136H522.217V79.954ZM528.913 83.032C528.913 82.288 528.763 81.64 528.463 81.088C528.163 80.536 527.755 80.116 527.239 79.828C526.735 79.54 526.177 79.396 525.565 79.396C524.965 79.396 524.407 79.546 523.891 79.846C523.387 80.134 522.979 80.56 522.667 81.124C522.367 81.676 522.217 82.318 522.217 83.05C522.217 83.794 522.367 84.448 522.667 85.012C522.979 85.564 523.387 85.99 523.891 86.29C524.407 86.578 524.965 86.722 525.565 86.722C526.177 86.722 526.735 86.578 527.239 86.29C527.755 85.99 528.163 85.564 528.463 85.012C528.763 84.448 528.913 83.788 528.913 83.032ZM541.743 82.69C541.743 83.002 541.725 83.332 541.689 83.68H533.805C533.865 84.652 534.195 85.414 534.795 85.966C535.407 86.506 536.145 86.776 537.009 86.776C537.717 86.776 538.305 86.614 538.773 86.29C539.253 85.954 539.589 85.51 539.781 84.958H541.545C541.281 85.906 540.753 86.68 539.961 87.28C539.169 87.868 538.185 88.162 537.009 88.162C536.073 88.162 535.233 87.952 534.489 87.532C533.757 87.112 533.181 86.518 532.761 85.75C532.341 84.97 532.131 84.07 532.131 83.05C532.131 82.03 532.335 81.136 532.743 80.368C533.151 79.6 533.721 79.012 534.453 78.604C535.197 78.184 536.049 77.974 537.009 77.974C537.945 77.974 538.773 78.178 539.493 78.586C540.213 78.994 540.765 79.558 541.149 80.278C541.545 80.986 541.743 81.79 541.743 82.69ZM540.051 82.348C540.051 81.724 539.913 81.19 539.637 80.746C539.361 80.29 538.983 79.948 538.503 79.72C538.035 79.48 537.513 79.36 536.937 79.36C536.109 79.36 535.401 79.624 534.813 80.152C534.237 80.68 533.907 81.412 533.823 82.348H540.051ZM543.294 83.05C543.294 82.03 543.498 81.142 543.906 80.386C544.314 79.618 544.878 79.024 545.598 78.604C546.33 78.184 547.164 77.974 548.1 77.974C549.312 77.974 550.308 78.268 551.088 78.856C551.88 79.444 552.402 80.26 552.654 81.304H550.89C550.722 80.704 550.392 80.23 549.9 79.882C549.42 79.534 548.82 79.36 548.1 79.36C547.164 79.36 546.408 79.684 545.832 80.332C545.256 80.968 544.968 81.874 544.968 83.05C544.968 84.238 545.256 85.156 545.832 85.804C546.408 86.452 547.164 86.776 548.1 86.776C548.82 86.776 549.42 86.608 549.9 86.272C550.38 85.936 550.71 85.456 550.89 84.832H552.654C552.39 85.84 551.862 86.65 551.07 87.262C550.278 87.862 549.288 88.162 548.1 88.162C547.164 88.162 546.33 87.952 545.598 87.532C544.878 87.112 544.314 86.518 543.906 85.75C543.498 84.982 543.294 84.082 543.294 83.05ZM556.837 79.486V85.3C556.837 85.78 556.939 86.122 557.143 86.326C557.347 86.518 557.701 86.614 558.205 86.614H559.411V88H557.935C557.023 88 556.339 87.79 555.883 87.37C555.427 86.95 555.199 86.26 555.199 85.3V79.486H553.921V78.136H555.199V75.652H556.837V78.136H559.411V79.486H556.837ZM562.242 76.534C561.93 76.534 561.666 76.426 561.45 76.21C561.234 75.994 561.126 75.73 561.126 75.418C561.126 75.106 561.234 74.842 561.45 74.626C561.666 74.41 561.93 74.302 562.242 74.302C562.542 74.302 562.794 74.41 562.998 74.626C563.214 74.842 563.322 75.106 563.322 75.418C563.322 75.73 563.214 75.994 562.998 76.21C562.794 76.426 562.542 76.534 562.242 76.534ZM563.034 78.136V88H561.396V78.136H563.034ZM569.497 86.488L572.557 78.136H574.303L570.433 88H568.525L564.655 78.136H566.419L569.497 86.488ZM584.915 82.69C584.915 83.002 584.897 83.332 584.861 83.68H576.977C577.037 84.652 577.367 85.414 577.967 85.966C578.579 86.506 579.317 86.776 580.181 86.776C580.889 86.776 581.477 86.614 581.945 86.29C582.425 85.954 582.761 85.51 582.953 84.958H584.717C584.453 85.906 583.925 86.68 583.133 87.28C582.341 87.868 581.357 88.162 580.181 88.162C579.245 88.162 578.405 87.952 577.661 87.532C576.929 87.112 576.353 86.518 575.933 85.75C575.513 84.97 575.303 84.07 575.303 83.05C575.303 82.03 575.507 81.136 575.915 80.368C576.323 79.6 576.893 79.012 577.625 78.604C578.369 78.184 579.221 77.974 580.181 77.974C581.117 77.974 581.945 78.178 582.665 78.586C583.385 78.994 583.937 79.558 584.321 80.278C584.717 80.986 584.915 81.79 584.915 82.69ZM583.223 82.348C583.223 81.724 583.085 81.19 582.809 80.746C582.533 80.29 582.155 79.948 581.675 79.72C581.207 79.48 580.685 79.36 580.109 79.36C579.281 79.36 578.573 79.624 577.985 80.152C577.409 80.68 577.079 81.412 576.995 82.348H583.223ZM595.89 79.486H593.82V88H592.182V79.486H590.904V78.136H592.182V77.434C592.182 76.33 592.464 75.526 593.028 75.022C593.604 74.506 594.522 74.248 595.782 74.248V75.616C595.062 75.616 594.552 75.76 594.252 76.048C593.964 76.324 593.82 76.786 593.82 77.434V78.136H595.89V79.486ZM598.646 76.534C598.334 76.534 598.07 76.426 597.854 76.21C597.638 75.994 597.53 75.73 597.53 75.418C597.53 75.106 597.638 74.842 597.854 74.626C598.07 74.41 598.334 74.302 598.646 74.302C598.946 74.302 599.198 74.41 599.402 74.626C599.618 74.842 599.726 75.106 599.726 75.418C599.726 75.73 599.618 75.994 599.402 76.21C599.198 76.426 598.946 76.534 598.646 76.534ZM599.438 78.136V88H597.8V78.136H599.438ZM611.23 82.69C611.23 83.002 611.212 83.332 611.176 83.68H603.292C603.352 84.652 603.682 85.414 604.282 85.966C604.894 86.506 605.632 86.776 606.496 86.776C607.204 86.776 607.792 86.614 608.26 86.29C608.74 85.954 609.076 85.51 609.268 84.958H611.032C610.768 85.906 610.24 86.68 609.448 87.28C608.656 87.868 607.672 88.162 606.496 88.162C605.56 88.162 604.72 87.952 603.976 87.532C603.244 87.112 602.668 86.518 602.248 85.75C601.828 84.97 601.618 84.07 601.618 83.05C601.618 82.03 601.822 81.136 602.23 80.368C602.638 79.6 603.208 79.012 603.94 78.604C604.684 78.184 605.536 77.974 606.496 77.974C607.432 77.974 608.26 78.178 608.98 78.586C609.7 78.994 610.252 79.558 610.636 80.278C611.032 80.986 611.23 81.79 611.23 82.69ZM609.538 82.348C609.538 81.724 609.4 81.19 609.124 80.746C608.848 80.29 608.47 79.948 607.99 79.72C607.522 79.48 607 79.36 606.424 79.36C605.596 79.36 604.888 79.624 604.3 80.152C603.724 80.68 603.394 81.412 603.31 82.348H609.538ZM615.03 74.68V88H613.392V74.68H615.03ZM617.21 83.032C617.21 82.024 617.414 81.142 617.822 80.386C618.23 79.618 618.788 79.024 619.496 78.604C620.216 78.184 621.02 77.974 621.908 77.974C622.676 77.974 623.39 78.154 624.05 78.514C624.71 78.862 625.214 79.324 625.562 79.9V74.68H627.218V88H625.562V86.146C625.238 86.734 624.758 87.22 624.122 87.604C623.486 87.976 622.742 88.162 621.89 88.162C621.014 88.162 620.216 87.946 619.496 87.514C618.788 87.082 618.23 86.476 617.822 85.696C617.414 84.916 617.21 84.028 617.21 83.032ZM625.562 83.05C625.562 82.306 625.412 81.658 625.112 81.106C624.812 80.554 624.404 80.134 623.888 79.846C623.384 79.546 622.826 79.396 622.214 79.396C621.602 79.396 621.044 79.54 620.54 79.828C620.036 80.116 619.634 80.536 619.334 81.088C619.034 81.64 618.884 82.288 618.884 83.032C618.884 83.788 619.034 84.448 619.334 85.012C619.634 85.564 620.036 85.99 620.54 86.29C621.044 86.578 621.602 86.722 622.214 86.722C622.826 86.722 623.384 86.578 623.888 86.29C624.404 85.99 624.812 85.564 625.112 85.012C625.412 84.448 625.562 83.794 625.562 83.05ZM633.478 88.162C632.722 88.162 632.044 88.036 631.444 87.784C630.844 87.52 630.37 87.16 630.022 86.704C629.674 86.236 629.482 85.702 629.446 85.102H631.138C631.186 85.594 631.414 85.996 631.822 86.308C632.242 86.62 632.788 86.776 633.46 86.776C634.084 86.776 634.576 86.638 634.936 86.362C635.296 86.086 635.476 85.738 635.476 85.318C635.476 84.886 635.284 84.568 634.9 84.364C634.516 84.148 633.922 83.938 633.118 83.734C632.386 83.542 631.786 83.35 631.318 83.158C630.862 82.954 630.466 82.66 630.13 82.276C629.806 81.88 629.644 81.364 629.644 80.728C629.644 80.224 629.794 79.762 630.094 79.342C630.394 78.922 630.82 78.592 631.372 78.352C631.924 78.1 632.554 77.974 633.262 77.974C634.354 77.974 635.236 78.25 635.908 78.802C636.58 79.354 636.94 80.11 636.988 81.07H635.35C635.314 80.554 635.104 80.14 634.72 79.828C634.348 79.516 633.844 79.36 633.208 79.36C632.62 79.36 632.152 79.486 631.804 79.738C631.456 79.99 631.282 80.32 631.282 80.728C631.282 81.052 631.384 81.322 631.588 81.538C631.804 81.742 632.068 81.91 632.38 82.042C632.704 82.162 633.148 82.3 633.712 82.456C634.42 82.648 634.996 82.84 635.44 83.032C635.884 83.212 636.262 83.488 636.574 83.86C636.898 84.232 637.066 84.718 637.078 85.318C637.078 85.858 636.928 86.344 636.628 86.776C636.328 87.208 635.902 87.55 635.35 87.802C634.81 88.042 634.186 88.162 633.478 88.162ZM639.912 88.108C639.6 88.108 639.336 88 639.12 87.784C638.904 87.568 638.796 87.304 638.796 86.992C638.796 86.68 638.904 86.416 639.12 86.2C639.336 85.984 639.6 85.876 639.912 85.876C640.212 85.876 640.464 85.984 640.668 86.2C640.884 86.416 640.992 86.68 640.992 86.992C640.992 87.304 640.884 87.568 640.668 87.784C640.464 88 640.212 88.108 639.912 88.108Z" fill="#FFB412"/>
</svg>
