<svg width="21" height="20" viewBox="0 0 21 20" fill="none" xmlns="http://www.w3.org/2000/svg">
<g clip-path="url(#clip0_261_1354)">
<path fill-rule="evenodd" clip-rule="evenodd" d="M20.8438 3.24754C20.1073 3.5993 19.3167 3.83577 18.4873 3.944C19.3343 3.39695 19.9849 2.53224 20.292 1.4993C19.4979 2.00636 18.6179 2.37459 17.6838 2.57224C16.9367 1.71224 15.8685 1.17578 14.6896 1.17578C12.4214 1.17578 10.5837 3.15459 10.5837 5.59459C10.5837 5.94166 10.6214 6.27813 10.6896 6.60166C7.28021 6.41695 4.25317 4.6593 2.22964 1.98519C1.87786 2.63696 1.67433 3.39696 1.67433 4.20636C1.67433 5.7393 2.62257 7.08989 3.72375 7.88401C3.05081 7.86047 2.08728 7.66047 2.08728 7.32871V7.38754C2.08728 9.52637 3.27905 11.3111 5.15551 11.7193C4.81199 11.8181 4.33905 11.8734 3.96375 11.8734C3.69904 11.8734 3.3861 11.8452 3.13433 11.7922C3.65788 13.5475 5.1461 14.8252 6.9414 14.8628C5.53669 16.0452 3.75317 16.7522 1.83081 16.7522C1.49904 16.7522 1.16375 16.7311 0.84375 16.6911C2.6614 17.9428 4.81433 18.6758 7.13198 18.6758C14.6838 18.6758 18.8096 11.9452 18.8096 6.10754C18.8096 5.91577 18.8049 5.72283 18.7955 5.53342C19.5979 4.91106 20.2943 4.13342 20.8438 3.24754Z" fill="#94A3B8" fill-opacity="0.8"/>
</g>
<defs>
<clipPath id="clip0_261_1354">
<rect width="20" height="20" fill="white" transform="translate(0.84375)"/>
</clipPath>
</defs>
</svg>
