<svg width="48" height="48" viewBox="0 0 48 48" fill="none" xmlns="http://www.w3.org/2000/svg">
<g filter="url(#filter0_d_32_161)">
<path d="M38 0H10C6.68629 0 4 2.68629 4 6V34C4 37.3137 6.68629 40 10 40H38C41.3137 40 44 37.3137 44 34V6C44 2.68629 41.3137 0 38 0Z" fill="#25D366"/>
</g>
<path d="M13.6094 30.7031L14.7032 25.625C13.2974 23.4076 12.749 20.7536 13.1609 18.1607C13.5727 15.5678 14.9166 13.2143 16.9403 11.5417C18.964 9.8692 21.5284 8.99256 24.1525 9.07629C26.7765 9.16002 29.2799 10.1984 31.1928 11.9965C33.1057 13.7947 34.2968 16.2291 34.5425 18.843C34.7883 21.4568 34.0718 24.0705 32.5275 26.1937C30.9832 28.3169 28.7172 29.8036 26.1548 30.3749C23.5923 30.9463 20.9094 30.5629 18.6094 29.2968L13.6094 30.7031Z" fill="#25D366" stroke="white" stroke-width="2"/>
<path d="M28.0625 21.3283C27.8282 21.1721 27.5938 21.0939 27.3594 21.4064L26.4219 22.6564C26.1875 22.8127 26.0313 22.8908 25.7188 22.7346C24.5469 22.1096 22.9063 21.4064 21.5 19.0627C21.4219 18.7502 21.5782 18.5939 21.7344 18.4377L22.4375 17.3439C22.5938 17.1877 22.5157 17.0314 22.4375 16.8752L21.5 14.6096C21.2657 13.9846 21.0313 14.0627 20.7969 14.0627H20.1719C20.0157 14.0627 19.7032 14.1408 19.3907 14.4533C17.6719 16.1721 18.375 18.5939 19.625 20.1564C19.8594 20.4689 21.4219 23.2814 24.7813 24.7658C27.2813 25.8596 27.8282 25.7033 28.5313 25.5471C29.3907 25.4689 30.25 24.7658 30.6407 24.0627C30.7188 23.8283 31.1094 22.8127 30.7969 22.6564" fill="white"/>
<defs>
<filter id="filter0_d_32_161" x="0" y="0" width="48" height="48" filterUnits="userSpaceOnUse" color-interpolation-filters="sRGB">
<feFlood flood-opacity="0" result="BackgroundImageFix"/>
<feColorMatrix in="SourceAlpha" type="matrix" values="0 0 0 0 0 0 0 0 0 0 0 0 0 0 0 0 0 0 127 0" result="hardAlpha"/>
<feOffset dy="4"/>
<feGaussianBlur stdDeviation="2"/>
<feComposite in2="hardAlpha" operator="out"/>
<feColorMatrix type="matrix" values="0 0 0 0 0 0 0 0 0 0 0 0 0 0 0 0 0 0 0.25 0"/>
<feBlend mode="normal" in2="BackgroundImageFix" result="effect1_dropShadow_32_161"/>
<feBlend mode="normal" in="SourceGraphic" in2="effect1_dropShadow_32_161" result="shape"/>
</filter>
</defs>
</svg>
